<svg version="1.2" xmlns="http://www.w3.org/2000/svg" viewBox="0 0 781 394" width="781" height="394">
	<title>2432854</title>
	<defs>
		<linearGradient id="g1" x2="1" gradientUnits="userSpaceOnUse" gradientTransform="matrix(162.338,0,0,152.36,611.815,186.212)">
			<stop offset="0" stop-color="#3fae83"/>
			<stop offset="1" stop-color="#2d8578"/>
		</linearGradient>
		<linearGradient id="g2" x2="1" gradientUnits="userSpaceOnUse" gradientTransform="matrix(-124.466,0,0,-116.816,169.245,216.343)">
			<stop offset="0" stop-color="#3fae83"/>
			<stop offset="1" stop-color="#2d8578"/>
		</linearGradient>
		<linearGradient id="g3" x2="1" gradientUnits="userSpaceOnUse" gradientTransform="matrix(-84.463,267.161,-220.127,-69.593,430.519,155.7)">
			<stop offset="0" stop-color="#ffd0b4"/>
			<stop offset="1" stop-color="#fe9e88"/>
		</linearGradient>
		<linearGradient id="g4" x2="1" gradientUnits="userSpaceOnUse" gradientTransform="matrix(-88.744,222.548,-189.596,-75.603,562.747,199.923)">
			<stop offset="0" stop-color="#ffd0b4"/>
			<stop offset="1" stop-color="#fe9e88"/>
		</linearGradient>
		<linearGradient id="g5" x2="1" gradientUnits="userSpaceOnUse" gradientTransform="matrix(-55.543,115.928,-129.935,-62.254,613.676,144.201)">
			<stop offset="0" stop-color="#ffd0b4"/>
			<stop offset="1" stop-color="#fe9e88"/>
		</linearGradient>
	</defs>
	<style>
		tspan { white-space:pre } 
		.s0 { fill: #e60f0e } 
		.s1 { fill: url(#g1) } 
		.s2 { fill: #287d6a } 
		.s3 { fill: #000000 } 
		.s4 { fill: url(#g2) } 
		.s5 { fill: #ffffff } 
		.s6 { fill: #f9f7f7 } 
		.s7 { fill: #231f20 } 
		.s8 { opacity: .1;fill: #050505 } 
		.s9 { fill: url(#g3) } 
		.s10 { fill: url(#g4) } 
		.s11 { fill: none;stroke: url(#g5);stroke-miterlimit:10 } 
		.s12 { fill: none;stroke: #278974;stroke-miterlimit:10;stroke-width: 2 } 
		.s13 { fill: #34a682 } 
		.s14 { opacity: .5;fill: #fed1bd } 
		.s15 { fill: #feddb4 } 
		.s16 { fill: #278974 } 
		.s17 { fill: #ffc251 } 
		.s18 { fill: #ffa340 } 
	</style>
	<g id="OBJECTS">
		<g id="&lt;Group&gt;">
			<g id="&lt;Group&gt;">
				<g id="&lt;Group&gt;">
				</g>
				<g id="&lt;Group&gt;">
					<g id="&lt;Group&gt;">
						<path id="&lt;Compound Path&gt;" fill-rule="evenodd" class="s0" d="m752.6 174.2c1.2 2.6 0 6-1.6 8.3-2.7 3.7-7.1 5.9-11.6 5.8q-0.1 0-0.1 0c-19.3 19.1-40.1 39-67.2 45.5-12.6 18.6-25.8 36.7-41.7 52.6-2.2 11.1-4.2 22.1-6.2 33.1-0.1 0.7-1.2 0.4-1.1-0.3 1.9-10.7 3.9-21.4 6-32.1-0.3-0.2-0.4-0.6-0.1-0.9q0.2-0.2 0.3-0.4 0.4-1.8 0.8-3.6c2.6-12.9 5.4-25.7 8.7-38.4-0.2 0.1-0.6 0-0.8-0.4-7.2-18.7-10.1-38.6-11.7-58.5q-1.2-15-1.8-30.1c-0.4-8.7-0.3-17.4 1.4-26q-0.1-0.1-0.1-0.1c-3.2-3.5-5-8.3-3.9-13 0.6-2.9 2.5-5.6 5.4-6.3 0-0.7-0.6-1.5-0.6-2.3 0-0.1 0-0.2 0.1-0.2 0.2-0.1 0.3 0 0.4 0.2q0.4 1.1 0.9 2.2 0.2 0 0.5 0 0.7-2 1.6-3.8c0.6 1.2-0.3 2.8 0 4q0.3 0.1 0.6 0.2c0.7-0.7 1.1-1.9 2-2q-0.4 1.3-1.1 2.6c2.3 1.6 2.8 5.2 2.4 8-0.6 4.4-3.3 8.1-7 10.2-1.9 9.2-1.9 18.6-1.4 27.9 0.4 9.5 1 19.1 1.8 28.6 1.6 19.7 4.5 39.4 11.6 57.9 7.7-29.2 18-57.7 33.7-83.7-1.7-4.3-1.8-9.3 0.7-13.4 1.6-2.5 4.3-4.4 7.2-4.1 0.3-0.7 0.1-1.6 0.3-2.4 0.1 0 0.1-0.1 0.2-0.2 0.2 0 0.2 0.2 0.2 0.4q0.1 1.2 0.2 2.4 0.2 0.1 0.4 0.1 1.3-1.6 2.9-3c0.1 1.4-1.3 2.5-1.4 3.8q0.3 0.2 0.5 0.4c0.9-0.4 1.6-1.4 2.6-1.3q-0.9 1.2-1.9 2.1c1.5 2.4 0.8 5.9-0.5 8.4-2 4-6 6.7-10.4 7.3-6.4 10.8-12.1 22-17 33.5-12.3 29.2-19.8 60.1-26 91.2 6.6-6.7 12.8-13.8 18.6-21.1 7.6-9.6 14.6-19.5 21.5-29.6-0.2-0.3-0.1-0.7 0.3-0.8q0.1-0.1 0.3-0.1c12.6-18.6 24.7-37.6 38.7-55.3-1.8-4.2-1.8-9.2 0.7-13.2 1.6-2.5 4.3-4.4 7.2-4.1 0.3-0.7 0.1-1.7 0.3-2.4 0.1-0.1 0.1-0.2 0.2-0.2 0.1 0 0.2 0.2 0.2 0.3q0.1 1.2 0.2 2.5 0.2 0 0.4 0.1 1.3-1.6 2.9-3c0.1 1.3-1.3 2.5-1.4 3.8q0.2 0.1 0.5 0.3c0.9-0.4 1.6-1.4 2.6-1.2q-0.9 1.1-1.9 2c1.5 2.4 0.8 6-0.5 8.5-2.1 4-6.1 6.7-10.5 7.3-6.1 7.8-12 15.8-17.6 24-6.9 10-13.6 20.1-20.4 30.2 26.4-6.8 46.7-26.4 65.6-45.1-1-4.4-0.4-9.3 2.6-12.8 1.9-2.3 4.9-3.8 7.7-3.1 0.3-0.6 0.2-1.6 0.6-2.3 0.1-0.1 0.1-0.1 0.2-0.2 0.2 0 0.2 0.3 0.2 0.4q-0.1 1.2-0.2 2.4 0.2 0.1 0.4 0.2 1.5-1.4 3.3-2.6c-0.1 1.4-1.7 2.3-1.9 3.6q0.2 0.2 0.4 0.4c0.9-0.3 1.8-1.1 2.8-0.8q-1 0.9-2.2 1.7zm-41.5 2.6q0.2 0 0.4 0.2c2.8-0.6 5.4-1.9 7.4-4.2 2.2-2.5 4.8-8.3 1.2-10.8-4-2.6-7.9 1.6-9.2 5-1.2 3.2-1 6.7 0.2 9.8zm-37.3-18.2c3-0.5 5.7-1.9 7.7-4.2 2.2-2.6 4.8-8.3 1.2-10.8-4-2.7-7.9 1.5-9.2 4.9-1.2 3.3-1 6.9 0.3 10.1zm-47.5-31.1q0.2-0.1 0.4-0.1c2.5-1.4 4.4-3.6 5.5-6.3 1.3-3.1 1.8-9.5-2.5-10.6-4.6-1.1-6.9 4.1-7 7.8 0 3.4 1.4 6.6 3.6 9.2zm124.4 46c-3.6-3.1-8.1 0.5-9.8 3.7-1.6 3-1.9 6.4-1.1 9.7q0.1 0.1 0.1 0.3c3-0.1 5.8-1.2 8.1-3.1 2.6-2.2 5.9-7.6 2.7-10.6z"/>
						<path id="&lt;Compound Path&gt;" fill-rule="evenodd" class="s0" d="m743.8 363.8c-1.2 1.3-3.3 1.4-5 1-2.7-0.6-4.9-2.5-6-5.1q0 0 0 0c-15.1-6.3-31-13.2-41-26.8-13.3-2.7-26.5-5.8-39.1-10.9-6.6 1.3-13.2 2.8-19.8 4.3-0.5 0.1-0.5-0.6-0.1-0.7 6.4-1.4 12.8-2.9 19.3-4.2 0-0.2 0.2-0.4 0.4-0.3q0.2 0.1 0.3 0.2 1.1-0.3 2.2-0.5c7.8-1.6 15.6-3 23.5-4.1-0.1-0.1-0.2-0.4 0-0.5 8.7-8.4 19.1-14.7 29.8-20.2q8.1-4.2 16.3-8.1c4.8-2.2 9.7-4.2 14.9-5.3q0 0 0 0c1.2-2.6 3.4-4.8 6.3-5.3 1.8-0.3 3.7 0.1 4.8 1.6 0.4-0.2 0.7-0.7 1.1-0.9q0.1 0 0.2 0c0.1 0.1 0 0.2-0.1 0.3q-0.5 0.5-1 1 0.1 0.1 0.2 0.3 1.2-0.1 2.5 0c-0.6 0.6-1.7 0.4-2.3 0.9q0 0.2 0 0.4c0.6 0.2 1.3 0.2 1.6 0.7q-0.8 0-1.6-0.1c-0.5 1.7-2.3 2.8-4 3.3-2.5 0.7-5.3 0-7.3-1.6-5.6 1.1-10.8 3.3-15.9 5.8q-7.8 3.7-15.5 7.6c-10.5 5.5-20.8 11.7-29.5 20 18.1-2.5 36.4-3.4 54.5-0.7 2-2 4.8-3.2 7.6-2.8 1.8 0.3 3.5 1.4 4 3.1 0.4 0 0.9-0.4 1.4-0.4q0.1 0 0.1 0c0.1 0.1 0 0.2-0.1 0.3q-0.7 0.3-1.3 0.6 0 0.1 0 0.3 1.2 0.3 2.4 0.8c-0.8 0.4-1.7-0.1-2.5 0.2q0 0.2-0.1 0.3c0.5 0.4 1.2 0.6 1.3 1.2q-0.8-0.2-1.6-0.6c-0.9 1.4-3.1 1.9-4.8 1.7-2.7-0.2-5.1-1.8-6.5-4-7.4-1.1-15-1.7-22.6-1.7-19.1 0-38.1 3-56.8 6.8 5.2 2.1 10.6 3.9 16.1 5.4 7.1 2 14.3 3.6 21.5 5.1 0.1-0.2 0.4-0.2 0.5 0q0.1 0 0.1 0.1c13.3 2.7 26.7 5 39.8 8.6 2-1.9 4.8-3.1 7.6-2.6 1.7 0.2 3.4 1.3 3.9 3 0.5 0 1-0.3 1.4-0.4q0.1 0 0.2 0.1c0.1 0-0.1 0.1-0.1 0.2q-0.7 0.3-1.3 0.6 0 0.2 0 0.3 1.2 0.4 2.3 0.9c-0.7 0.4-1.7-0.1-2.4 0.1q0 0.2-0.1 0.3c0.4 0.5 1.2 0.6 1.3 1.2q-0.8-0.2-1.6-0.6c-0.9 1.5-3.1 1.9-4.8 1.8-2.7-0.3-5.1-1.9-6.5-4.2-5.8-1.6-11.6-2.9-17.5-4.2-7.2-1.5-14.4-2.8-21.6-4.3 10 13.1 25.7 19.9 40.5 26 2.2-1.6 5-2.3 7.7-1.5 1.7 0.5 3.2 1.8 3.5 3.5 0.5 0.1 1-0.2 1.4-0.2q0.1 0 0.2 0.1c0 0.1-0.1 0.2-0.2 0.2q-0.7 0.2-1.4 0.5 0 0.1 0 0.2 1.2 0.5 2.2 1.2c-0.7 0.3-1.6-0.3-2.4-0.2q-0.1 0.2-0.1 0.3c0.3 0.5 1 0.8 1.1 1.4q-0.8-0.3-1.5-0.8zm-11.2-22.5q0.1 0.1 0 0.2c1 1.5 2.4 2.6 4.1 3.2 1.9 0.6 5.7 0.8 6.3-1.9 0.5-2.8-2.7-4-4.9-3.9-2.1 0.1-4 1-5.5 2.4zm1.5-25c0.9 1.5 2.4 2.7 4.1 3.3 1.9 0.6 5.8 0.7 6.3-1.9 0.6-2.8-2.7-4-4.9-4-2.1 0.1-4 1.1-5.5 2.6zm6.2-33.8q0.1 0.1 0.1 0.3c1.4 1 3.1 1.6 4.8 1.6 2.1-0.1 5.7-1.3 5.3-3.9-0.4-2.8-3.9-2.9-5.9-2.1-1.9 0.8-3.4 2.3-4.3 4.1zm3.4 80.1c0.9-2.8-2.1-4.4-4.3-4.6-2-0.2-4 0.4-5.7 1.6q0 0.1-0.1 0.2c0.8 1.6 2 2.9 3.6 3.7 1.9 1 5.6 1.6 6.5-0.9z"/>
						<g id="&lt;Group&gt;">
							<path id="&lt;Path&gt;" class="s1" d="m611.8 323.3c0.1-16.7 0.3-33.8 6.2-49.4 3.2-8.5 8.3-16.7 16.1-21.3 2.3-1.4 5.4-2.4 7.6-0.9 2.8 2 2.1 6.2 1.9 9.6-0.3 3.4 1.9 8 5.1 6.9 1.6-0.5 2.4-2.2 3-3.7 7.5-17.4 13.1-36.3 26.5-49.7 3-3 6.8-5.9 11.1-6.2 4.3-0.3 9.1 2.8 9.1 7.1 0 2-0.9 3.8-1.6 5.5-1.7 3.9-2.9 8-3.6 12.2-0.3 1.4-0.3 3.1 0.8 4 1.8 1.4 4.2-0.8 5.4-2.7 12.3-18.8 25.9-38.7 47-46.5 6.2-2.3 13.6-3.2 19.1 0.5 5.4 3.7 7.2 10.7 8.1 17.1 0.5 3.2 0.8 6.5 0.4 9.7-1.1 9.3-7.5 17.1-15 22.8-7.4 5.6-16 9.7-23.6 15-1.7 1.3-3.6 3.3-2.7 5.2 0.4 0.8 1.3 1.3 2.1 1.6 7.9 3.1 17.1-4.3 25-1.1 0.9 0.4 1.8 1 2.3 1.9 0.7 1.2 0.6 2.7 0.3 4-2.4 11.2-12 19.6-22.6 23.8-10.6 4.2-22.1 5-33.5 6.1-2.6 0.2-6.3 1.9-5.3 4.4 0.4 0.8 1.2 1.4 2 1.8 6.4 3.2 15.6 1.7 19.7 7.6 2.7 3.8 1.8 9.4-1.1 13.1-2.9 3.7-7.2 6-11.5 7.9-31.2 13.4-68.4 11.7-98.2-4.5"/>
							<path id="&lt;Path&gt;" class="s2" d="m628.4 316.6c0.1-9.6 0.3-19.4 3.7-28.4 1.8-4.9 4.8-9.6 9.1-12.3 1.3-0.8 3.1-1.4 4.3-0.5 1.6 1.1 1.1 3.5 1 5.4-0.2 2 1 4.6 2.9 4 0.8-0.3 1.3-1.3 1.7-2.1 4.2-10 7.5-21 15-28.7 1.8-1.7 3.9-3.4 6.3-3.6 2.4-0.2 5.1 1.6 5.1 4.1 0 1.1-0.5 2.1-1 3.1-0.9 2.3-1.6 4.6-2 7-0.2 0.8-0.2 1.8 0.4 2.3 1 0.8 2.3-0.5 3.1-1.6 6.9-10.8 14.7-22.3 26.5-26.9 3.5-1.3 7.7-1.9 10.7 0.2 3 2.1 4 6.1 4.5 9.8 0.2 1.8 0.4 3.7 0.2 5.5-0.7 5.4-4.3 9.9-8.5 13.2-4.2 3.3-9 5.6-13.4 8.7-0.9 0.7-2 1.9-1.5 3 0.2 0.5 0.7 0.8 1.2 0.9 4.4 1.8 9.6-2.5 14-0.7 0.5 0.2 1 0.5 1.3 1 0.4 0.7 0.3 1.6 0.1 2.4-1.4 6.3-6.8 11.2-12.8 13.7-5.9 2.5-12.4 3-18.8 3.6-1.5 0.2-3.5 1.2-2.9 2.6 0.1 0.5 0.6 0.8 1 1 3.6 1.9 8.8 0.9 11.1 4.3 1.5 2.2 0.9 5.4-0.7 7.5-1.7 2.2-4.1 3.5-6.5 4.6-17.6 7.8-38.5 7.1-55.1-2.1"/>
							<g id="&lt;Group&gt;">
								<path id="&lt;Path&gt;" class="s3" d="m612.2 325.5c44.3-19.6 79.5-54 113.9-87.2 5.4-5.2 10.8-10.3 16.2-15.5 5.1-5 10.1-10.2 13.7-16.5 0.3-0.5-0.5-1.1-0.8-0.5-3.3 5.8-7.8 10.6-12.6 15.3-4.7 4.6-9.6 9.2-14.4 13.9-8.7 8.3-17.3 16.7-26.1 24.9-17.3 16.2-35.2 31.8-54.9 45-11.3 7.6-23.1 14.3-35.5 19.8-0.5 0.2-0.1 1.1 0.5 0.8z"/>
							</g>
							<g id="&lt;Group&gt;">
								<path id="&lt;Path&gt;" class="s3" d="m679.9 236.4c-5.3 15.7-7.6 32.3-6.8 48.9 0.1 0.6 1.1 0.7 1 0-0.8-16.5 1.4-33 6.7-48.6 0.2-0.6-0.7-0.9-0.9-0.3z"/>
							</g>
							<g id="&lt;Group&gt;">
								<path id="&lt;Path&gt;" class="s3" d="m688.6 274.3c9.3 1 18.7 1.5 28 1.4 8-0.1 16.4 0.1 23.9-3 0.5-0.2 0.1-1.1-0.5-0.9-7.8 3.2-16.8 2.9-25.1 2.9q-13.2 0-26.2-1.4c-0.7-0.1-0.7 0.9-0.1 1z"/>
							</g>
							<g id="&lt;Group&gt;">
								<path id="&lt;Path&gt;" class="s3" d="m736.7 204.2c-6.4 10-8.9 21-10.6 32.6-0.1 0.6 0.9 0.7 1 0.1 1.7-11.5 4.1-22.2 10.4-32.1 0.4-0.6-0.4-1.1-0.8-0.6z"/>
							</g>
							<g id="&lt;Group&gt;">
								<path id="&lt;Path&gt;" class="s3" d="m737.8 227.5c4.4-0.6 9-1.1 13.3-2.1 3.7-0.8 6.9-3.6 10.6-3.8 0.7 0 0.7-1 0.1-1-3.7 0.2-6.5 2.8-10 3.7-4.6 1.2-9.5 1.6-14.2 2.3-0.6 0.1-0.4 1 0.2 0.9z"/>
							</g>
							<g id="&lt;Group&gt;">
								<path id="&lt;Path&gt;" class="s3" d="m638.3 272.2c-4.7 13.9-7.1 28.4-7.2 43.1 0 0.6 1 0.7 1 0.1 0.1-14.6 2.4-29.1 7.1-42.9 0.2-0.6-0.7-0.9-0.9-0.3z"/>
							</g>
							<g id="&lt;Group&gt;">
								<path id="&lt;Path&gt;" class="s3" d="m645.6 307.5c9.9 3.8 20 6.9 30.3 9.4 9 2.1 17.8 2.6 26.8 0.4 0.6-0.2 0.4-1.1-0.2-1-9.5 2.4-18.7 1.5-28.1-0.8-9.7-2.4-19.2-5.4-28.5-8.9-0.6-0.2-0.9 0.7-0.3 0.9z"/>
							</g>
						</g>
					</g>
					<g id="&lt;Group&gt;">
						<path id="&lt;Compound Path&gt;" fill-rule="evenodd" class="s0" d="m141.8 126.3c2.7 0.7 4.6 3.8 5.3 6.5 1.2 4.5 0 9.2-2.9 12.7q-0.1 0-0.1 0c2.3 27 4.4 55.8-7.9 80.8 6.1 21.5 11.7 43.3 13.7 65.7 7.1 8.7 14.3 17.3 21.5 25.9 0.5 0.6-0.5 1.2-0.9 0.6-7-8.3-14-16.6-20.9-25.1-0.3 0.1-0.7 0-0.7-0.4q0-0.3-0.1-0.6-1.2-1.4-2.3-2.9c-8.3-10.2-16.3-20.6-24-31.3-0.1 0.3-0.4 0.5-0.8 0.4-18.9-6.4-36.1-16.9-52.4-28.3q-12.4-8.7-24.4-17.9c-6.9-5.3-13.5-10.9-19.1-17.7q0 0-0.1 0c-4.7 0.2-9.5-1.5-12.5-5.3-1.8-2.3-2.7-5.5-1.4-8.1-0.6-0.5-1.5-0.6-2.1-1.1-0.1-0.1-0.1-0.2-0.1-0.3 0-0.1 0.2-0.1 0.4-0.1q1.1 0.4 2.3 0.7 0.1-0.2 0.3-0.3-1.1-1.8-1.9-3.7c1.3 0.3 1.9 2 3.1 2.5q0.2-0.1 0.5-0.3c-0.1-1-0.7-2-0.3-2.9q0.8 1.2 1.3 2.6c2.8-0.7 5.8 1.2 7.8 3.3 2.9 3.2 4.1 7.7 3.3 11.9 5.9 7.3 13.1 13.3 20.5 18.9 7.7 5.8 15.4 11.4 23.2 16.9 16.1 11.4 33.1 21.7 51.9 28.1-17.5-24.6-32.8-50.8-42.8-79.5-4.4-1.4-8.3-4.6-9.8-9.1-0.9-2.8-0.6-6.1 1.5-8.1-0.4-0.7-1.3-1.1-1.7-1.8 0-0.1-0.1-0.1 0-0.2 0-0.2 0.3-0.1 0.4 0q1 0.7 1.9 1.4 0.2-0.1 0.4-0.2-0.4-2.1-0.5-4.1c1.1 0.7 1.1 2.6 2 3.4q0.3 0 0.6-0.1c0.3-0.9 0-2.1 0.8-2.8q0.3 1.4 0.3 2.8c2.8 0.3 5.1 3.1 6.2 5.7 1.7 4.2 1.3 8.9-1 12.7 4.1 11.8 9.1 23.3 14.9 34.5 14.6 28.1 33.5 53.7 53.4 78.3-0.9-9.3-2.4-18.6-4.3-27.8-2.5-11.9-5.7-23.7-9.1-35.5-0.3 0-0.6-0.4-0.4-0.7q0.1-0.2 0.2-0.3c-6.3-21.6-13.1-43-17.8-65-4.4-1.5-8.2-4.7-9.7-9.1-1-2.8-0.7-6.2 1.4-8.2-0.3-0.6-1.2-1-1.6-1.7-0.1-0.1-0.1-0.2-0.1-0.3 0.1-0.1 0.3 0 0.5 0q0.9 0.8 1.9 1.5 0.2-0.2 0.4-0.3-0.4-2-0.5-4.1c1.1 0.8 1.1 2.6 2 3.5q0.3-0.1 0.6-0.1c0.3-1 0-2.2 0.7-2.8q0.4 1.3 0.4 2.7c2.8 0.4 5.1 3.2 6.2 5.8 1.7 4.2 1.3 8.9-1.1 12.7 2.1 9.8 4.5 19.4 7.2 28.9 3.3 11.7 6.8 23.3 10.2 35 11.6-24.6 9.5-52.8 7.2-79.3-4-2-7.3-5.6-8.1-10.2-0.6-2.8 0.2-6.1 2.5-7.8-0.3-0.7-1.1-1.2-1.4-2 0-0.1 0-0.2 0-0.2 0.1-0.2 0.3-0.1 0.4 0.1q0.9 0.8 1.8 1.6 0.2-0.1 0.4-0.2-0.1-2 0-4.1c1 0.9 0.8 2.7 1.6 3.7q0.3 0 0.6 0c0.4-0.9 0.3-2.2 1.1-2.7q0.1 1.4 0 2.8zm-24.6 33.6q0.2-0.2 0.4-0.2c1.4-2.6 2-5.4 1.5-8.4-0.5-3.3-3.2-9-7.5-7.8-4.5 1.3-3.9 7.1-2.1 10.2 1.7 3 4.6 5.1 7.7 6.2zm-37.8 17c1.5-2.6 2.1-5.6 1.7-8.6-0.6-3.4-3.3-9.1-7.6-7.8-4.5 1.3-3.9 7-2.1 10.2 1.8 3 4.7 5.1 8 6.2zm-54.3 16.7q0-0.3 0.2-0.4c0.5-2.8 0.1-5.7-1.3-8.3-1.6-3-6.2-7.4-9.8-4.8-3.8 2.8-1.2 7.9 1.5 10.3 2.6 2.2 6 3.2 9.4 3.2zm114.9-66.3c-4.7 0.7-4.8 6.5-3.4 9.9 1.2 3.1 3.7 5.6 6.7 7.1q0.2-0.1 0.3 0c1.8-2.4 2.9-5.2 2.8-8.2 0-3.4-2-9.4-6.4-8.8z"/>
						<path id="&lt;Compound Path&gt;" fill-rule="evenodd" class="s0" d="m53.9 252.4c1.2-1.1 3.3-0.7 4.8 0.1 2.5 1.3 4.4 3.9 5.1 6.7q0 0.1 0 0.1c13.7 10.2 28.1 21.3 36.3 37.7 12.2 6.1 24.4 12.6 35.7 21 6.4 0.3 12.8 0.4 19.1 0.6 0.4 0 0.4 0.7 0 0.7-6.1-0.1-12.3-0.3-18.5-0.6 0 0.2-0.2 0.4-0.4 0.2q-0.2-0.1-0.3-0.2-1.1 0-2.1-0.1c-7.5-0.3-15-0.8-22.5-1.7 0.1 0.2 0.2 0.4 0 0.6-9 6.4-19.3 10.2-29.9 13.2q-8 2.2-16.1 4.1c-4.7 1.1-9.5 1.9-14.5 1.7q0 0.1 0 0.1c-1.3 2.3-3.7 3.9-6.4 3.8-1.7-0.1-3.5-1.1-4.3-2.8-0.5 0.1-0.8 0.5-1.2 0.6q-0.1 0-0.2-0.1c-0.1 0 0-0.2 0.1-0.2q0.5-0.4 1-0.8 0-0.2-0.1-0.3-1.1-0.2-2.3-0.7c0.6-0.4 1.6 0 2.2-0.4q0-0.2 0-0.3c-0.5-0.4-1.2-0.5-1.5-1.1q0.9 0.1 1.6 0.4c0.6-1.6 2.4-2.3 4-2.3 2.5-0.1 5 1.3 6.8 3.4 5.3 0.3 10.4-0.7 15.4-1.9q7.7-1.8 15.3-4c10.5-2.9 20.7-6.7 29.6-13-17.2-2-34.5-5.6-51.3-12.9-2.1 1.5-4.8 2.1-7.5 0.9-1.6-0.8-3.1-2.3-3.4-4.1-0.4-0.1-0.9 0.1-1.4 0q-0.1 0-0.1-0.1c0-0.1 0.1-0.1 0.1-0.2q0.7-0.1 1.3-0.3 0-0.1 0-0.3-1.1-0.6-2.1-1.5c0.7-0.2 1.6 0.6 2.3 0.5q0.1-0.2 0.1-0.3c-0.4-0.5-1-0.9-1.1-1.5q0.8 0.4 1.5 1c1-1.3 3-1.2 4.6-0.6 2.5 0.9 4.7 3.1 5.8 5.8 6.9 3 14 5.4 21.1 7.3 18 4.9 36.2 6.6 54.2 7.3-4.8-3.4-9.7-6.6-14.7-9.5-6.5-3.9-13.1-7.3-19.8-10.6-0.1 0.1-0.4 0.1-0.5-0.1q0-0.1-0.1-0.2c-12.3-6.1-24.7-11.8-36.7-18.8-2 1.5-4.7 2-7.4 0.8-1.6-0.7-3.1-2.2-3.4-4.1-0.4-0.1-0.9 0.2-1.4 0.1q0 0-0.1-0.1c0-0.1 0.1-0.2 0.2-0.2q0.6-0.2 1.2-0.3 0-0.2 0-0.3-1.1-0.7-2.1-1.5c0.7-0.2 1.6 0.5 2.3 0.5q0.1-0.2 0.1-0.4c-0.3-0.5-1-0.9-1.1-1.5q0.8 0.4 1.5 1c1-1.2 3-1.1 4.6-0.5 2.6 0.9 4.7 3.1 5.8 5.8 5.3 3.1 10.7 6 16.1 8.7 6.6 3.4 13.3 6.5 19.9 9.8-8.2-15.9-22.3-26.7-35.7-36.7-2.3 1.1-5 1.1-7.4-0.4-1.6-0.9-2.9-2.7-3-4.5-0.4-0.2-0.9 0-1.4-0.2q-0.1 0-0.1-0.1c0-0.1 0.1-0.1 0.2-0.1q0.6-0.1 1.3-0.2 0-0.1 0-0.2-1-0.9-1.9-1.8c0.7-0.1 1.5 0.8 2.2 0.8q0.1-0.2 0.2-0.3c-0.3-0.6-0.9-1-0.9-1.6q0.7 0.5 1.3 1.2zm8.5 25.8q-0.1-0.2 0-0.3c-0.8-1.7-2-3.2-3.5-4.2-1.8-1.2-5.4-2.2-6.1 0.3-0.8 2.7 2.2 4.8 4.2 5.3 2 0.4 3.9-0.1 5.4-1.1zm-3.7 25.2c-0.7-1.8-1.9-3.3-3.5-4.4-1.8-1.1-5.4-2.2-6.1 0.4-0.8 2.7 2.1 4.8 4.2 5.2 2 0.5 3.9 0 5.4-1.2zm-8.8 33q-0.1-0.1-0.1-0.2c-1.3-1.5-2.8-2.5-4.4-2.9-2-0.5-5.5-0.2-5.4 2.6 0.2 3.1 3.5 4 5.4 3.7 1.9-0.3 3.4-1.5 4.5-3.2zm4-82.8c-1.2 2.6 1.6 5 3.6 5.8 1.9 0.7 3.8 0.5 5.5-0.2q0-0.1 0.1-0.2c-0.6-1.8-1.6-3.5-3-4.8-1.7-1.4-5.2-2.9-6.2-0.6z"/>
						<g id="&lt;Group&gt;">
							<path id="&lt;Path&gt;" class="s4" d="m169.2 321.5c0-12.8-0.1-26-4.7-38-2.4-6.5-6.4-12.7-12.4-16.3-1.7-1-4.1-1.8-5.8-0.6-2.1 1.5-1.6 4.7-1.4 7.3 0.2 2.6-1.5 6.1-4 5.3-1.1-0.4-1.8-1.7-2.3-2.8-5.7-13.3-10-27.9-20.2-38.1-2.4-2.4-5.2-4.5-8.5-4.8-3.4-0.2-7 2.2-7 5.5-0.1 1.5 0.6 2.8 1.2 4.2 1.3 3 2.2 6.1 2.8 9.3 0.1 1.1 0.2 2.4-0.7 3.1-1.3 1-3.2-0.6-4.1-2.1-9.4-14.4-19.9-29.7-36-35.6-4.8-1.8-10.5-2.5-14.7 0.4-4.1 2.8-5.5 8.1-6.2 13.1-0.3 2.4-0.6 4.9-0.3 7.4 0.8 7.1 5.8 13.1 11.5 17.5 5.7 4.3 12.2 7.4 18.1 11.5 1.3 0.9 2.8 2.5 2.1 4-0.4 0.6-1 1-1.7 1.2-6 2.4-13.1-3.3-19.1-0.8-0.7 0.3-1.4 0.7-1.8 1.4-0.6 0.9-0.4 2.1-0.2 3.1 1.9 8.5 9.2 15 17.3 18.2 8.1 3.3 17 3.9 25.7 4.7 2 0.2 4.8 1.5 4 3.4-0.2 0.6-0.8 1-1.5 1.3-4.9 2.5-11.9 1.4-15.1 5.9-2.1 2.9-1.3 7.2 0.9 10 2.2 2.9 5.5 4.6 8.8 6 23.9 10.4 52.5 9.1 75.3-3.4"/>
							<path id="&lt;Path&gt;" class="s2" d="m156.5 316.3c-0.1-7.3-0.2-14.9-2.8-21.8-1.4-3.7-3.7-7.3-7-9.4-1-0.6-2.3-1.1-3.3-0.4-1.2 0.8-0.9 2.7-0.7 4.2 0.1 1.5-0.8 3.5-2.2 3-0.7-0.2-1.1-0.9-1.4-1.6-3.2-7.7-5.7-16-11.5-22-1.3-1.3-2.9-2.6-4.8-2.7-1.9-0.2-3.9 1.2-3.9 3.1 0 0.8 0.4 1.6 0.7 2.4q1.1 2.6 1.6 5.4c0.1 0.6 0.2 1.3-0.3 1.7-0.8 0.6-1.8-0.4-2.4-1.2-5.3-8.3-11.3-17.1-20.3-20.6-2.7-1-5.9-1.5-8.2 0.1-2.3 1.6-3.1 4.7-3.5 7.5-0.2 1.4-0.3 2.9-0.1 4.3 0.5 4.1 3.3 7.5 6.5 10 3.2 2.6 6.9 4.4 10.2 6.8 0.8 0.5 1.6 1.4 1.2 2.2-0.2 0.4-0.5 0.6-0.9 0.8-3.4 1.3-7.4-2-10.7-0.6-0.4 0.1-0.8 0.4-1 0.8-0.3 0.5-0.3 1.2-0.1 1.8 1.1 4.9 5.2 8.6 9.8 10.5 4.5 1.9 9.5 2.3 14.4 2.8 1.1 0.1 2.7 0.9 2.3 2-0.2 0.3-0.5 0.6-0.9 0.7-2.7 1.4-6.6 0.7-8.4 3.3-1.2 1.7-0.7 4.1 0.5 5.8 1.3 1.6 3.1 2.6 5 3.5 13.4 6 29.5 5.4 42.2-1.6"/>
							<g id="&lt;Group&gt;">
								<path id="&lt;Path&gt;" class="s3" d="m169 323.2c-34-15.1-61-41.5-87.4-66.9-4.1-4-8.3-7.9-12.4-11.9-3.9-3.9-7.7-7.8-10.5-12.6-0.2-0.5 0.4-0.9 0.6-0.5 2.6 4.5 6 8.2 9.7 11.8 3.6 3.6 7.3 7.1 11 10.6 6.6 6.4 13.3 12.8 20 19.2 13.3 12.4 27 24.3 42.1 34.5 8.7 5.8 17.7 10.9 27.2 15.1 0.4 0.2 0.1 0.9-0.3 0.7z"/>
							</g>
							<g id="&lt;Group&gt;">
								<path id="&lt;Path&gt;" class="s3" d="m117 254.8c4.1 12.1 5.9 24.8 5.2 37.5 0 0.5-0.7 0.5-0.7 0 0.6-12.6-1.1-25.2-5.2-37.2-0.1-0.5 0.6-0.7 0.7-0.3z"/>
							</g>
							<g id="&lt;Group&gt;">
								<path id="&lt;Path&gt;" class="s3" d="m110.4 283.8q-10.7 1.2-21.5 1.1c-6.1 0-12.6 0.1-18.3-2.3-0.4-0.1-0.1-0.8 0.3-0.6 6 2.4 13 2.2 19.3 2.2q10.1 0 20.1-1.1c0.5-0.1 0.6 0.7 0.1 0.7z"/>
							</g>
							<g id="&lt;Group&gt;">
								<path id="&lt;Path&gt;" class="s3" d="m73.5 230.1c4.9 7.7 6.8 16.1 8.1 25.1 0.1 0.4-0.7 0.5-0.7 0-1.3-8.8-3.2-17-8.1-24.6-0.2-0.4 0.4-0.9 0.7-0.5z"/>
							</g>
							<g id="&lt;Group&gt;">
								<path id="&lt;Path&gt;" class="s3" d="m72.7 248c-3.4-0.5-6.9-0.9-10.3-1.6-2.8-0.6-5.2-2.8-8.1-2.9-0.5 0-0.5-0.8-0.1-0.8 2.9 0.2 5 2.1 7.7 2.8 3.5 1 7.3 1.2 10.9 1.8 0.5 0.1 0.3 0.8-0.1 0.7z"/>
							</g>
							<g id="&lt;Group&gt;">
								<path id="&lt;Path&gt;" class="s3" d="m148.9 282.3c3.6 10.6 5.5 21.8 5.5 33 0 0.5-0.7 0.6-0.7 0.1-0.1-11.2-1.9-22.3-5.5-32.9-0.1-0.4 0.6-0.7 0.7-0.2z"/>
							</g>
							<g id="&lt;Group&gt;">
								<path id="&lt;Path&gt;" class="s3" d="m143.4 309.4c-7.6 2.8-15.4 5.2-23.3 7.1-6.9 1.6-13.7 2-20.6 0.3-0.4-0.1-0.3-0.8 0.2-0.7 7.3 1.8 14.3 1.2 21.6-0.6q11.1-2.8 21.8-6.9c0.5-0.1 0.7 0.6 0.3 0.8z"/>
							</g>
						</g>
					</g>
					<g id="&lt;Group&gt;">
						<path id="&lt;Path&gt;" class="s5" d="m514.9 29.8c0.3-0.4 0.6-0.8 0.9-1.3h-354.8c-1.8 0-3.3 1.5-3.3 3.3v166.3c0 0 235.9 0.7 357.2-168.3z"/>
						<path id="&lt;Path&gt;" class="s6" d="m161 330h461.6c1.8 0 3.3-1.5 3.3-3.3v-294.9c0-1.8-1.5-3.3-3.3-3.3h-106.8c-0.3 0.5-0.6 0.9-0.9 1.3-121.3 169-357.2 168.3-357.2 168.3v128.6c0 1.8 1.5 3.3 3.3 3.3z"/>
						<path id="&lt;Compound Path&gt;" fill-rule="evenodd" class="s7" d="m628.1 31.8v294.9c0 3.1-2.4 5.5-5.5 5.5h-461.6c-3.1 0-5.5-2.4-5.5-5.5v-294.9c0-3.1 2.4-5.5 5.5-5.5h461.6c3.1 0 5.5 2.4 5.5 5.5zm-5.5-1h-461.6c-0.6 0-1 0.4-1 1v294.9c0 0.6 0.4 1 1 1h461.6c0.6 0 1-0.4 1-1v-294.9c0-0.6-0.4-1-1-1z"/>
						<path id="&lt;Path&gt;" class="s3" d="m644 345.7h-508.8c-1.1 0-2.3-0.3-3-0.9l-14.4-11c-2.2-1.6-0.4-4.2 3-4.2h534.4c3.1 0 5 2.3 3.3 4l-11.1 11c-0.8 0.7-2 1.1-3.4 1.1z"/>
					</g>
					<path id="&lt;Path&gt;" class="s8" d="m730.9 354.7c0 12.7-150.5 23-336.2 23-185.7 0-336.2-10.3-336.2-23 0-12.7 150.5-23 336.2-23 185.7 0 336.2 10.3 336.2 23z"/>
					<path id="&lt;Path&gt;" class="s9" d="m310 319.4h-111.6c-1.8 0-3.4-1.5-3.4-3.4v-164.9c0-1.9 1.6-3.4 3.4-3.4h111.6c1.8 0 3.4 1.5 3.4 3.4v164.9c0 1.9-1.6 3.4-3.4 3.4z"/>
					<path id="&lt;Path&gt;" class="s10" d="m446.3 319.4h-111.5c-1.9 0-3.4-1.5-3.4-3.4v-164.9c0-1.9 1.5-3.4 3.4-3.4h111.5c1.9 0 3.4 1.5 3.4 3.4v164.9c0 1.9-1.5 3.4-3.4 3.4z"/>
					<path id="&lt;Path&gt;" class="s11" d="m599.6 224.9h-111.5c-1.9 0-3.4-1.5-3.4-3.4v-79c0-1.9 1.5-3.4 3.4-3.4h111.5c1.9 0 3.4 1.5 3.4 3.4v79c0 1.9-1.5 3.4-3.4 3.4z"/>
					<path id="&lt;Compound Path&gt;" fill-rule="evenodd" class="s12" d="m417.7 372.3c0.2 1.1-1.4 1.1-1.6 0q-1.3-9.8-2.5-19.6-18.2 0-36.4 0-1.3 9.8-2.5 19.6c-0.2 1.1-1.8 1.1-1.6 0q1.2-9.8 2.5-19.6-16.4 0-32.8 0 1.3 9.8 2.5 19.6c0.2 1.1-1.5 1.1-1.6 0q-1.2-9.8-2.5-19.6-18.2 0-36.4 0-1.3 9.8-2.6 19.6c-0.1 1.1-1.7 1.1-1.6 0q1.4-10.5 2.8-21 9.5-72.5 19-144.9 0-0.1 0-0.2c-0.1-0.4 0.4-0.8 0.8-0.8q0 0 0 0 36 0 72 0 0 0 0 0c0.4 0 0.8 0.4 0.8 0.8q0 0.1 0 0.2 1.4 10.5 2.7 20.9 0.2 1 0.3 2.1c0.1 0.2 0.2 0.4 0.1 0.7q4.6 35.5 9.3 71.1c0.4 0.2 0.5 0.9 0.2 1.2q3.2 24.5 6.4 49c0.2 0.2 0.2 0.6 0.1 0.9q1.3 10 2.6 20zm-109.3-47.4q14.6 0 29.2 0-1.4-11.1-2.8-22.2-11.8 0-23.5 0-1.4 11.1-2.9 22.2zm3.1-23.8q11.5 0 23.1 0-1.5-11.3-2.9-22.5-8.6 0-17.2 0-1.5 11.2-3 22.5zm3.2-24.1q8.4 0 16.8 0-1.5-11.4-3-22.8-5.4 0-10.8 0-1.5 11.4-3 22.8zm3.2-24.5q5.2 0.1 10.4 0.1-1.4-11-2.8-22-2.4 0-4.7 0-1.5 11-2.9 21.9zm75-21.9q-1.5 11.2-2.9 22.4 5.2 0 10.5 0-1.5-11.2-3-22.4-2.3 0-4.6 0zm-56.7 70.5q23 0 46 0 1.3-9.9 2.5-19.8 0.2-1.3 0.4-2.7-26 0-52 0 1.3 8.6 2.4 17.1 0.3 2.7 0.7 5.4zm49.1-24.1q1.4-11.2 2.9-22.4-29.3-0.2-58.6-0.4 1.7 11.4 3.3 22.8 26.2 0 52.4 0zm-1.5 24.1q11.5 0 23 0-1.3-9.5-2.5-18.9-0.2-1.8-0.5-3.6-8.5 0-17.1 0-1.4 11.2-2.9 22.5zm19.8-24.1q-1.4-11.2-2.9-22.4-5.5 0-10.9 0-1.5 11.2-2.9 22.4 8.4 0 16.7 0zm-12.3-46.4q-32.4 0-64.8 0 1.3 11 2.9 22 29.5 0.2 59 0.3 1.4-11.1 2.9-22.3zm-52.1 94.4q20 0 39.9 0 1.5-11.2 2.9-22.3-22.8 0-45.6 0 1.4 11.1 2.8 22.3zm41.5 0q14.6 0 29.2 0.1-1.4-11.2-2.9-22.4-11.7 0-23.4 0-1.4 11.1-2.9 22.3zm14.5-112.4q-0.9 7.2-1.9 14.4-0.1 1-0.2 2 2.1 0 4.2 0-1-8.2-2.1-16.4zm-66.5-5.6q-0.4 0-0.8 0c-0.8 0-2.5-0.2-3.7-0.2q0 0.1-0.1 0.1c0 0.1 0 0.3 0.1 0.6 0.5 7.2 1.3 14.3 2.1 21.5q32.6 0 65.2 0 0-0.1 0-0.3 1.1-8.5 2.2-17c0.2-1.4 0.4-2.8 0.5-4.2 0-0.3 0.1-0.5 0.1-0.7-0.3-0.1-0.5-0.2-0.7-0.2-3.7-0.7-9.9 0.4-12.8 0.4q-0.7 0-1.3 0-13.3 0-26.6 0-0.8 0-1.6 0-11.3 0-22.6 0zm-5.5 5.5q-1.1 8.3-2.2 16.5 2.2 0 4.3 0-1-8.2-2.1-16.5zm-18.2 138.6q18 0 36 0-1.6-12.3-3.2-24.5-14.8-0.1-29.6-0.1-1.6 12.3-3.2 24.6zm70.8 0q1.6-12.2 3.1-24.5-19.7 0-39.5 0 1.6 12.2 3.2 24.5 16.6 0 33.2 0zm37.5 0q-1.6-12.2-3.2-24.4-14.8 0-29.6-0.1-1.5 12.3-3.1 24.5 18 0 35.9 0z"/>
					<path id="&lt;Path&gt;" class="s13" d="m180 42.8c0 1.5-1.2 2.7-2.7 2.7-1.5 0-2.7-1.2-2.7-2.7 0-1.5 1.2-2.8 2.7-2.8 1.5 0 2.7 1.3 2.7 2.8z"/>
					<path id="&lt;Path&gt;" class="s13" d="m190.8 42.8c0 1.5-1.2 2.7-2.7 2.7-1.5 0-2.7-1.2-2.7-2.7 0-1.5 1.2-2.8 2.7-2.8 1.5 0 2.7 1.3 2.7 2.8z"/>
					<path id="&lt;Path&gt;" class="s13" d="m201.6 42.8c0 1.5-1.2 2.7-2.7 2.7-1.5 0-2.8-1.2-2.8-2.7 0-1.5 1.3-2.8 2.8-2.8 1.5 0 2.7 1.3 2.7 2.8z"/>
					<g id="&lt;Group&gt;">
						<path id="&lt;Path&gt;" class="s3" d="m346.3 176.9q33.9 0 67.7 0c0.5 0 0.5-0.8 0-0.8q-33.8 0-67.7 0c-0.5 0-0.5 0.8 0 0.8z"/>
					</g>
					<g id="&lt;Group&gt;">
						<path id="&lt;Path&gt;" class="s3" d="m218.5 192.8q33.8 0 67.6 0c0.5 0 0.5-0.8 0-0.8q-33.8 0-67.6 0c-0.6 0-0.6 0.8 0 0.8z"/>
					</g>
					<g id="&lt;Group&gt;">
						<path id="&lt;Path&gt;" class="s3" d="m218.5 202.7q33.8 0 67.6 0c0.5 0 0.5-0.8 0-0.8q-33.8 0-67.6 0c-0.6 0-0.6 0.8 0 0.8z"/>
					</g>
					<g id="&lt;Group&gt;">
						<path id="&lt;Path&gt;" class="s3" d="m218.5 212.7q33.8 0 67.6 0c0.5 0 0.5-0.8 0-0.8q-33.8 0-67.6 0c-0.6 0-0.6 0.8 0 0.8z"/>
					</g>
					<g id="&lt;Group&gt;">
						<path id="&lt;Path&gt;" class="s3" d="m346.3 193.2q33.9 0 67.7 0c0.5 0 0.5-0.8 0-0.8q-33.8 0-67.7 0c-0.5 0-0.5 0.8 0 0.8z"/>
					</g>
					<g id="&lt;Group&gt;">
						<path id="&lt;Path&gt;" class="s3" d="m346.3 185.6q42.3 0 84.5 0c0.5 0 0.5-0.8 0-0.8q-42.2 0-84.5 0c-0.5 0-0.5 0.8 0 0.8z"/>
					</g>
					<g id="&lt;Group&gt;">
						<path id="&lt;Path&gt;" class="s3" d="m346.3 201.5q42.3 0 84.5 0c0.5 0 0.5-0.8 0-0.8q-42.2 0-84.5 0c-0.5 0-0.5 0.8 0 0.8z"/>
					</g>
					<g id="&lt;Group&gt;">
						<path id="&lt;Path&gt;" class="s3" d="m346.3 217.5q42.3 0 84.5 0c0.5 0 0.5-0.8 0-0.8q-42.2 0-84.5 0c-0.5 0-0.5 0.8 0 0.8z"/>
					</g>
					<g id="&lt;Group&gt;">
						<path id="&lt;Path&gt;" class="s14" d="m441.9 120.5h-100.2c-5 0-9-4.1-9-9.1v-4.7c0-5 4-9.1 9-9.1h100.2c5 0 9 4.1 9 9.1v4.7c0 5-4 9.1-9 9.1z"/>
						<g id="&lt;Group&gt;">
							<g id="&lt;Group&gt;">
								<g id="&lt;Group&gt;">
									<path id="&lt;Path&gt;" class="s15" d="m497.6 337c-1 5.1-2.1 10.5-6 13.9-1.4 1.2-3.2 2.2-4.5 3.6q10.9-0.6 21.7-2.3c0.5-0.1 1-0.3 1.2-0.7 0-0.3-0.1-0.7-0.2-1-2.9-6.1-2.1-13.2-1.2-19.9"/>
								</g>
								<g id="&lt;Group&gt;">
									<path id="&lt;Path&gt;" class="s16" d="m508.4 345.7c-3.8 4-9.6 5.9-15 5.1-0.5-0.1-1-0.2-1.5-0.1-0.6 0.1-1.1 0.3-1.6 0.6q-8 4.1-16.1 8.2c-0.8 0.4-1.7 0.9-2.2 1.8-0.9 1.9 1.2 4 3.2 4.5 2.5 0.6 5 0.1 7.5-0.3q11.3-2.2 22.6-4.4c1.2-0.2 2.5-0.4 3.6-1.1 2.2-1.4 3.1-4.3 2.7-6.9-0.3-2.6-1.9-5.1-3.2-7.4z"/>
								</g>
							</g>
							<g id="&lt;Group&gt;">
								<g id="&lt;Group&gt;">
									<path id="&lt;Path&gt;" class="s15" d="m464.6 336.8c-1 5.5-2.3 11.5-6.5 15.2-1.6 1.4-3.6 2.4-5 4q12-0.7 23.9-2.6c0.5-0.1 1.1-0.2 1.3-0.7 0.1-0.4-0.1-0.7-0.2-1.1-3.2-6.7-2.3-14.6-1.3-22"/>
								</g>
								<g id="&lt;Group&gt;">
									<path id="&lt;Path&gt;" class="s16" d="m476.6 346.3c-4.2 4.4-10.6 6.5-16.6 5.6-0.5-0.1-1.1-0.2-1.7-0.1-0.6 0.1-1.2 0.4-1.7 0.6q-8.8 4.6-17.7 9.1c-0.9 0.5-2 1-2.4 2-1 2.1 1.3 4.4 3.5 4.9 2.7 0.7 5.5 0.2 8.2-0.3q12.5-2.4 25-4.8c1.3-0.2 2.7-0.5 3.9-1.2 2.4-1.6 3.4-4.8 3-7.6-0.3-2.9-2.1-5.6-3.5-8.2z"/>
								</g>
							</g>
							<g id="&lt;Group&gt;">
								<path id="&lt;Path&gt;" class="s16" d="m521.5 205.8q-3 22.9-6.1 45.8c-1 8.1-2.1 16.3-2.4 24.5-0.7 20 3.4 40.5-1.6 59.9-0.2 0.6-0.4 1.3-0.9 1.7-0.6 0.7-1.7 0.8-2.6 0.8q-6.3 0.3-12.6 0.6c-0.6 0-1.1 0-1.5-0.3-0.7-0.4-0.8-1.2-0.8-2-3.2-36-4-72.1-2.6-108.2"/>
							</g>
							<g id="&lt;Group&gt;">
								<path id="&lt;Path&gt;" class="s13" d="m482 204.2c-0.9 6.4-2.8 12.6-4.5 18.8-10.1 36.8-15.3 75-15.4 113.2 0 0.7 0 1.4 0.4 1.9 0.5 0.7 1.5 0.8 2.4 0.9q5.6 0.4 11.2 0.3c0.8 0 1.6 0 2.3-0.5 0.8-0.5 1.1-1.5 1.3-2.5 3.4-12.6 6.4-25.3 8.2-38.2 0.6-4.6 1.1-9.3 2.1-13.9 3.2-14.3 11.5-26.9 18.5-39.9 6.9-12.9 12.8-27.5 10.4-42"/>
							</g>
							<g id="&lt;Group&gt;">
								<g id="&lt;Group&gt;">
									<path id="&lt;Path&gt;" class="s15" d="m494.6 99.3c1.8 5.9-0.2 12.2-2.3 18 6.8-1 13.6-1.5 20.4-1.4-3.4-3.6-3.5-9.2-2-13.9 0.8-2.6 2.1-5.2 4.2-6.9"/>
								</g>
								<g id="&lt;Group&gt;">
									<path id="&lt;Path&gt;" class="s15" d="m429 113.6c-2.3-1.8-3-5-3.1-7.9-0.2-2.9 0-6-1.2-8.6-1-2.1-2.8-3.8-4.6-5.2-1.1-0.8-2.6-1.6-3.6-0.7-0.4 0.4-0.6 0.9-0.9 1.3-0.9 1-2.5 0.8-3.8 1.1-2.4 0.6-4 2.8-5.4 4.8-0.5 0.7-1 1.5-1 2.3-0.1 1.1 0.5 2.1 0.9 3.1 0.6 1.4 0.7 2.9 1.4 4.3 1.3 2.7 4.5 3.9 7.4 4.8 2.9 0.9 6.1 1.9 7.8 4.4"/>
								</g>
								<g id="&lt;Group&gt;">
									<g id="&lt;Group&gt;">
										<path id="&lt;Path&gt;" class="s17" d="m510.4 112.1c-5.5 1.1-10 2.9-15.5 4.1-0.7 0.1-1.3 0.2-1.8 0.6-0.6 0.4-0.9 1.1-1.3 1.7-5.6 10.9-9.2 22.8-10.5 35-2 18.4 1.1 37-1 55.4 4.4-1 9-1.4 13.5-1 2.3 0.2 4.7 0.6 7.1 0.6 4.3 0 8.5-1.4 12.8-1.2 4.3 0.2 4.7 1.7 8.4-0.3 0.3-3.6-0.4-9.2-0.9-14.4-1.1-12.8-1.2-14 0.3-26.7 0.7-5.5 1.1-23.2 0-28.6-2.3-11.7-4.2-18.5-11.1-25.2z"/>
									</g>
									<g id="&lt;Group&gt;">
										<path id="&lt;Path&gt;" class="s18" d="m508.4 129.2c-0.4-2.2-3.3-6.1-9.1-5.9-10.6 0.4-20 2.4-30.3 5.1-2.3 0.6-4.5 1.3-6.9 1.2-3.9-0.1-7.4-2.3-10.8-4.3q-11.1-7-22.3-13.9c-0.9-0.6-2.2-1.2-3.1-0.5-0.6 0.3-0.8 1-1.1 1.6-0.8 1.3-2.4 2.1-2.9 3.6-0.7 1.8 0.5 3.7 1.6 5.3 7.4 10.2 16.9 19.6 28.9 23.2 10.3 3.1 21.4 1.6 32-0.1q5-0.8 9.9-1.6c3.8-0.7 7.7-1.4 10.8-3.7 3-2.3 4.9-6.6 3.3-10z"/>
									</g>
								</g>
								<g id="&lt;Group&gt;">
									<g id="&lt;Group&gt;">
										<path id="&lt;Path&gt;" class="s15" d="m516.1 65.5c-3.6-1-7.7-0.3-11 1.6-3.3 1.9-5.9 4.9-7.7 8.2-0.6 0.9-1.1 2-1.9 2.8-1.5 1.5-4.7 1.3-7 1.4-0.4 0.1-0.6 1.4-0.5 1.8 1.6 4-2.5 9.5-3.2 14.8-0.1 0.5-0.2 1.1 0.1 1.6 0.3 0.6 3.2 1.9 3.8 2.1 6.4 2.2 10.6 2.3 17.4 2"/>
									</g>
									<g id="&lt;Group&gt;">
										<path id="&lt;Path&gt;" class="s0" d="m500.9 66.2c-4.6 5.9-3.2 14.6 3.2 18.5 1 0.6 2.2 1.2 2.7 2.1 0.6 1.2 0.2 2.6-0.5 3.7-0.8 1.1-1.8 2-2.6 3.1-1.7 2.4-2.2 5.5-1.2 8.1 0.8 2 2.7 3.8 5 3.6 0.9 0 1.8-0.3 2.6-0.6 5.3-2.1 10.8-4.2 15.1-7.7 4.3-3.5 7.3-8.7 6.4-13.7-0.5-2.3-1.7-4.4-2.2-6.7-0.6-2.6-0.3-5.4-1.6-7.8-1.5-2.9-4.9-4.5-8.2-5.8-2.4-1-5-1.8-7.8-1.9-4.2-0.1-8.5 1.9-10.9 5.1z"/>
									</g>
									<g id="&lt;Group&gt;">
										<path id="&lt;Path&gt;" class="s17" d="m529 93.2c4.5-5.8 6-14.3 3.5-21.2-2.5-6.9-8.9-12.2-16.2-13.1-7.3-0.8-15 3.1-18.2 9.7-0.7 1.4-1.6 3.2-3.2 3.1-2 0-4.7-2.1-6.2-0.9 3.7 2.9 7.6 5 11.4 7.3 2.2 1.4 4.6 2.6 7 3.8q10.9 5.7 21.9 11.3z"/>
									</g>
								</g>
							</g>
						</g>
					</g>
					<g id="&lt;Group&gt;">
						<path id="&lt;Path&gt;" class="s17" d="m582.8 337.7h-22.3l-3.9 10.4h30z"/>
						<path id="&lt;Path&gt;" class="s17" d="m573.8 312.8c-0.7-2-3.4-2-4.2 0l-5.7 15.4h15.5z"/>
						<path id="&lt;Path&gt;" class="s17" d="m549.1 368.5c-0.5 1.4 0.5 3 2.1 3h40.7c1.5 0 2.6-1.5 2.1-3l-4-11h-36.9z"/>
						<path id="&lt;Path&gt;" class="s5" d="m556.6 348.1l-3.5 9.4h36.9l-3.4-9.4z"/>
						<path id="&lt;Path&gt;" class="s5" d="m579.4 328.2h-15.5l-3.4 9.5h22.3z"/>
					</g>
					<g id="&lt;Group&gt;">
						<path id="&lt;Path&gt;" class="s17" d="m128.1 338.8h-22.3l-3.9 10.4h30z"/>
						<path id="&lt;Path&gt;" class="s17" d="m119.1 313.9c-0.7-1.9-3.4-2-4.1 0l-5.8 15.5h15.5z"/>
						<path id="&lt;Path&gt;" class="s17" d="m94.4 369.6c-0.5 1.5 0.5 3 2.1 3h40.7c1.5 0 2.6-1.5 2.1-2.9l-4-11h-36.9z"/>
						<path id="&lt;Path&gt;" class="s5" d="m101.9 349.2l-3.5 9.5h36.9l-3.4-9.5z"/>
						<path id="&lt;Path&gt;" class="s5" d="m124.7 329.4h-15.5l-3.4 9.4h22.3z"/>
					</g>
					<g id="&lt;Group&gt;">
						<g id="&lt;Group&gt;">
							<g id="&lt;Group&gt;">
								<path id="&lt;Path&gt;" class="s3" d="m262.1 112.5q9.2 36.3 18.3 72.5c1 3.9 7 1.8 6-2.1q-9.2-36.3-18.3-72.5c-1-3.9-7-1.8-6 2.1z"/>
							</g>
							<path id="&lt;Path&gt;" class="s13" d="m296.4 108.4l-62.9 14.4c-2.9 0.7-5.7-1.1-6.4-4l-0.6-2.7c-0.7-2.9 1.1-5.7 4-6.4l62.9-14.4c2.9-0.7 5.7 1.1 6.4 4l0.6 2.7c0.7 2.9-1.1 5.7-4 6.4z"/>
						</g>
						<g id="&lt;Group&gt;">
							<g id="&lt;Group&gt;">
								<g id="&lt;Group&gt;">
									<path id="&lt;Path&gt;" class="s15" d="m185.2 328.2q0 10.9-0.1 21.7c0 0.2 0 0.4 0.1 0.5 0.2 0.3 0.6 0.3 0.9 0.4 2.2 0.2 4.1 1.4 6.1 2.4 7.2 3.5 16.6 3.2 24.4 1.5-1.6-1.5-3.8-1.3-5.9-2-2.1-0.8-5-2.1-7-3.2-1.6-0.8-2.9-2-4-3.3-4.4-5.3-5.8-12.9-3.5-19.3"/>
								</g>
								<g id="&lt;Group&gt;">
									<path id="&lt;Path&gt;" class="s16" d="m185 346.1c5.5 4.9 12.6 8 20 8.6 2 0.2 4.1 0.2 5.9-0.6 0.7-0.3 1.3-0.8 2-0.9 0.8-0.3 1.7-0.2 2.5-0.1q3.8 0.5 7.6 1c1.1 0.1 2.5 0.4 2.9 1.4 0.7 1.6-1.3 2.9-2.9 3.6-5.9 2.3-12.3 4.8-18.6 3.4-4-0.8-7.6-3.1-11.6-2.9-2.4 0-4.5-0.2-6.7-0.9-1.1-0.3-2.1-2.2-2.3-3.2-0.7-3.1-0.6-6.8 1.2-9.4z"/>
								</g>
							</g>
							<g id="&lt;Group&gt;">
								<g id="&lt;Group&gt;">
									<path id="&lt;Path&gt;" class="s15" d="m201.6 330.6q-4.3 9.9-8.6 19.9c-0.1 0.1-0.2 0.3-0.1 0.5 0 0.3 0.3 0.5 0.6 0.7 1.9 1.1 3.2 2.9 4.7 4.6 5.2 6.1 13.9 9.5 21.8 11.1-0.8-2.1-3-2.8-4.6-4.3-1.7-1.5-3.8-3.9-5.2-5.7-1.1-1.3-1.9-3-2.4-4.6-2-6.6-0.2-14.1 4.4-19.1"/>
								</g>
								<g id="&lt;Group&gt;">
									<path id="&lt;Path&gt;" class="s16" d="m194.3 346.9c3.2 6.7 8.5 12.3 15 15.9 1.8 0.9 3.7 1.7 5.7 1.7 0.8-0.1 1.5-0.2 2.2-0.1 0.9 0.1 1.6 0.6 2.4 1q3.3 1.9 6.6 3.8c0.9 0.6 2 1.4 2 2.5 0 1.7-2.3 2.2-4 2.1-6.4-0.1-13.3-0.4-18.5-4.1-3.3-2.4-5.8-5.9-9.5-7.3-2.2-0.9-4.1-1.9-5.8-3.4-0.9-0.8-1-2.9-0.8-3.9 0.5-3.2 2.1-6.5 4.7-8.2z"/>
								</g>
							</g>
							<g id="&lt;Group&gt;">
								<path id="&lt;Path&gt;" class="s16" d="m174.1 198.1c-2.1 9.9-1 20.3 0.2 30.4q1.7 14.8 3.4 29.6c0.8 6.6 1.5 13.2 1.4 19.8 0 6-0.8 12-0.9 17.9-0.2 13.6 2.8 27.1 5.9 40.3 0.2 0.9 0.4 1.8 1.1 2.3 0.6 0.4 1.3 0.5 2 0.5q4.8 0.3 9.5-0.3c-0.3-33.1 1.1-66.1 4.4-99 0.7-7.7 1.6-15.5 0.8-23.2"/>
							</g>
							<g id="&lt;Group&gt;">
								<path id="&lt;Path&gt;" class="s13" d="m178.2 179.3c-5.7 11.4-9.5 25-5 37 3.3 8.9 10.6 15.6 16.9 22.7 3.4 3.9 6.5 8 9.7 12.1q8.1 10.6 16.3 21.2c1.7 2.2 3.4 4.5 3.8 7.3 0.4 3.2-1.1 6.3-2.5 9.2-7.4 15.3-13.4 31.4-18.7 47.6-0.3 0.7-0.9 1.8 0.4 2.3 0.6 0.3 1.8 1 2.4 1.4 1.6 1 2.9 1.7 4.5 2.7 0.3 0.1 0.8 0.7 1.2 0.6 0.4-0.1 0.4-0.4 0.6-0.7 12.9-18.9 23.6-39 33-59.9 1.3-2.9 2.5-5.8 2.7-9 0.2-3.3-1-6.6-2.2-9.8-6.3-16.1-15.7-30.8-25-45.4-3.4-5.5-6.9-10.9-9.2-17-2.3-6-2.3-12.3-2.4-19-9.4-0.9-17.1-2.4-26.5-3.3z"/>
							</g>
							<g id="&lt;Group&gt;">
								<path id="&lt;Path&gt;" class="s15" d="m201.7 104.3c-2.4 6.9-1.5 14.4-0.4 21.6-2.3 0.1-4.1-1.9-6.2-3-2-1.1-4.4-1.4-6.5-2.3-2.1-0.9-3.9-2.4-5.7-3.9 2.3-2.9 3.8-6.4 4.2-10.1"/>
							</g>
							<g id="&lt;Group&gt;">
								<path id="&lt;Path&gt;" class="s15" d="m257.3 152.4c2.2-0.4 4.1-2 5.6-3.8 1.4-1.7 2.6-3.7 4.2-5.3 2.3-2.5 5.4-4.2 8.3-5.8 0.3-0.2 0.7-0.3 1-0.1 0.4 0.2 0.3 0.9 0 1.3q-0.9 1.8-1.8 3.6c0.8 0.2 1.7-0.1 2.5-0.6 0.8-0.4 1.5-0.9 2.4-1.1 0.8-0.1 1.9 0.4 2 1.3 0.1 0.4-0.1 0.7 0.1 1.1 0.2 0.6 1.1 0.7 1.4 1.2 0.4 0.7 0 1.6 0.3 2.2 0.2 0.3 0.4 0.5 0.6 0.7 0.6 0.8 0.5 1.9 0 2.8-0.6 0.8-1.4 1.4-2.3 2-2.2 1.4-4.5 2.9-7.1 3.6-1.1 0.3-2.2 0.4-3.3 0.6q-5.2 0.6-10.5 1.2"/>
							</g>
							<g id="&lt;Group&gt;">
								<g id="&lt;Group&gt;">
									<path id="&lt;Path&gt;" class="s17" d="m182.8 114.6c4.8 3.8 10.5 6.5 16.5 7.7 0.7 0.2 1.4 0.3 2 0.8 0.4 0.3 0.6 0.8 0.9 1.3q3.8 7.6 7.7 15.2c1.1 2.1 2.2 4.3 2.4 6.7 0.2 1.9-0.1 3.9-0.6 5.9-1.4 5.9-3.6 11.6-5.1 17.5-1.5 5.9-0.2 17.2-0.9 24.1-9.6-0.9-23.6 0.1-33.2-0.8 1-13.7 2.1-35.4 2.5-49.2 0.4-10.2 3.1-20.4 7.9-29.4"/>
								</g>
								<g id="&lt;Group&gt;">
									<path id="&lt;Path&gt;" class="s18" d="m184.2 125.3c3.1-1.9 7.1-1.1 10.1 1.1 3.1 2.1 5.4 5.4 7.7 8.7q8 11.5 16.1 23c1.4 2 3 4.2 5.1 4.9 1.9 0.6 4 0 5.9-0.7 9.7-3.6 18.8-9.3 28.7-11.9 1-0.2 1.9-0.4 2.9-0.1 2.3 0.9 2.9 4.5 4.6 6.6-7 7.9-16.5 11.5-25.2 16.4-3.8 2.1-7.5 4.5-11.5 5.7-4.1 1.3-8.6 1.3-12.2-1.2-1.2-0.8-2.2-1.9-3.3-2.9-8.6-8.7-17.2-17.4-24.7-27.4-4.1-5.6-8.1-12.6-6.9-19.9"/>
								</g>
							</g>
							<g id="&lt;Group&gt;">
								<g id="&lt;Group&gt;">
									<path id="&lt;Path&gt;" class="s15" d="m186.9 80c2.9-2 6.7-2.6 10-1.5 3.3 1 6.1 3.7 7.3 7 0.6 1.8 0.8 3.7 1.3 5.5 0.5 1.8 1.4 3.6 3.1 4.6 1 0.5 2.4 1.2 1.9 2.3-0.2 0.4-0.6 0.6-1 0.9-0.5 0.6-0.5 1.5-0.4 2.3q0.3 4.2 0.7 8.4c0 0.3 0 0.7-0.1 0.9-0.3 0.4-0.7 0.5-1.1 0.5-7.9 1-16.1-0.4-23.1-4.1"/>
								</g>
								<g id="&lt;Group&gt;">
									<path id="&lt;Path&gt;" class="s0" d="m200.1 79.3c2.1 2.5 3 5.8 2.5 8.9-0.5 3.2-2.4 6.1-5.1 7.8 4.3 5.7 4.2 14.3-0.2 20-0.2 0.3-0.5 0.6-0.6 1-0.2 0.7 0.1 1.5 0.4 2.2 1.8 4.5 0.6 10-2.7 13.6-3.3 3.6-8.6 5.2-13.4 4.2-4.7-1-9.1-5-9.1-9.9-2.8 0-5.3-1.8-6.9-4.1-4-5.7-2.8-14.4 2.7-18.8 0.4-0.3 1-0.7 1.2-1.3 0.2-0.6 0-1.2-0.1-1.7-1.7-7.1 2.6-15 9.4-17.6"/>
								</g>
								<g id="&lt;Group&gt;">
									<path id="&lt;Path&gt;" class="s17" d="m169.3 94c-2.4-6.6-1.4-14.7 2.8-20.4 4.2-5.6 11.7-8.7 18.6-7.4 6.9 1.3 12.8 7.1 13.9 14 0.3 1.5 0.6 3.4 2 3.8 1.9 0.5 4.9-0.7 6 0.9-4.2 1.6-8.4 2.4-12.5 3.5-2.5 0.6-5 1-7.5 1.5q-11.6 2-23.3 4.1z"/>
								</g>
							</g>
						</g>
					</g>
				</g>
			</g>
		</g>
	</g>
</svg>