<svg version="1.2" xmlns="http://www.w3.org/2000/svg" viewBox="0 0 910 455" width="910" height="455">
	<title>page-not-found-svg</title>
	<style>
		.s0 { fill: #263238 } 
		.s1 { fill: #455a64 } 
		.s2 { fill: #000000 } 
		.s3 { fill: #165315 } 
		.s4 { fill: #ffbf9d } 
		.s5 { fill: #ff9a6c } 
		.s6 { fill: #e0e0e0 } 
		.s7 { fill: #ffffff } 
		.s8 { fill: #ae7461 } 
		.s9 { fill: #6f4439 } 
	</style>
	<path class="s0" d="m851.7 404.2c0 0.2-185.4 0.3-413.9 0.3-228.6 0-414-0.1-414-0.3 0-0.2 185.4-0.3 413.9-0.3 228.6 0 414 0.1 414 0.3z"/>
	<path class="s1" d="m838.1 202.7c-10.5 5.4-18.5 14.8-24.3 25.1-5.8 10.3-9.6 21.7-13.2 32.9l-3.3 58c12.2-20.8 22.1-45.2 24.7-69.3l-8.1-0.7c5.4-0.8 10-4.8 12.9-9.4 2.9-4.7 4.4-10.1 5.9-15.5l-9.9 1.5c7.8-5.3 13.3-13.4 15.3-22.6z"/>
	<g style="opacity: .3">
		<path class="s2" d="m838.1 202.7c-10.5 5.4-18.5 14.8-24.3 25.1-5.8 10.3-9.6 21.7-13.2 32.9l-3.3 58c12.2-20.8 22.1-45.2 24.7-69.3l-8.1-0.7c5.4-0.8 10-4.8 12.9-9.4 2.9-4.7 4.4-10.1 5.9-15.5l-9.9 1.5c7.8-5.3 13.3-13.4 15.3-22.6z"/>
	</g>
	<path class="s1" d="m795.5 332.3c0 0-26.5-31.8-26.2-62.1h10.7c0 0-11.6-7.7-10.7-12 0.9-4.3 1.3-20.5 1.3-20.5l9.8 2.5c0 0-7.4-3.7-8.3-9.5-0.9-5.9 2.2-32.8 2.2-32.8 0 0 11.9 12.6 15.6 25.4 3.6 12.9 13.3 27.9 10.5 67.1-2.9 39.2-4.9 41.9-4.9 41.9z"/>
	<path class="s1" d="m809 335.3c0 0 28.7-19.2 35.1-43.6l-8.6-2.3c0 0 11-3.6 11.2-7.3 0.2-3.6 3.5-16.8 3.5-16.8l-8.4-0.1c0 0 6.7-1.4 8.7-5.9 2-4.4 5.5-26.8 5.5-26.8 0 0-12.4 7.5-18.1 17-5.8 9.5-16.8 19.5-23.1 51.6-6.3 32.2-5.8 34.2-5.8 34.2z"/>
	<path class="s0" d="m781.4 225.6q0.1 0.1 0.1 0.3l0.3 1q0.3 1.4 0.8 3.8c0.8 3.2 1.7 8 2.9 13.9 1.1 5.9 2.3 12.9 3.5 20.8 1.3 7.8 2.4 16.4 3.5 25.5 1.1 9.1 1.9 17.8 2.5 25.7 0.7 7.9 1 15.1 1.3 21 0.2 6 0.4 10.9 0.4 14.2q0 2.5 0 3.9v1q0 0.2 0 0.4 0-0.2 0-0.4 0-0.4 0-1c0-0.9-0.1-2.2-0.2-3.9-0.1-3.3-0.3-8.1-0.6-14.1-0.3-6-0.7-13.1-1.4-21.1-0.6-7.9-1.4-16.5-2.5-25.6-1-9.1-2.2-17.7-3.4-25.6-1.1-7.8-2.3-14.8-3.4-20.7-1.1-5.9-2-10.7-2.7-14q-0.4-2.4-0.7-3.7-0.1-0.6-0.2-1-0.1-0.2-0.2-0.4z"/>
	<path class="s1" d="m791.8 351.7c0 0-24.3-27.5-31.8-44.2l5.7-2.4c-4.1 0.6-8.4-1.1-11.6-3.8-3-2.9-5.7-6.1-7.8-9.7l7.5-1.3c-6.9-2-12.7-6.5-16.3-12.7 8.8 1.5 16.8 6.3 23.4 12.4 5.3 5 10 10.6 14.2 16.5q3.2 4.3 5.6 9.1c4 8.4 11.1 26 11.1 36.1z"/>
	<path class="s0" d="m844.5 248.5c0 0 0 0.1-0.1 0.3-0.1 0.2-0.3 0.5-0.4 0.8l-1.5 3.1c-1.2 2.6-3.1 6.5-5.3 11.3-4.5 9.5-10.3 22.9-16.2 37.9-5.8 14.9-10.4 28.8-13.5 38.9-1.6 5-2.8 9.1-3.6 11.9l-1 3.3-0.3 0.8q0 0.2-0.1 0.3 0-0.1 0-0.3c0-0.2 0.1-0.5 0.2-0.8q0.3-1.3 0.9-3.3c0.7-2.9 1.9-7 3.4-12 3-10.1 7.5-24 13.4-39 5.8-15 11.8-28.3 16.3-37.8 2.3-4.8 4.2-8.6 5.6-11.2q1-1.9 1.5-3l0.5-0.8q0-0.2 0.2-0.4z"/>
	<path class="s0" d="m793.9 363.5q-0.3-1-0.4-2c-0.2-1.3-0.5-3.1-1-5.4-2.3-11.7-6.5-23-12.5-33.3-1.2-2-2.1-3.6-2.8-4.7q-0.6-0.8-1.1-1.7 0.7 0.7 1.3 1.6c0.8 1 1.8 2.6 3 4.5 3.1 5.2 5.7 10.6 7.8 16.3 2.1 5.6 3.7 11.4 4.7 17.3 0.4 2.3 0.7 4.1 0.8 5.4q0.2 1 0.2 2z"/>
	<path class="s3" d="m825.9 357h-53.1v10.9h53.1z"/>
	<path class="s3" d="m777.8 367.9l5.8 36.5h32.1l5.4-36.5z"/>
	<path class="s0" d="m822.7 367.9c0 0.2-10.1 0.3-22.5 0.3-12.4 0-22.4-0.1-22.4-0.3 0-0.2 10-0.3 22.4-0.3 12.4 0 22.5 0.1 22.5 0.3z"/>
	<path class="s0" d="m78.7 371.9c0 0-4.8-32.7-4.4-51.6 0.4-18.9 0-40.3 0-40.3h2.2c0 0-1.5 37.6 0.1 60.3 1.6 22.7 5.9 31.6 5.9 31.6h-3.8"/>
	<path class="s1" d="m92.8 243.3c-0.4-1.2-1.1-2.2-2-2.9q-1.1-0.5-2.4-0.5-1.2 0-2.3 0.5c-6.6 2.3-12.5 14.6-15.1 21.1l8.8 29.5c15.7-14.6 18.4-33.9 13-47.7z"/>
	<path class="s0" d="m90.3 241.6q-0.1 0.2-0.2 0.3l-0.4 1.1c-0.4 1-0.9 2.3-1.6 4-1.2 3.3-2.9 8-4.4 13.3-1.4 5.3-2.5 10.2-3 13.7-0.4 1.8-0.6 3.2-0.7 4.2q-0.2 0.7-0.2 1.1-0.1 0.2-0.1 0.4 0-0.2 0-0.4c0-0.3 0.1-0.7 0.1-1.1 0.1-1 0.3-2.5 0.6-4.2 1.5-9.3 4-18.4 7.5-27.1 0.7-1.7 1.3-3 1.7-3.9l0.5-1.1q0.1-0.2 0.2-0.3z"/>
	<path class="s1" d="m75.8 298.2c-4-2.3-7.4-5.6-9.7-9.5-2.4-3.9-3.7-8.4-3.8-13-0.4-6.6 1.7-13 3.9-19.2 0.2-0.5 0.5-1 1-1.3q0.5-0.3 1.1-0.2 0.6 0.1 1.1 0.5c6 3.4 9.6 9.9 11.5 16.5 1.4 4.3 1.9 9 1.4 13.5-0.8 4.8-3 9.2-6.5 12.6"/>
	<path class="s0" d="m75.8 298.2q-0.1-0.2 0-0.4 0-0.5 0-1.2c0-1 0-2.4-0.1-4.1q-0.4-6.9-1.6-13.7c-0.9-5.3-2-10-2.8-13.4l-1-4.1-0.2-1.1q-0.1-0.2 0-0.4 0.1 0.2 0.1 0.4 0.1 0.4 0.3 1.1c0.3 0.9 0.7 2.3 1.1 4 0.9 3.4 2 8.2 2.9 13.5q1.2 6.8 1.5 13.7c0 1.7 0 3.1 0 4.1q0 0.7 0 1.2-0.1 0.2-0.2 0.4z"/>
	<g style="opacity: .3">
		<path class="s2" d="m75.8 298.2c-4-2.3-7.4-5.6-9.7-9.5-2.4-3.9-3.7-8.4-3.8-13-0.4-6.6 1.7-13 3.9-19.2 0.2-0.5 0.5-1 1-1.3q0.5-0.3 1.1-0.2 0.6 0.1 1.1 0.5c6 3.4 9.6 9.9 11.5 16.5 1.4 4.3 1.9 9 1.4 13.5-0.8 4.8-3 9.2-6.5 12.6"/>
	</g>
	<path class="s1" d="m85 348c8.1 1.8 14.8 7.6 22.7 10.3 5.1 1.8 10.9 2.5 15 6.1-1-2.5-3.3-4.2-5.6-5.6-6.4-4-13.3-7.3-20.4-9.8-3.7-1.2-7.7-2.3-11.4-1.2"/>
	<path class="s1" d="m73.4 355.2c-10.2-0.1-20.8-8.8-30.9-9.3 10.5-3.4 25.6-0.6 30.9 9.3z"/>
	<path class="s1" d="m77.3 330.9c5.2-1.7 10.8-2.1 16.2-1.1q8 1.5 15.8 4.3c-0.6-3.5-3.4-6.1-6.1-8.5q-2.9-2.7-6.3-4.8c-2.2-1.5-4.9-2.2-7.6-2.2-1.6 0.1-3.2 0.5-4.6 1.3-1.4 0.7-2.7 1.7-3.8 2.9-2 2.3-3.3 5.1-3.6 8.1z"/>
	<path class="s1" d="m56.5 319.8c-6.3-5.5-16-5-24.4-4.8 13.5 6.4 26.2 14.4 37.9 23.6 0.3-5.9-5.4-12-13.5-18.8z"/>
	<g style="opacity: .3">
		<path class="s2" d="m56.5 319.8c-6.3-5.5-16-5-24.4-4.8 13.5 6.4 26.2 14.4 37.9 23.6 0.3-5.9-5.4-12-13.5-18.8z"/>
	</g>
	<path class="s1" d="m80.2 312.2q4.7-3.2 9.8-5.7c3.3-1.5 6.5-3.9 9.7-5.7 4.2-2.2 7.9-5.4 11.7-8.2 3.9-2.9 8.1-5.4 12.8-6.1-3.9-0.7-7.9-0.5-11.6 0.6q-5.7 1.7-11 4.3c-5 2.2-10.1 4.5-14.1 8.2-4 3.6-7.7 7.2-7.3 12.6z"/>
	<path class="s0" d="m107.4 355.2q-0.2 0-0.3-0.1l-0.9-0.4c-0.8-0.4-1.9-1-3.3-1.7q-1-0.6-2.2-1.1-1.3-0.6-2.7-1.3-3-1.4-6.2-2.2c-2.2-0.6-4.4-0.6-6.5-0.1q-1.4 0.3-2.8 0.8c-1.9 0.8-3.6 1.9-5 3.4-0.6 0.7-0.9 1.1-0.9 1l0.2-0.3q0.3-0.4 0.6-0.8 1.2-1.4 2.7-2.4 1.1-0.7 2.3-1.2 1.3-0.6 2.8-0.9c2.2-0.5 4.5-0.5 6.6 0.1q3.3 0.9 6.3 2.2 1.4 0.7 2.6 1.3c0.9 0.4 1.6 0.8 2.3 1.2 1.4 0.7 2.4 1.3 3.2 1.8l0.8 0.5q0.2 0.1 0.4 0.2z"/>
	<path class="s0" d="m65.8 350.2q0.3 0.1 0.6 0.2 0.9 0.3 1.7 0.7c1.8 0.9 3.4 2.1 4.8 3.4 1.5 1.4 2.7 3 3.7 4.7q0.4 0.8 0.7 1.7 0.2 0.3 0.2 0.6c0 0-0.4-0.8-1.2-2.1q-1.5-2.5-3.7-4.6-2.1-2-4.7-3.5c-1.2-0.7-2.1-1-2.1-1.1z"/>
	<path class="s0" d="m43.4 319.2q0.2 0.1 0.4 0.2l1.2 0.4 2 0.7c0.7 0.3 1.5 0.7 2.5 1.1 4.7 2.2 9.2 5 13.2 8.4q3.2 2.8 6.1 6.1 2.3 2.6 4.4 5.5c1.1 1.6 2 3 2.6 3.9l0.7 1.1q0.1 0.2 0.2 0.4l-0.3-0.3q-0.2-0.4-0.7-1.1c-0.7-0.9-1.6-2.2-2.7-3.9-1.2-1.6-2.7-3.4-4.4-5.4q-2.9-3.2-6.2-6c-4-3.4-8.3-6.2-13-8.5-0.9-0.4-1.7-0.8-2.5-1.1l-1.9-0.8-1.2-0.5z"/>
	<path class="s0" d="m92.5 325.2q-0.4 0-0.8-0.1l-0.9-0.1c-0.4 0-0.8 0-1.3-0.1-1.8-0.2-3.7 0-5.5 0.7-1.7 0.6-3.3 1.7-4.6 3q-1.2 1.2-2 2.5-0.8 1.3-1.4 2.6 0.1-0.4 0.2-0.7 0.4-1.1 1-2 0.8-1.5 2-2.7 1.4-1.5 3.2-2.4c2.2-1.2 4.7-1.6 7.2-1.3 0.4 0.1 0.8 0.1 1.2 0.2l0.9 0.2q0.4 0.1 0.8 0.2z"/>
	<path class="s0" d="m102.7 293.7l-0.4 0.2-1.1 0.6c-1 0.5-2.4 1.3-4.1 2.3-1.8 1.1-3.8 2.3-5.9 3.8q-3.5 2.5-6.6 5.5-1.5 1.5-2.6 3.5c-0.7 1.2-1.3 2.5-1.9 3.6q-1.6 3.2-2.8 6.4-0.9 2.3-1.4 4.6c-0.3 1.1-0.3 1.7-0.4 1.7q0-0.3 0-0.5c0-0.3 0.1-0.7 0.2-1.3q0.5-2.3 1.3-4.5 1.2-3.3 2.8-6.4c0.6-1.2 1.2-2.5 1.9-3.7q1.1-2 2.7-3.6 3-3.1 6.6-5.5c2.2-1.5 4.2-2.8 5.9-3.8 1.8-1 3.2-1.7 4.2-2.2l1.2-0.6q0.2-0.1 0.4-0.1z"/>
	<path class="s0" d="m74.3 324.3q-0.2-0.4-0.2-0.8l-0.4-2.4c-1-5.1-2.6-10.1-4.9-14.9l-0.9-2.1q-0.2-0.4-0.4-0.8 0.3 0.3 0.5 0.7c0.3 0.5 0.6 1.3 1.1 2.1q1.7 3.6 3 7.3 1.2 3.8 1.8 7.7 0.2 1.5 0.3 2.4 0.1 0.4 0.1 0.8z"/>
	<path class="s1" d="m73.5 301.3c-0.3-3.8-1.4-7.6-3.3-10.9-2.5-4.7-6-8.7-10.2-11.9-4.2-3.1-9.1-5.3-14.3-6.4l22.7 33.8 2.9 6c1.8-3.2 2.6-6.9 2.2-10.6z"/>
	<path class="s3" d="m106 367.8h-52.6v9.3h52.6z"/>
	<path class="s3" d="m57.3 375.3l4.5 29h35l5.3-29z"/>
	<path class="s0" d="m106 377.2c0 0.1-11.9 0.2-26.5 0.2-14.7 0-26.5-0.1-26.5-0.2 0-0.1 11.8-0.2 26.5-0.2 14.7 0 26.5 0.1 26.5 0.2z"/>
	<path class="s4" d="m744.6 162.4c0 0-8.9-0.3-13.9 4.9l7.2 13 13.8-2.8 1.2-4.3 2.2-8.3z"/>
	<path class="s1" d="m654.2 151.1c0 0 4.3 2.7 5.4 5.7 1.1 3 26 20.7 26 20.7l3.4-0.9 40-12.3 10.1 18.1-49.6 18.6c-1.4 0.3-36.7-11.2-36.7-11.2z"/>
	<path class="s3" d="m749.4 192.6l-30.5-9.8-12.6 39.4-42.3-13.5 12.6-39.3-100.8-32.2 9.2-29.2 126.2-90.6 45.6 14.5-117.9 86.5 50.3 16.1 11.1-35.1 41 13.1-11.2 35 30.5 9.7z"/>
	<g style="opacity: .3">
		<path class="s2" d="m749.4 192.6l-30.5-9.8-12.6 39.4-42.3-13.5 12.6-39.3-100.8-32.2 9.2-29.2 126.2-90.6 45.6 14.5-117.9 86.5 50.3 16.1 11.1-35.1 41 13.1-11.2 35 30.5 9.7z"/>
	</g>
	<path class="s3" d="m737.9 189.1l-30.6-9.8-12.5 39.4-42.3-13.5 12.6-39.3-100.9-32.3 9.3-29.1 126.2-90.7 45.5 14.5-117.8 86.6 50.2 16 11.2-35 41 13.1-11.2 35 30.5 9.7z"/>
	<g style="opacity: .3">
		<path class="s2" d="m658.6 163.8l-0.4-12.3 1.1-6.1c0 0 11.6 0.3 14.1-3.9q2.7-5.2 4.5-10.8l-14.5-3.4-10.6 16.6-3.2 8.1 5.1 10.6z"/>
	</g>
	<path class="s0" d="m639.4 111.7q0.2-7.3 1.6-14.5c1-4.8 3.1-9.3 6.3-13.1 0.5-0.5 4.2-4.1 4.9-3.8 0.4 0.3-2.4 3.8-2.3 4.4 0.6 5-0.3 10.2-2.6 14.7-2.2 4.4-4.8 8.5-7.9 12.4"/>
	<path class="s4" d="m655.2 146.9c1.3-3.2 2.3-5.7 2.3-5.7 0 0 11.5 3.1 16.5-7.6 2.3-5.1 6.4-16.1 9.9-26.2 1.9-5.1 1.7-10.8-0.5-15.9-2.1-5.1-6.1-9.1-11.2-11.4l-1-0.4c-11.5-4.4-21.6 2.9-25.6 14.5l-15.4 40 4.2 12.3c0.8 2.1 2.2 4 4 5.3 1.8 1.4 4 2.1 6.3 2.2 2.3 0 4.5-0.6 6.4-1.9 1.9-1.3 3.3-3.1 4.1-5.2z"/>
	<path class="s5" d="m657.5 141.2c-4.9-2.3-9.1-5.9-12.1-10.4 0 0-0.1 9.3 11.1 13.1z"/>
	<path class="s0" d="m673.5 115.1c-0.2 0.4-0.5 0.7-0.9 0.9-0.4 0.2-0.9 0.2-1.3 0q-0.3-0.1-0.5-0.3-0.3-0.2-0.4-0.5-0.1-0.3-0.1-0.7 0-0.3 0.1-0.6c0.1-0.4 0.5-0.7 0.9-0.9 0.4-0.1 0.8-0.1 1.2 0q0.3 0.1 0.6 0.4 0.2 0.2 0.4 0.5 0.1 0.3 0.1 0.6 0 0.3-0.1 0.6z"/>
	<path class="s0" d="m679.6 110.8c-0.2 0.1-1-1.2-2.7-2-1.6-0.7-3.2-0.4-3.3-0.7-0.1-0.3 0.3-0.4 1-0.6 1-0.1 1.9 0 2.8 0.4 0.8 0.3 1.6 1 2 1.8 0.4 0.6 0.4 1.1 0.2 1.1z"/>
	<path class="s0" d="m659.6 109.5c-0.2 0.4-0.5 0.7-0.9 0.9-0.5 0.1-0.9 0.1-1.3 0q-0.3-0.1-0.6-0.4-0.2-0.2-0.3-0.5-0.2-0.3-0.2-0.6 0-0.3 0.1-0.6c0.2-0.4 0.5-0.7 0.9-0.9 0.4-0.2 0.9-0.2 1.3 0q0.3 0.1 0.5 0.3 0.3 0.2 0.4 0.5 0.2 0.3 0.2 0.7 0 0.3-0.1 0.6z"/>
	<path class="s0" d="m664 104.5c-0.3 0.1-1-1.2-2.7-2-1.6-0.7-3.2-0.4-3.3-0.7-0.1-0.3 0.3-0.4 1-0.6 0.9-0.1 1.9 0 2.8 0.4 0.8 0.4 1.6 1 2 1.9 0.4 0.5 0.4 1 0.2 1z"/>
	<path class="s0" d="m663.4 119.6q1.5 0.2 2.9 0.7c0.5 0.1 0.9 0.2 1.1 0 0.2-0.4 0.3-0.9 0.3-1.4 0-1.2 0.1-2.4 0.2-3.8 0.3-5.3 0.7-9.6 0.9-9.6 0.2 0 0.2 4.4-0.2 9.7 0 1.3-0.1 2.5-0.2 3.8 0 0.6-0.1 1.2-0.5 1.7q-0.2 0.2-0.5 0.3-0.2 0.1-0.5 0-0.4 0-0.8-0.2-1.4-0.4-2.7-1.2z"/>
	<path class="s0" d="m666.3 98.9c-0.4 0.3-1.8-0.9-3.7-1.9-1.9-0.9-3.6-1.4-3.6-1.9 0-0.3 0.5-0.5 1.4-0.5 1 0 2.1 0.3 3.1 0.8 1 0.5 1.8 1.2 2.5 2.1 0.4 0.7 0.6 1.2 0.3 1.4z"/>
	<path class="s0" d="m681.7 104.8c-0.4 0.3-1.4-0.6-2.7-1.2-1.4-0.6-2.7-0.9-2.8-1.4 0-0.3 0.3-0.6 1-0.7 0.9-0.1 1.7 0 2.5 0.4 0.8 0.4 1.5 1 1.9 1.8 0.4 0.5 0.3 1 0.1 1.1z"/>
	<path class="s4" d="m642.9 102.5c-0.1-0.2-6.4-5.5-9.4 1.9-3.1 7.5 5 9 5.1 8.8 0.2-0.1 4.3-10.7 4.3-10.7z"/>
	<path class="s5" d="m637.5 109.5c0 0-0.2 0-0.4 0-0.4 0-0.7-0.2-1-0.4-0.4-0.5-0.6-1.1-0.6-1.7-0.1-0.6 0-1.3 0.3-1.8q0.4-1 1.1-1.7 0.3-0.3 0.6-0.5 0.4-0.1 0.8-0.1 0.3 0 0.4 0.2 0.2 0.2 0.2 0.5c0 0.2-0.1 0.3 0 0.4 0.1 0 0.2 0 0.3-0.4q0-0.3-0.1-0.6-0.2-0.4-0.6-0.5-0.6-0.1-1 0.1-0.5 0.1-0.9 0.5c-0.5 0.5-1 1.2-1.2 1.9-0.3 0.6-0.5 1.4-0.4 2.1 0.1 0.7 0.5 1.3 0.9 1.9q0.3 0.2 0.6 0.3 0.4 0 0.7 0c0.2-0.1 0.3-0.2 0.3-0.2z"/>
	<path class="s0" d="m684 93.1c1.5-0.2-0.5-5.6-3-8.1-3.7-3.8-10-7.8-14.6-8.3-5.6-0.6-10.7 0.2-15 3.8-4.3 3.6-7.5 8.3-9.3 13.6-0.7 1.6-1 3.4-0.8 5.1 0.4 2 2 3.9 1 6.1q-0.3 0.6-0.3 1.3-0.1 0.7 0.2 1.3c0.7 2 3 1.3 4.3 0.3 2.8-2.3 4.4-5.7 5.8-9 1.2-2.3 2-4.8 2.4-7.3 0.1-1.4 0-2.8 0.2-4.2q0.1-1.1 0.7-2 0.5-0.9 1.4-1.5 0.4-0.3 0.8-0.4c1.4-0.5 2.9-0.6 4.4-0.3 1.4 0.3 2.8 0.9 3.9 1.9 3.6 3.2 9.9 8.3 12.4 7.6 1.7-0.4 3.3-1.1 4.7-2.1z"/>
	<path class="s0" d="m663.7 125.5c0 0.1-0.5 0.2-1.2 0.1-0.9-0.1-1.7-0.5-2.4-1.1-0.6-0.6-1.1-1.4-1.4-2.3-0.1-0.7 0-1.1 0.1-1.2 0.1 0 0.8 1.5 2.1 2.7 1.3 1.1 2.8 1.5 2.8 1.8z"/>
	<path class="s5" d="m667.2 60.9q-2 4-4.6 7.8-2.3 3.9-5.2 7.4 2-4 4.6-7.8 2.3-3.9 5.2-7.4z"/>
	<path class="s0" d="m634.6 292.4l23.3 22.2c0 0-11.3 75.7-9.3 75.9l27.9 1.9c0 0 16.9-87.6 15.6-92.7-1.3-5.2-42.1-45.6-42.1-45.6l-0.5-6.9-11.6-1.6z"/>
	<path class="s0" d="m590.7 262.1c2.2 5.1 6 11.2 6.8 16.3l14.2 51.8-50.7 61.5 22.6 19c0 0 61.1-65.9 63.2-74 1.7-6.5-5.1-71.6-5.1-71.6l2.2-18.6-52.7-12.6v0.1c-2.1 4.4-3.3 9.1-3.4 14-0.1 4.8 0.9 9.7 2.9 14.1z"/>
	<path class="s0" d="m595.4 393.3l-16.3 18.9c0 0 12.6 22.2 9.9 25.9l-35.7-28.9 24.4-30.4z"/>
	<path class="s6" d="m569.4 401.6c-0.5-0.1-1-0.1-1.4 0-0.5 0.2-0.8 0.5-1.1 1-0.2 0.4-0.2 0.9-0.1 1.3 0.2 0.5 0.5 0.8 0.9 1.1 0.5 0.1 1 0.1 1.4-0.1 0.5-0.2 0.9-0.5 1.1-0.9q0.1-0.4 0.1-0.8 0-0.3-0.1-0.7-0.2-0.3-0.5-0.6-0.2-0.2-0.6-0.3"/>
	<path class="s1" d="m553.3 409.2l2.5-2.9 33.3 28.9c0 0 1 2-0.2 3z"/>
	<path class="s7" d="m579.8 412.5c-0.2 0.1-1.1-0.5-2.4-0.6-1.4-0.1-2.4 0.3-2.5 0.1-0.1-0.2 1-1.1 2.6-0.9 1.6 0.1 2.5 1.2 2.3 1.4z"/>
	<path class="s7" d="m582.2 417.2c-0.1 0.2-1.1-0.1-2.3 0.2-1.3 0.3-2.1 0.9-2.3 0.8-0.2-0.2 0.6-1.3 2.1-1.6 1.6-0.4 2.7 0.4 2.5 0.6z"/>
	<path class="s7" d="m580.5 423.6c-0.2-0.1 0.3-1.2 1.6-1.9 1.3-0.6 2.4-0.3 2.3-0.1 0 0.2-0.9 0.3-2 0.9-1 0.5-1.7 1.3-1.9 1.1z"/>
	<path class="s7" d="m583.1 407.8c-0.2 0.1-0.8-0.8-1.9-1.5-1-0.8-2-1.1-2-1.3 0-0.2 1.3-0.3 2.5 0.6 1.3 0.9 1.6 2.1 1.4 2.2z"/>
	<path class="s0" d="m675.4 377.1l-0.3 25.5c0 0 24.4 9 24.8 13.7l-46.8 0.9-1-39.6z"/>
	<path class="s6" d="m660.6 400.7c-0.4 0.2-0.8 0.5-1.1 1-0.2 0.4-0.3 0.9-0.1 1.4 0.1 0.4 0.4 0.8 0.8 1.1 0.4 0.2 0.9 0.3 1.3 0.2 0.5-0.2 0.9-0.5 1.2-1 0.2-0.4 0.3-1 0.2-1.5q-0.2-0.3-0.4-0.6-0.3-0.3-0.6-0.5-0.3-0.1-0.7-0.2-0.4 0-0.7 0.2"/>
	<path class="s1" d="m653.1 417.2v-4l44.8 0.6c0 0 2.2 0.9 2 2.5z"/>
	<path class="s7" d="m675.9 402.3c0 0.3-1.2 0.4-2.3 1.2-1.1 0.8-1.7 1.8-1.9 1.7-0.2-0.1 0.1-1.5 1.5-2.4 1.3-1 2.7-0.7 2.7-0.5z"/>
	<path class="s7" d="m680.8 404.4c0.1 0.2-0.9 0.6-1.7 1.6-0.7 1.1-0.9 2.2-1.2 2.2-0.3-0.1-0.4-1.4 0.6-2.7 0.9-1.2 2.3-1.4 2.3-1.1z"/>
	<path class="s7" d="m683.7 410.5c-0.2 0-0.5-1.1 0-2.5 0.6-1.4 1.7-1.9 1.8-1.7 0.1 0.2-0.6 0.9-1 2-0.5 1.1-0.6 2.2-0.8 2.2z"/>
	<path class="s7" d="m675.3 396.5c-0.1 0.2-1.1-0.1-2.4 0-1.3 0.1-2.3 0.6-2.4 0.4-0.1-0.2 0.8-1.1 2.3-1.3 1.5-0.1 2.6 0.7 2.5 0.9z"/>
	<path class="s1" d="m642.1 260.7q0.1 0.4 0.1 0.7 0.1 0.8 0.2 2c0.2 1.7 0.5 4.1 0.8 7.1 0.6 6.1 1.2 14.5 1.8 23.7 0.7 9.3 1.1 17.6 1.5 23.7 0.2 3 0.3 5.4 0.4 7.2l0.1 2q0.1 0.3 0 0.7-0.1-0.4-0.1-0.7c0-0.5-0.1-1.2-0.2-1.9-0.2-1.8-0.4-4.3-0.6-7.2-0.5-6.1-1.1-14.5-1.7-23.7-0.6-9.3-1.3-17.6-1.7-23.7-0.2-3-0.4-5.4-0.5-7.2 0-0.8-0.1-1.5-0.1-2q-0.1-0.3 0-0.7z"/>
	<path class="s4" d="m765.6 161.8c1 1.9-2.9 3.6-2.9 3.6 0.9 0.7 0 3.9-1.6 4 0.6 0.6 1.1 0.6 1.4 1.4q0.3 0.6 0.2 1.2 0 0.7-0.4 1.2c-0.2 0.4-0.6 0.6-1 0.8-0.4 0.1-0.8 0.1-1.2 0 0.4 0.5 0.6 1.1 0.7 1.8 0 0.6-0.1 1.3-0.5 1.8-0.4 0.7-1 1.2-1.8 1.4q-0.5 0.1-1.1 0.1-0.3 0-0.5-0.1l-0.1-0.1c-0.2-0.2-0.4-0.5-0.6-0.7l-0.3-0.3q-0.7-0.5-1.4-0.8-0.4-0.1-0.8-0.3-0.1-0.1-0.3-0.3c-0.9-0.6-1.9-1.1-2.9-1.3-1.2-0.2-2.3-0.8-3.1-1.6-0.4-0.5-0.6-1-0.6-1.6 0-0.6 0.3-1.2 0.7-1.6-0.4 0-0.7-0.2-0.9-0.5-0.3-0.4-0.4-0.7-0.4-1.1q0.1-0.6 0.4-1 0.4-0.5 0.9-0.7c0.7-0.4 1.4-0.5 2.2-0.4-0.4-0.1-0.8-0.4-0.9-0.8-0.2-0.4-0.3-0.9-0.1-1.3q0.2-0.6 0.7-1.1 0.6-0.4 1.2-0.5 1.3-0.2 2.6 0.1c0.9 0.2 4.5 0.9 5.4 1l0.8-2.3 0.2-0.3c1.6-0.2 2-0.4 3.4-0.5 1.1-0.1 2.1 0 2.6 0.8z"/>
	<path class="s4" d="m757 182.2q-0.1 0.5-0.5 1-0.3 0.4-0.8 0.7c-1 0.2-2.1 0-3.1-0.5l0.6-2.4 0.2-0.6c-0.2-0.5-1.2-0.8-1.7-1.1-0.3-0.3-0.6-0.8-0.6-1.3 0-0.5 0.1-1 0.4-1.3q0.5-0.6 1.3-0.8 0.7-0.2 1.4 0c1 0.3 1.8 1 2.2 1.8q0.6 1.1 0.8 2.2 0.1 1.2-0.2 2.3z"/>
	<path class="s5" d="m760.3 174.1q-3-1.4-6.3-2.2-3.2-1.1-6.6-1.5 3.1 1.4 6.4 2.1 3.2 1.1 6.5 1.6z"/>
	<path class="s5" d="m761.2 169.5c-1.8-1-3.7-1.7-5.7-2.1-2-0.6-4-0.9-6-0.8q2.9 0.9 5.8 1.5 2.9 0.9 5.9 1.4z"/>
	<path class="s5" d="m762.1 165c-1.5-0.8-3.1-1.3-4.8-1.5q-2.5-0.7-5-0.7 2.3 1 4.8 1.3 2.5 0.7 5 0.9z"/>
	<path class="s5" d="m757 180.7c0.1 0 0.3-0.4 0.3-1.2-0.2-1-0.7-1.8-1.5-2.4q-1.1-0.9-2.5-1.3c-0.8-0.2-1.3 0.3-1.1 0.3 0.1 0.1 0.4-0.1 1 0.1q1.1 0.6 2.1 1.4c0.7 0.5 1.2 1.2 1.4 2 0.3 0.6 0.2 1 0.3 1.1z"/>
	<path class="s0" d="m652.4 203q0-0.9 0.2-1.8c0.1-1.3 0.2-3.1 0.4-5.1 0.4-4.2 0.9-10.2 1.2-16.7 0.2-6.6 0.2-12.6 0.2-16.8 0-2.1-0.1-3.8-0.1-5.1q-0.1-1 0-1.9 0.2 0.9 0.2 1.8 0.1 1.9 0.3 5.2c0.2 4.3 0.2 10.2 0 16.8-0.3 6.6-0.8 12.6-1.3 16.8-0.3 2.1-0.5 3.8-0.7 5q-0.1 0.9-0.4 1.8z"/>
	<path class="s1" d="m633 126.5c-1.2 0.6-22.6 11-27.1 16.1-4.5 5.1-11.5 37.9-11.5 37.9l-5.1 28.9-4 43.1 66.8 0.7c2.6-5.9 0.9-12-2.2-18.2l5.2-68-0.9-15.9z"/>
	<path class="s1" d="m604.3 161.1c0 0-11.3-4.7-12.4-11.9-1.1-7.1 0.3-8.9 2.1-11.9 1.9-3 36-39.4 36-39.4l16.7 13.7-24.1 28.3c0 0 3.6 0.5 2.4 5"/>
	<path class="s0" d="m625 145q0.1-0.8 0.2-1.6c0-0.7-0.2-1.3-0.5-1.9q-0.4-0.5-0.9-0.9-0.6-0.4-1.2-0.5h-0.2l0.1-0.2 24-28.5v0.5l-16.7-13.7h0.4l-6.3 6.7-19.7 21.2c-3 3.3-5.8 6.4-8.4 9.4q-1 1.1-1.8 2.2-0.8 1.2-1.4 2.5c-0.7 1.5-1 3.3-0.9 5q0.1 2.4 0.6 4.7c0.4 1.4 1 2.6 1.9 3.7 1.4 1.8 3.1 3.3 5 4.6q1.8 1.2 3.7 2.2l1 0.5q0.2 0.1 0.4 0.2-0.2 0-0.4-0.1l-1-0.5q-2-0.9-3.8-2.1c-1.9-1.3-3.7-2.8-5.2-4.6-0.9-1.1-1.6-2.4-2-3.7q-0.6-2.4-0.6-4.8c-0.1-1.8 0.2-3.6 0.9-5.3 0.8-1.8 1.9-3.4 3.2-4.8 2.6-3 5.4-6.2 8.4-9.5 6-6.6 12.6-13.8 19.7-21.3l6.2-6.7 0.3-0.2 0.2 0.2 16.6 13.7 0.3 0.2-0.2 0.2-24.2 28.3-0.1-0.3q0.7 0.2 1.3 0.6 0.6 0.4 0.9 1c0.3 0.6 0.5 1.3 0.4 2q0 0.6-0.1 1.3-0.1 0.1-0.1 0.3z"/>
	<path class="s4" d="m632.3 68.7c0 0-2-1.6-2.4 1.7-0.4 3.3 2.7 16.3 3.1 16.3 0.4 0 2.3 7.6 2 8.6-0.3 1-3.1 4.2-3.1 4.2l13.3 10.9 4.1-7.4c3.1-1.3 5.8-3.4 7.8-6.1 3-4.4 14.3-21.2 14.7-23.5 0.3-2.4-2.1-2.7-3.8-0.5-1.7 2.3-5.7 7.6-6.4 7.9-0.8 0.4-1.2-0.7-0.8-1.2 0.4-0.6 7.9-12.6 8.6-14.8 0.9-3-2.3-3.6-2.3-3.6 0 0 1.1-3.1-0.5-3.7-1.7-0.6-3.3 1-5 3.7-1.8 2.6-7.8 11.3-8.5 11.7-0.6 0.4-1.1 0-0.5-1.2 0.5-1.2 7.8-11.8 7.8-13.3 0-1.5-1.1-3.9-4.2-0.7-3.1 3.2-10.1 16.3-11.1 17.5-1.1 1.1-4.3 4.7-5.5 4.3-1.2-0.4-4.1-4.2-4.7-6.9-0.4-1.6-1.3-3-2.6-3.9z"/>
	<path class="s5" d="m632.3 68.7q0.7 0.5 1.2 1.2 0.7 0.8 1.1 1.8c0.1 0.4 0.2 0.9 0.4 1.3q0.2 0.7 0.6 1.4 0.8 1.7 2 3.1c0.8 0.9 2 2.6 3.3 1.2q2-1.6 3.6-3.5 0.9-1 1.6-2.2l1.4-2.5c2.1-3.5 4.2-7.4 7-11.3q1-1.6 2.5-2.8c0.5-0.4 1.2-0.6 1.9-0.6q0.5 0.1 0.9 0.5 0.4 0.3 0.6 0.9 0.1 0.5 0.2 1-0.1 0.3-0.1 0.6l-0.2 0.4q-0.5 0.9-0.9 1.8-1 1.7-2.1 3.5l-4.5 7q-0.2 0.4-0.3 0.8c0 0.2 0 0.2 0.1 0.2q0.1 0.1 0.1 0.1 0.1 0 0.2-0.1l0.1-0.1 0.2-0.2q0.1-0.2 0.3-0.4l0.7-0.9q1.3-1.7 2.5-3.6l5.3-7.5q0.7-1 1.6-1.8c0.6-0.6 1.4-1 2.3-1 0.4 0 0.9 0.2 1.2 0.5 0.3 0.3 0.5 0.7 0.6 1.2q0 1.3-0.4 2.5l-0.2-0.4q0.8 0.1 1.4 0.6 0.7 0.5 1.1 1.2 0.2 0.8 0.1 1.6-0.1 0.8-0.5 1.5c-0.9 1.8-1.9 3.5-2.9 5.2l-3.1 5.2-1.6 2.6-0.4 0.7-0.2 0.3q-0.1 0.1-0.1 0.2 0 0.2 0 0.3 0.1 0.1 0.1 0.2 0.1 0 0.2 0 0.1 0 0.2 0 0.3-0.3 0.5-0.6l0.6-0.6 1.2-1.4q1.1-1.5 2.2-2.9c0.7-0.9 1.4-1.9 2.2-2.8q0.7-0.7 1.6-1 0.5-0.2 1.1-0.1 0.5 0.2 0.9 0.6 0.3 0.4 0.3 0.9 0.1 0.6-0.1 1-0.1 0.5-0.3 0.9-0.2 0.4-0.4 0.8-0.8 1.6-1.7 3c-1.2 2-2.4 4-3.7 5.8q-3.6 5.7-7.3 11c-0.6 0.9-1.1 1.7-1.8 2.6q-0.9 1.3-2.1 2.3c-1.6 1.4-3.4 2.5-5.3 3.2l0.1-0.1-4.1 7.4-0.1 0.3-0.3-0.2-13.2-11-0.2-0.1 0.1-0.2q1.4-1.4 2.5-3 0.3-0.4 0.5-0.8 0.2-0.3 0.2-0.7-0.1-0.9-0.3-1.8-0.3-1.8-0.7-3.4-0.3-0.9-0.5-1.6-0.1-0.4-0.3-0.8c0-0.1-0.1-0.2-0.1-0.3 0 0 0.2 0 0.1 0q-0.2 0-0.2-0.1l-0.1-0.2q-0.9-2.9-1.5-5.8-0.6-2.6-0.9-4.9c-0.5-2.9-0.8-5.3-0.1-6.8q0.1-0.2 0.3-0.4 0.2-0.2 0.5-0.3 0.4-0.1 0.7 0 0.3 0.1 0.6 0.3c0 0-0.2-0.1-0.6-0.3q-0.3-0.1-0.7 0-0.2 0.1-0.4 0.3-0.2 0.2-0.3 0.4c-0.7 1.5-0.3 3.8 0.2 6.8q1 5.3 2.5 10.5 0.1 0.1 0.1 0.1c0 0-0.1 0-0.1 0.1 0 0.1 0 0.2 0-0.1h0.1v0.1q0.2 0.2 0.2 0.4 0.2 0.4 0.3 0.8 0.3 0.8 0.5 1.6 0.4 1.6 0.8 3.4 0.2 0.9 0.3 1.8 0 0.3 0 0.5-0.1 0.3-0.2 0.5-0.3 0.5-0.5 0.9-1.2 1.6-2.6 3v-0.3l13.4 10.8-0.5 0.1c1.3-2.4 2.7-4.8 4.1-7.4v-0.1h0.1c1.9-0.7 3.6-1.8 5.1-3.1q1.1-1 2.1-2.2c0.6-0.8 1.2-1.7 1.7-2.6q3.6-5.3 7.3-11 1.8-2.8 3.6-5.7c0.6-1 1.2-2 1.7-3q0.2-0.4 0.4-0.8 0.2-0.4 0.3-0.8 0.1-0.3 0.1-0.7-0.1-0.4-0.3-0.7-0.2-0.2-0.5-0.3-0.4-0.1-0.7 0-0.8 0.3-1.3 0.9c-0.8 0.8-1.5 1.9-2.2 2.8-0.8 0.9-1.5 1.9-2.2 2.8q-0.6 0.7-1.2 1.4l-0.6 0.7q-0.3 0.4-0.8 0.7-0.2 0.1-0.5 0.1-0.3-0.1-0.5-0.3-0.2-0.2-0.3-0.4-0.1-0.3-0.1-0.5 0-0.3 0.2-0.5l0.2-0.4 0.4-0.6 1.8-2.5q1.6-2.6 3.1-5.1c1-1.7 2-3.5 2.9-5.2q0.3-0.6 0.4-1.2 0.1-0.7-0.1-1.3-0.3-0.6-0.8-1-0.5-0.4-1.2-0.5l-0.3-0.1 0.1-0.3q0.4-1.1 0.3-2.2 0-0.5-0.3-0.9-0.4-0.3-0.9-0.3c-0.7 0.1-1.4 0.4-1.9 0.9q-0.8 0.8-1.5 1.7l-5.2 7.5c-0.9 1.3-1.7 2.4-2.6 3.6l-0.7 0.9-0.3 0.4-0.2 0.2-0.3 0.3q-0.2 0.1-0.4 0.1-0.2 0-0.4-0.1-0.2 0-0.3-0.2-0.1-0.2-0.1-0.5 0-0.6 0.4-1.1c1.5-2.5 3-4.8 4.5-7.1q1.1-1.7 2-3.4 0.5-0.8 0.9-1.7l0.2-0.4q0-0.2 0-0.4 0-0.4-0.1-0.9-0.1-0.4-0.4-0.7-0.3-0.3-0.7-0.3c-0.6 0-1.1 0.2-1.5 0.5q-1.4 1.1-2.4 2.5c-2.7 3.9-4.9 7.7-7 11.2q-0.7 1.3-1.4 2.5-0.7 1.2-1.7 2.3-1.6 1.9-3.7 3.5-0.4 0.4-1 0.6-0.4 0.1-0.7 0-0.3-0.2-0.5-0.3-0.8-0.7-1.5-1.6-1.1-1.4-2-3.1-0.3-0.7-0.6-1.5c-0.1-0.4-0.2-0.9-0.3-1.2q-0.4-1-1-1.9-0.4-0.5-0.9-0.9-0.2-0.2-0.3-0.4z"/>
	<path class="s1" d="m622.7 140c-1.8 3.4-4 6.5-6.5 9.3-2.6 2.8-6.2 4.5-10 4.8"/>
	<path class="s0" d="m606.2 154.1c0-0.2 1.2-0.2 3.2-0.8 2.4-0.9 4.7-2.4 6.5-4.3q2.8-2.8 4.9-6.2 0.8-1.5 1.9-2.8-0.6 1.6-1.5 3c-1.3 2.4-2.9 4.5-4.8 6.5-1.9 2-4.3 3.4-6.9 4.2q-1.2 0.4-2.4 0.4-0.5 0.1-0.9 0z"/>
	<path class="s0" d="m624 149.7q-0.7 1.4-1.9 2.5c-3.3 3.8-7.7 6.5-12.5 7.8q-1.5 0.5-3.1 0.6c6.8-1.8 12.9-5.6 17.5-10.9z"/>
	<g style="opacity: .3">
		<path class="s2" d="m606.6 153.5c3.2 1.1 6.2 1.5 9.2 0.1 3.1-1.4 5.4-3.9 6.7-7.1 0.8-2.3 1-4.8 2-7 2.3-4.9 8.1-7.8 9.5-13-4.7 5.1-9.1 9.7-12.7 15.8-1.8 3-4 5.7-6.7 7.9-2.3 2-5.1 3.1-8.1 3.3"/>
	</g>
	<g style="opacity: .3">
		<path class="s2" d="m653.8 190.1l2.9 0.9c0 0 1.1-21.9-2-28.6z"/>
	</g>
	<path class="s8" d="m365.6 132.6l-8.4-46.8c-2.5-11.6 2.2-22.7 13.8-24.8l1.1-0.2c5.3-0.6 10.6 0.7 14.9 3.8 4.4 3.1 7.4 7.7 8.4 12.9 2.1 10.1 4.3 21.2 4.9 26.7 1.3 11.3-9.8 14.4-9.8 14.4 0 0 1.1 6.9 1.6 10.2l4 7.2-9.6-0.7z"/>
	<path class="s9" d="m390.6 118.6c-5.3 0.7-10.5-0.2-15.3-2.5 0 0 4.6 8.1 15.7 5.7z"/>
	<path class="s0" d="m392.4 88.5c0 0.4-0.1 0.9-0.3 1.2-0.3 0.4-0.6 0.6-1.1 0.6q-0.3 0.1-0.6 0-0.3 0-0.5-0.2-0.3-0.2-0.5-0.4-0.1-0.3-0.2-0.6c-0.1-0.4 0.1-0.9 0.3-1.2 0.3-0.3 0.6-0.6 1-0.6q0.4-0.1 0.7 0 0.3 0 0.5 0.2 0.3 0.2 0.5 0.4 0.1 0.3 0.2 0.6z"/>
	<path class="s0" d="m393.7 82.8c-0.2 0.3-1.5-0.5-3.2-0.3-1.8 0.2-2.9 1.3-3.1 1.1-0.3-0.2 0-0.5 0.5-1 0.7-0.6 1.6-1 2.5-1.1 0.9-0.1 1.8 0.1 2.6 0.5 0.6 0.4 0.8 0.7 0.7 0.8z"/>
	<path class="s0" d="m377 90.5c0.1 0.4 0 0.8-0.3 1.1-0.2 0.4-0.6 0.6-1 0.7q-0.3 0-0.6 0-0.3-0.1-0.6-0.3-0.2-0.1-0.4-0.4-0.2-0.3-0.2-0.6c-0.1-0.4 0-0.8 0.2-1.2 0.3-0.3 0.7-0.5 1.1-0.6q0.3-0.1 0.6 0 0.3 0.1 0.6 0.2 0.2 0.2 0.4 0.5 0.2 0.3 0.2 0.6z"/>
	<path class="s0" d="m376.8 85.3c-0.2 0.3-1.5-0.5-3.3-0.2-1.7 0.2-2.9 1.2-3.1 1-0.2-0.2 0-0.5 0.6-0.9 0.7-0.7 1.6-1.1 2.5-1.1 0.9-0.2 1.8 0 2.6 0.4 0.5 0.4 0.8 0.7 0.7 0.8z"/>
	<path class="s0" d="m384.6 97.9q1.4-0.6 2.8-0.9c0.4-0.1 0.8-0.2 0.9-0.5 0-0.5-0.2-0.9-0.5-1.3l-1.7-3.2c-2.4-4.6-4.2-8.3-4-8.4q2.6 3.8 4.7 8.1l1.6 3.2c0.4 0.5 0.5 1.1 0.5 1.7q-0.1 0.3-0.3 0.4-0.1 0.2-0.4 0.3-0.3 0.2-0.7 0.2-1.4 0.4-2.9 0.4z"/>
	<path class="s0" d="m376.7 79.9c-0.2 0.4-2 0.2-4 0.4-2.1 0.2-3.8 0.7-4 0.3-0.1-0.2 0.2-0.7 0.8-1.1 0.9-0.6 2-0.9 3-1 1.1-0.1 2.1 0.1 3.1 0.4 0.8 0.4 1.1 0.7 1.1 1z"/>
	<path class="s0" d="m393.1 77.7c-0.3 0.5-1.7 0.3-3.4 0.5-1.7 0.2-3.1 0.7-3.5 0.3-0.2-0.2 0-0.6 0.6-1.1 0.8-0.5 1.7-0.9 2.7-1 1-0.1 2 0 2.9 0.4 0.6 0.3 0.9 0.7 0.7 0.9z"/>
	<path class="s8" d="m359.1 94c-0.2 0-8-1.2-6.8 6.4 1.2 7.6 8.7 4.9 8.7 4.7 0-0.3-1.9-11.1-1.9-11.1z"/>
	<path class="s9" d="m358.2 102.5c0 0-0.2 0.1-0.4 0.3q-0.2 0.1-0.5 0.2-0.2 0-0.5-0.1c-0.5-0.2-1-0.6-1.3-1.1-0.4-0.4-0.6-1-0.7-1.6q-0.1-1 0.1-2 0.1-0.4 0.3-0.7 0.2-0.3 0.6-0.5 0.2-0.1 0.4 0 0.3 0 0.4 0.2c0.1 0.2 0.1 0.4 0.2 0.4 0 0 0.1-0.1 0-0.5q-0.1-0.2-0.4-0.4-0.2-0.1-0.4-0.1-0.2 0-0.4 0-0.5 0.2-0.8 0.6-0.3 0.3-0.4 0.8c-0.3 0.8-0.3 1.5-0.2 2.3 0.1 0.6 0.4 1.3 0.8 1.8 0.5 0.6 1.1 1 1.7 1.2q0.4 0 0.7-0.1 0.4-0.1 0.6-0.3c0.2-0.2 0.2-0.4 0.2-0.4z"/>
	<path class="s0" d="m379.4 99.8c0.3 0 0.6 1.8 2.3 2.8 1.7 0.9 3.6 0.4 3.6 0.7 0.1 0.2-0.3 0.4-1.1 0.5-1.1 0.2-2.1 0.1-3-0.5-0.9-0.5-1.6-1.3-1.8-2.2-0.2-0.8-0.1-1.2 0-1.3z"/>
	<path class="s0" d="m409.3 64.9c-0.2-0.4-0.6-0.8-1-0.9-1-0.3-2-0.3-3 0-2.5 0.3-4.9 0.1-7.3-0.7q1.1-0.8 1.9-1.8c0.5-0.7 0.9-1.5 1-2.4 0.1-0.9 0-1.8-0.4-2.6q-0.1-0.3-0.3-0.4-0.2-0.2-0.4-0.3c-0.6 0-0.9 0.5-1.2 1-0.4 0.6-0.9 1.2-1.5 1.6-0.7 0.4-1.4 0.6-2.1 0.6-1.1 0.1-2.1 0-3.1-0.4l-0.1-0.1-1.4-1c-2.6-2.1-5.6-3.7-8.8-4.6-4.7-1-9.5-0.6-14.1 1-3.7 1.7-6.7 5.4-6.6 9.5-2.6-1.5-5.8-1-8.3 0.5h-0.1c-2.8 1.5-4 4.9-4.4 8.1q0 0.2 0 0.5c-0.8 1.7-1.9 3.3-3.4 4.5-0.3 0.2-0.6 0.5-0.6 0.8 0 0.4 0.4 0.6 0.7 0.7 0.7 0.4 1.6 0.6 2.5 0.7q-0.2 1.1-0.7 2.2c-0.2 0.6-0.5 1.4-0.1 1.9q0.2 0.3 0.6 0.4 0.4 0.1 0.8 0 0.7-0.3 1.2-0.9-0.3 1.3-0.6 2.5c1.1 0.1 2.2-0.2 3.2-0.7 1.1 2.8 2.4 7.9 3.4 9.7 2-0.2 2.5-0.5 3.6-0.3 1.4 0.2 1.2 2.6 2.9 1.7 0.8-0.5 1.6-4 1.8-5 1-6.3 0.7-12.7-1-18.9 1-1.5 2.3-2.7 3.9-3.7l-0.2 0.1c3-1.6 6.4-3.2 9.6-2.2 2.5 0.8 4.2 3 6.3 4.6 1.7 1.5 3.7 2.7 5.9 3.4 2.2 0.6 4.5 0.9 6.8 0.6 1 3.3 1.9 8.8 2.6 12l1.7-6.8q0.3-0.6 0.4-1.2v-0.2c0.2-0.6 0.4-1.2 0.6-1.9 0.5 0.3 1 0.4 1.5 0.3 0.5 0 0.9-0.3 1.2-0.7 0.3-0.4 0.5-0.9 0.5-1.4-0.1-0.5-0.3-0.9-0.6-1.3q-0.5-0.5-1.2-0.8 0.7 0.5 1.6 0.6 0.8 0 1.5-0.3c0.5-0.2 0.9-0.6 1.2-1.1 0.2-0.5 0.3-1 0.2-1.6q-0.1-0.5-0.5-0.9-0.5-0.4-1-0.6c1.4-0.1 2.8-0.6 3.9-1.5 0.7-0.5 1.4-1.4 1-2.3z"/>
	<path class="s1" d="m364.5 64.1q-0.5 0.6-0.9 1.3c-0.8 1.2-1.2 2.6-1.2 4q-0.1 1.4 0.2 2.9c0.1 1 0.4 2.1 0.6 3.3q0.5 1.8 0.7 3.6 0.1 1 0 2c0 0.7-0.2 1.4-0.5 2q-0.3 0.4-0.7 0.6-0.4 0.2-0.8 0.2c-0.6 0-1.1-0.2-1.6-0.6-0.7-0.7-1.2-1.7-1.5-2.7h0.2q-0.3 1.4-1 2.5c-0.4 0.8-1.1 1.3-1.9 1.6q-0.6 0.1-1.2 0-0.5-0.2-0.9-0.7-0.3-0.4-0.4-0.9 0-0.5 0.2-1l0.2 0.1c-0.6 0.9-1.3 1.6-2.2 2.2q-0.3 0.2-0.7 0.4l-0.2 0.1q0.1-0.1 0.2-0.1 0.3-0.2 0.7-0.5 1.2-0.9 2-2.2l0.2 0.1q-0.3 0.4-0.2 0.9 0.1 0.4 0.4 0.8 0.3 0.4 0.8 0.6 0.5 0.1 1.1 0c0.7-0.3 1.4-0.8 1.8-1.5q0.7-1.2 1-2.5l0.1-0.4 0.1 0.4c0.3 1 0.8 1.8 1.5 2.5 0.4 0.4 0.8 0.5 1.4 0.6q0.3 0 0.7-0.2 0.3-0.2 0.5-0.5c0.3-0.6 0.5-1.2 0.5-1.9q0.1-1 0-1.9-0.2-1.9-0.6-3.7-0.5-1.7-0.7-3.3-0.2-1.4-0.1-2.9c0-1.5 0.5-2.9 1.2-4.1q0.4-0.6 1-1.1z"/>
	<path class="s1" d="m401 69.7h-0.1l-0.2 0.3q-0.2 0.2-0.5 0.4-0.3 0.2-0.6 0.4c-1.4 0.9-3 1.5-4.7 1.6-2.4 0.3-4.9-0.2-7.1-1.4-2.7-1.5-5-3.4-6.9-5.8-1-1.3-1.9-2.5-2.9-3.7q-1.3-1.8-3-3c-1-0.8-2.3-1.3-3.5-1.5q-0.9-0.1-1.8 0.1-0.8 0.1-1.5 0.5c-1.5 0.8-2.6 2.1-3.1 3.6q-0.3 0.9-0.4 1.8c0 0 0 0 0-0.1v-0.4q0.1-0.7 0.3-1.3 0.3-1 1-1.9c0.5-0.8 1.3-1.4 2.1-1.9q0.8-0.4 1.6-0.5 0.9-0.2 1.8-0.1c1.3 0.1 2.6 0.7 3.7 1.5q1.7 1.3 3.1 3c0.9 1.2 1.8 2.5 2.8 3.7 1.9 2.4 4.2 4.3 6.8 5.8 2.1 1.1 4.6 1.6 7 1.5 1.7-0.2 3.3-0.7 4.7-1.6 0.9-0.6 1.4-1.1 1.4-1z"/>
	<path class="s1" d="m401.3 64.5q-0.2 0.2-0.3 0.4-0.6 0.4-1.1 0.8-0.9 0.5-1.8 0.9-1.2 0.4-2.4 0.7-1.3 0.2-2.5 0.2-1 0-2-0.2-0.7-0.1-1.3-0.3-0.5-0.2-0.5-0.2c0-0.1 0.7 0.1 1.8 0.3q1 0.2 2 0.1 1.2 0 2.4-0.2 1.2-0.2 2.3-0.6 0.9-0.4 1.8-0.9c1-0.5 1.5-1 1.6-1z"/>
	<path class="s8" d="m506.9 207.1l4.4-0.7q2-2.1 4.5-3.6c2.5-1.4 4.7-1.4 5.3-0.2 0.3 0.6 0.4 1.4 0.2 2.1-0.2 0.7-0.6 1.3-1.2 1.7-1.2 1.2-6.1 2.5-6.4 4.6-0.3 2.1 15.5 8.8 15.5 8.8l-12.5 14.2-18.1-9.6-0.8-1.5-0.2-3.9z"/>
	<path class="s0" d="m380.8 246.2l5.4 64.5-1.8 11.2c0 0-22.4 64.3-21.9 91l26.2-1.3c0 0 25.5-72.8 27.5-80.8 2.1-8 12.3-61.9 12.3-61.9l17 42.6 0.5 9.9-9.8 61.7 30.4 1.6c0 0 12.5-70.1 11.2-79.2-1.2-9-21.3-80.1-21.3-80.1l-10.4-9-59.1 10z"/>
	<path class="s0" d="m463.8 365.9l-0.9 25.8c0 0 24.6 9.8 24.9 14.6l-47.7-0.1-0.1-40.4z"/>
	<path class="s6" d="m448.2 389.5c-0.5 0.2-0.9 0.5-1.2 0.9-0.2 0.5-0.3 1-0.2 1.5 0.1 0.4 0.4 0.9 0.8 1.1 0.4 0.3 0.9 0.4 1.4 0.3 0.5-0.2 0.9-0.5 1.2-1 0.2-0.5 0.3-1 0.2-1.5-0.3-1-1.6-1.7-2.4-1.3"/>
	<path class="s1" d="m440.1 406.2l0.2-4.1 45.6 1.6c0 0 2.1 0.9 1.9 2.5z"/>
	<path class="s7" d="m463.7 391.5c0 0.2-1.2 0.3-2.4 1.1-1.1 0.8-1.7 1.8-1.9 1.7-0.2-0.1 0.1-1.5 1.5-2.4 1.4-0.9 2.8-0.6 2.8-0.4z"/>
	<path class="s7" d="m468.7 393.7c0 0.2-1 0.6-1.8 1.7-0.8 1-1 2.1-1.2 2.1-0.3 0-0.4-1.4 0.6-2.7 1-1.2 2.3-1.3 2.4-1.1z"/>
	<path class="s7" d="m471.5 400c-0.2 0-0.6-1.2 0-2.5 0.6-1.3 1.7-1.9 1.8-1.7 0.1 0.2-0.5 0.9-1 2-0.5 1.2-0.6 2.2-0.8 2.2z"/>
	<path class="s7" d="m463.3 385.6c-0.1 0.2-1.2-0.1-2.6 0-1.3 0.1-2.3 0.5-2.5 0.3-0.1-0.2 0.9-1.1 2.5-1.2 1.5-0.1 2.7 0.7 2.6 0.9z"/>
	<path class="s0" d="m386.1 393.1l0.2 29.7 6.9 23.5q0.2 0.6 0.1 1.2 0 0.7-0.4 1.2-0.3 0.5-0.8 0.9-0.5 0.4-1.1 0.5-0.8 0.2-1.5 0-0.7-0.2-1.2-0.7c-4.7-4.2-21.8-19.8-21.6-22 0.1-2.5-2.3-31.3-2.3-31.3z"/>
	<path class="s1" d="m391 450.1l-24.4-24.7v1.3c0 1.1 0.4 2.1 1.2 2.9 1.9 2.2 7.4 8 20.3 19.8q0.6 0.5 1.3 0.7 0.8 0.2 1.5 0z"/>
	<g style="opacity: .6">
		<path class="s7" d="m372.4 415.7c0.4 0.2 0.7 0.6 0.8 1.1 0.1 0.4 0 0.9-0.2 1.3-0.2 0.3-0.6 0.6-1.1 0.7-0.4 0.1-0.9 0.1-1.3-0.2-0.4-0.2-0.6-0.6-0.7-1.1-0.1-0.5-0.1-0.9 0.1-1.4 0.3-0.3 0.8-0.6 1.2-0.6 0.5-0.1 1 0 1.4 0.3"/>
	</g>
	<path class="s7" d="m383.8 437.4c0.2 0 0.8-1.6 2.5-2.4 1.1-0.5 2.2-0.8 3.4-0.8 0-0.1-0.3-0.3-1-0.4-1 0-1.9 0.2-2.7 0.6-0.8 0.4-1.5 1.1-1.9 1.9-0.4 0.6-0.4 1-0.3 1.1z"/>
	<path class="s7" d="m386 441.3q1.3-0.8 2.6-1.4 1.5-0.3 2.9-0.5-0.7-0.4-1.5-0.4-0.8 0-1.6 0.3c-1.7 0.5-2.5 1.9-2.4 2z"/>
	<path class="s7" d="m379.7 432.4q1.9-1.4 3.9-2.4 2.1-0.7 4.4-1.2c-1.6-0.2-3.2 0-4.7 0.6-1.4 0.6-2.7 1.7-3.6 3z"/>
	<path class="s7" d="m378.9 423.3c0.1 0.2 1.7-0.5 3.8-0.7 2.2-0.1 3.9 0.4 4 0.2-1.2-0.8-2.6-1-4-0.8-1.4 0-2.7 0.5-3.8 1.3z"/>
	<path class="s7" d="m378.6 414.6q2-0.7 4-0.8 2.1 0.1 4 0.9c0-0.1-0.3-0.5-1-0.8-0.9-0.5-2-0.8-3-0.8-1 0-2 0.3-3 0.8-0.7 0.3-1 0.6-1 0.7z"/>
	<path class="s1" d="m351.7 134.1c0 0-16 9.6-4.4 32.6 14.1 28.1 27.5 67.7 32.2 70.3 1.8 1.1 10.7-3.4 10.7-3.4l7-13-18.6-48.6-12.2-28.2z"/>
	<path class="s1" d="m363.3 126.6l-11.6 7.5 30.8 54.4-4.5 48.5 7 4 71.9-10 2.4-3.2-7.9-22.9-10.5-25.6c0 0-10.5-23.3-16.6-33.2-6.1-9.9-12.7-19.9-12.7-19.9l-17.6-1.3-2.2-2.4c0 0-2.7 4.8-9.9 5.3-5.9 0.3-18.4-2.9-18.4-2.9z"/>
	<path class="s1" d="m506.9 207.1c0 0-42.2-33.8-45.6-37.8-3.5-3.9-32.8-34.8-32.8-34.8 0 0-10.8-10.3-16.9-8.3-7.6 2.5 7.5 38.8 7.5 38.8 0 0 31.1 25.7 36.1 30.6 5 4.9 35.3 24.4 35.3 24.4l7.2-1z"/>
	<path class="s0" d="m370 155.8q0.2 0.3 0.3 0.7 0.4 0.7 0.8 1.8c0.7 1.7 1.7 4.1 2.9 7 2.6 5.8 6.1 13.8 10.1 22.7 4 8.9 7.4 17 9.7 22.9 1.1 3 2 5.4 2.5 7.1q0.4 1.1 0.7 1.9 0.1 0.3 0.2 0.7-0.2-0.3-0.3-0.6l-0.8-1.9c-0.6-1.7-1.6-4.1-2.8-7-2.4-5.9-5.8-14-9.8-22.8-4-8.9-7.6-16.9-9.9-22.8-1.2-3-2.1-5.4-2.7-7.1q-0.4-1.1-0.7-1.9-0.1-0.3-0.2-0.7z"/>
	<path class="s0" d="m421.7 142.1c0 0 0.1 0.1 0.4 0.3q0.5 0.6 0.9 1.3c0.7 1.1 1.7 2.7 2.9 4.8 2.2 4.1 5.1 9.8 8.3 16.3 3.1 6.4 5.8 12.3 7.7 16.6 0.9 2.1 1.7 3.9 2.2 5.1q0.4 0.9 0.7 1.9-0.5-0.9-0.9-1.8l-2.4-5-7.9-16.6c-3.1-6.4-6-12.2-8.2-16.4-1-2.1-1.9-3.7-2.6-4.8-0.7-1.1-1.2-1.7-1.1-1.7z"/>
	<g style="opacity: .3">
		<path class="s2" d="m379.7 178.8c0 0-3-16.7-1.3-26.5 1.7-9.8 6.7-24 6.7-24l8.8-3.8 45.8 22.3 3.4 4.1-6.1 19.2 4.5 35.2z"/>
	</g>
	<path fill-rule="evenodd" class="s3" d="m390.7 149.5c3.4-63 38.8-96.9 83.7-94.5 45.1 2.5 76.3 40 72.9 103-3.4 63-38.5 96.9-83.7 94.5-44.9-2.5-76.4-40-72.9-103zm114.1 6.2c2.3-43.4-11.4-62.2-32.5-63.3-20.9-1.2-36.5 16.1-38.8 59.4-2.4 43.3 11.3 62.1 32.1 63.3 21.2 1.1 36.8-16.1 39.2-59.4z"/>
	<g style="opacity: .3">
		<path fill-rule="evenodd" class="s2" d="m390.7 149.5c3.4-63 38.8-96.9 83.7-94.5 45.1 2.5 76.3 40 72.9 103-3.4 63-38.5 96.9-83.7 94.5-44.9-2.5-76.4-40-72.9-103zm114.1 6.2c2.3-43.4-11.4-62.2-32.5-63.3-20.9-1.2-36.5 16.1-38.8 59.4-2.4 43.3 11.3 62.1 32.1 63.3 21.2 1.1 36.8-16.1 39.2-59.4z"/>
	</g>
	<path fill-rule="evenodd" class="s3" d="m377.7 149.5c3.5-63 38.8-96.8 83.7-94.4 45.2 2.5 76.4 40 73 103-3.5 63-38.6 96.9-83.7 94.4-44.9-2.5-76.4-40-73-103zm114.1 6.3c2.4-43.3-11.3-62.1-32.4-63.3-20.9-1.1-36.5 16.1-38.9 59.4-2.3 43.4 11.3 62.2 32.2 63.3 21.1 1.1 36.7-16.1 39.1-59.5z"/>
	<path class="s8" d="m425.2 244.8l-7.8-4.8c0 0-8-5.2-8.5-6-0.6-1.3-0.9-2.7-1-4.1 0-1.2 3.6-3.8 4-6 0.4-2.2-2-4.4-2.8-4.8-0.9-0.4-1.7 1-1.9 1.9-0.2 1-1.6 2.5-3.9 3-2.2 0.5-5.3 3.4-5.3 3.4l-6.8 12.7c1.2 2.2 15 7.3 15.4 7.6 0.5 0.2 15.2 0.5 16.7 0q0.5-0.1 0.9-0.4 0.4-0.2 0.7-0.6 0.2-0.5 0.3-0.9 0.1-0.5 0-1z"/>
	<path class="s8" d="m535.1 218.3c0.1 2.1-4.2 2-4.2 2 0.5 1-1.7 3.6-3.2 3 0.4 0.7 0.8 1 0.7 1.8q0 0.7-0.3 1.2-0.4 0.6-0.9 0.9c-0.4 0.2-0.8 0.3-1.2 0.3-0.4-0.1-0.8-0.2-1.1-0.5 0.1 0.6 0.1 1.3-0.2 1.9-0.2 0.6-0.6 1.1-1.2 1.5-0.6 0.4-1.4 0.5-2.2 0.4q-0.6-0.1-1.1-0.4-0.2-0.1-0.4-0.2 0-0.1-0.1-0.2c-0.1-0.3-0.1-0.6-0.2-0.9l-0.2-0.4q-0.3-0.7-0.9-1.3-0.3-0.3-0.5-0.6-0.1-0.2-0.2-0.5c-0.5-0.9-1.2-1.7-2.1-2.4-0.9-0.7-1.6-1.7-2-2.8-0.2-0.6-0.1-1.2 0.1-1.7 0.3-0.5 0.8-0.9 1.3-1.1-0.3-0.2-0.5-0.6-0.5-0.9-0.1-0.4-0.1-0.8 0.1-1.1q0.3-0.5 0.8-0.8 0.6-0.2 1.1-0.2c0.8 0 1.5 0.2 2.1 0.6-0.3-0.3-0.4-0.7-0.4-1.2 0-0.4 0.1-0.8 0.4-1.1q0.5-0.5 1.2-0.7 0.6-0.1 1.3 0c0.8 0.3 1.6 0.7 2.3 1.3 0.7 0.5 3.6 2.7 4.4 3.2l1.8-1.7 0.2-0.3c1.5 0.6 2 0.6 3.3 1.2 1.1 0.3 1.9 0.8 2 1.7z"/>
	<path class="s8" d="m518.6 233.1q-0.4 0.4-0.9 0.6-0.4 0.3-1 0.3c-1-0.3-2-0.9-2.6-1.7l1.5-2 0.4-0.4c0.1-0.6-0.7-1.3-1-1.8-0.2-0.4-0.2-0.9 0-1.4 0.2-0.5 0.5-0.9 1-1.1q0.7-0.3 1.4-0.1 0.8 0.1 1.3 0.6c0.8 0.7 1.2 1.6 1.3 2.6q0.1 1.2-0.3 2.4-0.3 1.1-1.1 2z"/>
	<path class="s9" d="m525.1 227.2q-2.1-2.6-4.8-4.7-2.4-2.4-5.2-4.2c3 3.3 6.4 6.3 10 8.9z"/>
	<path class="s9" d="m527.9 223.4c-1.2-1.7-2.6-3.1-4.3-4.3-1.5-1.4-3.2-2.5-5.1-3.4q2.2 2.1 4.7 3.9 2.2 2.1 4.7 3.8z"/>
	<path class="s9" d="m530.6 219.8c-1-1.4-2.2-2.6-3.7-3.5q-1.9-1.6-4.2-2.8 1.7 2 3.8 3.3 1.9 1.7 4.1 3z"/>
	<path class="s9" d="m519.3 231.7c0 0.1 0.4-0.2 0.7-0.9 0.3-1 0.2-2-0.3-2.9q-0.6-1.3-1.6-2.2c-0.7-0.6-1.3-0.3-1.2-0.2 0.1 0.1 0.4 0.1 0.9 0.5q0.7 1.1 1.3 2.2c0.4 0.8 0.5 1.6 0.4 2.4-0.1 0.7-0.3 1-0.2 1.1z"/>
	<path class="s0" d="m241.6 379.2l-4 23.9c0 0 23.9 9.8 24.1 14.5l-46.6-0.7 5.9-39.3z"/>
	<path class="s6" d="m223.2 400.8c-0.5 0.2-0.9 0.5-1.1 0.9-0.3 0.4-0.4 0.9-0.3 1.4 0.1 0.4 0.4 0.9 0.8 1.1 0.4 0.3 0.9 0.4 1.3 0.3 0.5-0.2 1-0.5 1.2-0.9 0.3-0.5 0.4-1 0.3-1.5q-0.1-0.4-0.4-0.7-0.2-0.3-0.5-0.4-0.4-0.2-0.8-0.2-0.3-0.1-0.7 0"/>
	<path class="s1" d="m215.1 416.9l0.6-3.9 44.2 2.1c0 0 2.1 1 1.8 2.5z"/>
	<path class="s7" d="m238.3 402.9c0 0.2-1.1 0.3-2.3 1.1-1.1 0.8-1.7 1.7-1.9 1.6-0.2-0.1 0.1-1.4 1.5-2.3 1.4-0.9 2.8-0.6 2.7-0.4z"/>
	<path class="s7" d="m243.2 405.1c0 0.2-1 0.6-1.8 1.6-0.8 1-1 2.1-1.2 2.1-0.3 0-0.4-1.4 0.6-2.6 1-1.2 2.4-1.3 2.4-1.1z"/>
	<path class="s7" d="m245.9 411.3c-0.3 0-0.5-1.1 0.1-2.5 0.6-1.3 1.6-1.8 1.7-1.6 0.1 0.2-0.6 0.9-1 2-0.5 1.1-0.6 2.1-0.8 2.1z"/>
	<path class="s7" d="m238 397.1c-0.1 0.2-1.1-0.1-2.4 0-1.3 0-2.3 0.4-2.4 0.2-0.1-0.2 0.9-1 2.4-1.1 1.5 0 2.4 0.7 2.4 0.9z"/>
	<path class="s0" d="m174.3 383l-12.4 22.1c0 0 17.1 19.4 15.2 23.7l-41.4-21.4 17.9-35.1z"/>
	<path class="s6" d="m150.1 396.6c-0.5-0.1-1 0-1.4 0.3-0.4 0.3-0.7 0.7-0.8 1.1-0.1 0.5-0.1 1 0.2 1.4 0.2 0.4 0.6 0.7 1.1 0.8 0.5 0.1 1 0 1.4-0.3 0.4-0.3 0.7-0.7 0.9-1.2 0.1-1-0.6-2.2-1.6-2.1"/>
	<path class="s1" d="m135.7 407.4l1.9-3.4 39 21.8c0 0 1.4 1.8 0.5 3z"/>
	<path class="s7" d="m162.7 405.2c-0.1 0.2-1.2-0.2-2.5 0-1.4 0.2-2.4 0.8-2.5 0.6-0.2-0.1 0.8-1.2 2.4-1.4 1.6-0.2 2.7 0.6 2.6 0.8z"/>
	<path class="s7" d="m166.1 409.4c-0.1 0.2-1.2 0.1-2.3 0.6-1.2 0.6-1.9 1.5-2 1.3-0.2-0.2 0.2-1.4 1.7-2 1.4-0.7 2.7-0.1 2.6 0.1z"/>
	<path class="s7" d="m165.7 416.1c-0.2 0 0-1.2 1.2-2.1 1.2-0.9 2.3-0.9 2.3-0.7 0 0.2-0.9 0.6-1.8 1.3-1 0.7-1.5 1.6-1.7 1.5z"/>
	<path class="s7" d="m165 399.9c-0.2 0.1-1-0.6-2.2-1.1-1.2-0.5-2.2-0.6-2.2-0.9-0.1-0.2 1.2-0.5 2.6 0.1 1.4 0.6 2 1.8 1.8 1.9z"/>
	<path class="s0" d="m203.1 236.8c0 0 8.3 80.5 5.9 89.8-2.5 9.3-42.4 80.5-42.4 80.5l-27.5-15.3c0 0 33.5-64.4 33.1-67.2-0.5-2.7 0.9-10.4 0.9-10.4l-18.5-61.8 3.7-26.5 32.6-3.3z"/>
	<path class="s0" d="m181.3 267.1c0.8 2.5 45.1 53.1 45.1 53.1-0.2 1.1 0 2.2 0.5 3.2 1 1.2 2.3 2.1 3.8 2.6l-17.6 72.9 30.7 2.8c0 0 18.4-72.8 17.6-82.1-0.7-9.2-44.6-80.5-44.6-80.5l-31.4-1.7z"/>
	<path class="s1" d="m203.9 254.4q0 1-0.3 2-0.3 2.7-0.2 5.5 0.8 9.1 2.7 18 1.9 9 2.8 18.1 0.2 2.8-0.1 5.5-0.2 1.1-0.5 2 0-1 0.2-2 0.1-2.7-0.1-5.5c-0.4-4.6-1.6-11-2.9-18q-2-9-2.5-18.1-0.1-2.8 0.3-5.6 0.2-1 0.6-1.9z"/>
	<path class="s4" d="m269.6 130.3c0 0 5.6-9 10.7-9.8 5.1-0.8 14 0 14 0l-4.8 19.4-10.6 1.8z"/>
	<path class="s1" d="m187.6 145.1l39.8 2.4 40.7-18.9 12.6 15.4-49.9 26.5-27.6 3.5z"/>
	<path class="s3" d="m311.4 186.2l-31.6-5.5-7.1 40.7-43.7-7.7 7.1-40.6-104.2-18.3 5.3-30.1 112.7-106.9 47.1 8.3-105.1 101.6 52 9.1 6.4-36.2 42.3 7.4-6.3 36.2 31.5 5.5z"/>
	<g style="opacity: .3">
		<path class="s2" d="m311.4 186.2l-31.6-5.5-7.1 40.7-43.7-7.7 7.1-40.6-104.2-18.3 5.3-30.1 112.7-106.9 47.1 8.3-105.1 101.6 52 9.1 6.4-36.2 42.3 7.4-6.3 36.2 31.5 5.5z"/>
	</g>
	<path class="s3" d="m300.7 184.8l-31.5-5.6-7.1 40.7-43.8-7.7 7.2-40.6-104.3-18.3 5.3-30.1 112.8-106.9 47 8.3-105.1 101.6 52 9.1 6.3-36.2 42.3 7.4-6.3 36.2 31.5 5.5z"/>
	<g style="opacity: .3">
		<path class="s2" d="m206.5 165.5c0 0-4.6-12.3-8.6-17q-4.6-5.6-8.5-11.6l20.3-9-10.6-8.1-17.9 8.2-1 16 21.5 22.5z"/>
	</g>
	<path class="s0" d="m191.7 84.2c2 1.7 3.6 3.9 4.6 6.3 1 2.5 1.5 5.1 1.2 7.8-0.2 2.5-1 5.5 0.6 7.4 1.7 2 4.9 2 6.4 4 1.9 2.4 0.2 5.9 0.8 8.8 0.4 1.4 1.2 2.6 2.3 3.5 1.2 0.8 2.6 1.2 4 1.1-3.3 2.6-7.3 4.2-11.6 4.7l-3.1-4.2c0.5 0.8 0.8 1.8 0.7 2.7-0.1 1-0.4 1.9-1.1 2.6-1.3 1.4-3 2.3-4.9 2.7-4.4 1.3-9 1.5-13.4 0.7-4.5-0.8-8.7-2.7-12.3-5.4"/>
	<path class="s0" d="m143 105.9q1.3-2.8 2.2-5.8c1.1-4.3-1-9.2 1.2-13.1 1.6-2.8 4.8-4.1 7.9-4.9 3-0.9 6.2-1.6 8.6-3.8 1.7-1.6 2.6-3.8 4.3-5.4 2.4-2.3 5.9-3 9.2-3.2 3.4-0.2 6.8 0.4 9.9 1.8 1.6 0.8 2.9 1.9 3.9 3.2 1.1 1.4 1.8 2.9 2.1 4.6q0 2.5 0.5 5c0.5 1.7 1.9 3.1 2.7 4.7 0.8 1.8 1 3.7 0.5 5.6-0.4 1.9-1.4 3.6-2.9 4.8l-23.9 29.6c-4.9 1.8-16.7-0.7-20.4-4.4-3.7-3.7-7.5-13.8-5.8-18.7z"/>
	<path class="s4" d="m192.5 95.6c-0.8-6.9-5.8-15.1-12.6-13.9l-21.1 6.6c-1 0.1-1.9 0.7-2.5 1.5-0.7 0.8-1 1.8-0.9 2.8l5.2 49.5c0 0-1.5 1.3-2.6 0.9q0-0.1-0.1-0.1-0.1 0.1-0.2 0.1 0 0.1 0 0.2 0 0.1 0 0.2c2.4 3.7 14 19.9 26.4 15.2 2.7-1-0.1-9.7 0.3-12.9l-0.2-8.1c-0.2-4.2-0.3-5.9-0.3-5.8 0 0 8.7-2 9.8-13.6 0.6-5.7-0.2-15-1.2-22.6z"/>
	<path class="s0" d="m190.9 106c0 0.4-0.1 0.8-0.4 1-0.2 0.3-0.6 0.5-1 0.5q-0.3 0.1-0.5 0-0.3-0.1-0.5-0.2-0.3-0.2-0.4-0.5-0.1-0.2-0.1-0.5c-0.1-0.4 0-0.8 0.3-1.1 0.2-0.3 0.6-0.4 1-0.5q0.3 0 0.5 0.1 0.3 0 0.5 0.2 0.3 0.2 0.4 0.5 0.1 0.2 0.2 0.5z"/>
	<path class="s0" d="m176.6 106.7c0 0.3-0.1 0.7-0.4 1-0.2 0.3-0.6 0.5-0.9 0.5q-0.3 0.1-0.6 0-0.3-0.1-0.5-0.3-0.2-0.2-0.4-0.4-0.1-0.3-0.1-0.5c-0.1-0.4 0.1-0.8 0.3-1.1 0.3-0.3 0.6-0.5 1-0.5q0.3-0.1 0.6 0 0.2 0.1 0.5 0.3 0.2 0.2 0.3 0.4 0.2 0.3 0.2 0.6z"/>
	<path class="s0" d="m191.5 101.2c-0.2 0.3-1.5-0.6-3.2-0.4-1.7 0.2-2.9 1.4-3.1 1.1-0.2-0.2 0-0.5 0.5-1 0.7-0.7 1.5-1.2 2.4-1.3 1-0.1 1.9 0.1 2.6 0.6 0.6 0.5 0.9 0.9 0.8 1z"/>
	<path class="s0" d="m176.1 102.2c-0.2 0.3-1.5-0.7-3.3-0.7-1.9 0.1-3.2 1.1-3.4 0.8-0.2-0.2 0.1-0.5 0.7-1 0.7-0.6 1.7-0.9 2.7-0.9 0.9 0 1.9 0.3 2.6 0.8 0.6 0.4 0.8 0.9 0.7 1z"/>
	<path class="s0" d="m181.7 113.1q1.2-0.4 2.5-0.6c0.4-0.1 0.8-0.2 0.8-0.4q0-0.7-0.3-1.2l-1.4-3q-1.9-3.8-3.1-7.9 2.2 3.6 3.7 7.6l1.4 3c0.2 0.5 0.3 1.1 0.3 1.6q-0.1 0.2-0.3 0.4-0.2 0.2-0.4 0.2-0.3 0.1-0.7 0.2-1.2 0.2-2.5 0.1z"/>
	<path class="s5" d="m183.8 131.8c-5.4 0.3-10.8-0.8-15.5-3.3 0 0 4.3 7.9 15.7 6.1z"/>
	<path class="s5" d="m176.8 117.6q0.3-0.6 0.8-0.9c0.4-0.2 0.9-0.3 1.4-0.1 0.6 0.1 1.3 0.4 1.7 0.9q0.4 0.4 0.5 0.9 0.1 0.5-0.1 1c-0.1 0.7-1.1 1-1.8 1.1-0.7 0.1-1.4-0.1-2-0.4q-0.4-0.2-0.6-0.5-0.3-0.4-0.4-0.8 0.1-0.6 0.5-1.2z"/>
	<path class="s0" d="m177.1 115.4c0.3 0 0.4 1.7 1.9 2.8 1.6 1.2 3.4 0.9 3.4 1.1 0 0.2-0.4 0.4-1.2 0.4-1 0.1-2-0.2-2.8-0.8-0.7-0.5-1.3-1.4-1.5-2.3-0.1-0.8 0.1-1.2 0.2-1.2z"/>
	<path class="s0" d="m176.1 97.2c-0.1 0.4-1.7 0.3-3.6 0.7-1.8 0.3-3.3 0.9-3.5 0.5-0.2-0.2 0.1-0.6 0.7-1 0.7-0.6 1.6-1 2.6-1.1 0.9-0.2 1.9-0.1 2.8 0.1 0.7 0.2 1.1 0.6 1 0.8z"/>
	<path class="s0" d="m190.3 94.5c-0.3 0.4-1.5 0.1-3.1 0.1-1.5 0.1-2.7 0.4-3 0-0.3-0.4 0-0.5 0.6-0.9 0.7-0.5 1.6-0.7 2.5-0.7 0.8-0.1 1.7 0.1 2.5 0.6 0.4 0.3 0.6 0.7 0.5 0.9z"/>
	<path class="s0" d="m154.1 89.8c1.3-1.5 3-2.5 4.9-3 7.8-2.9 16-4.8 24.3-5.7 1 1.7 0 4-1.6 5.2-1.6 1.1-3.5 1.8-5.4 2.3q-1.5 0.4-2.7 1.3-1.2 0.9-1.9 2.2c-0.9 2-0.3 4.3-1 6.3-1.3 3.4-6.1 4.4-7.4 7.8-1 2.6 0.5 5.4 0.8 8.2 0.2 1.3 0 2.8-0.4 4.1-0.4 1.3-1.1 2.6-2 3.6-1 1-2.1 1.9-3.4 2.4-1.3 0.6-2.7 0.9-4.1 0.9q-0.6-14.8-1.1-29.6c-0.1-2.1-0.1-4.3 1-6z"/>
	<path class="s0" d="m133.8 114.3c1.6-1.4 3.5-2.5 4.2-4.5 1-2.9-1.2-6.3 0.3-9 1.4-2.4 5.4-2.2 6.7-4.6 1.1-1.9-0.1-3.6 0.3-5.3 0.4-0.9 1-1.6 1.9-2.2 0.8-0.5 1.7-0.7 2.7-0.7l13 19.8c1.2 6.5 2.4 10 0.9 13.8q-1.5 3-2.2 6.2c-0.3 1.1-0.2 2.3 0.1 3.3 0.4 1.1 1 2.1 1.8 2.8-8 0.5-15.5-3.9-22.3-8.1l-7.3-4.4c-0.8-0.4-1.5-1-2-1.7-1-1.8 0.4-4 1.9-5.4z"/>
	<path class="s1" d="m141.1 123.9q0.4 0.2 0.8 0.2 1.3 0.2 2.5-0.1c1.3-0.3 2.5-0.9 3.5-1.8 1.4-1.3 2.2-2.9 2.4-4.7q0.2-1.5-0.2-3.1-0.5-1.6-1.4-3-1-1.4-1.5-3.1-0.2-0.9-0.1-1.8 0.1-0.9 0.6-1.6c0.8-1 2.1-1.2 3.4-1.7 0.7-0.2 1.3-0.6 1.7-1.2 0.4-0.6 0.7-1.4 0.6-2.1q-0.2-2.1-0.8-4.2-0.2-1 0-2.1c0.2-0.6 0.6-1.2 1.2-1.6 1.2-0.7 2.6-1 4.1-1 1.4 0 2.9-0.4 4.1-1.1 1.2-0.7 2.2-1.8 2.9-3q0.9-1.8 1.1-3.8 0.3-1.9 0.9-3.6c0.4-1.1 1.1-2.1 1.9-2.8 1.4-1.3 3.2-2.2 5.1-2.4 1.9-0.2 3.8 0.2 5.5 1.1 1.1 0.6 2.2 1.4 3 2.4q1.1 1.3 1.9 2.8 0 0 0-0.2c0-0.1-0.1-0.4-0.3-0.6q-0.5-1.1-1.4-2.1c-0.8-1-1.8-1.9-3-2.5-1.6-0.9-3.3-1.3-5.1-1.3-2.2 0.2-4.3 1.1-5.9 2.5-0.9 0.9-1.6 1.9-2 3q-0.7 1.8-0.9 3.6-0.3 2-1.1 3.7c-0.6 1.2-1.6 2.2-2.7 2.9-1.3 0.7-2.6 1-4 1-1.5 0-3 0.4-4.3 1.1-0.7 0.5-1.2 1.1-1.4 1.9q-0.2 1.1 0 2.2 0.6 2.1 0.8 4.2c0.1 0.6-0.1 1.3-0.5 1.8-0.4 0.5-0.9 0.9-1.5 1.1-0.6 0.2-1.3 0.4-1.9 0.6-0.6 0.3-1.2 0.7-1.7 1.2q-0.5 0.8-0.7 1.8-0.1 1 0.2 2 0.5 1.7 1.5 3.2 0.9 1.3 1.4 2.9c0.4 1.3 0.4 2.7 0.1 4-0.4 1.3-1.1 2.5-2.1 3.4-0.9 0.9-2.1 1.6-3.4 1.9-1.1 0.2-2.2 0.2-3.3 0z"/>
	<path class="s0" d="m130.6 109.9q-0.2 0.3-0.3 0.6c-0.1 0.7 0 1.4 0.3 2q0.4 0.7 1 1.1 0.8 0.5 1.8 0.5c0.7 0 1.4-0.2 2-0.6 0.7-0.4 1.2-0.9 1.5-1.6 0.4-0.7 0.6-1.5 0.6-2.4q0-1.4-0.5-2.7c-0.6-1.7-1.7-3.4-1.7-5.4q0-0.8 0.2-1.5 0.3-0.7 0.8-1.3c0.8-0.6 1.9-1 2.9-0.8q1.8 0.1 3.5-0.3c0.6-0.3 1.1-0.7 1.5-1.2q0.5-0.8 0.6-1.8 0.1-1.8-0.2-3.5c-0.2-1.1-0.1-2.3 0.2-3.3 0.6-2.1 2-3.8 3.9-4.9 1.7-0.8 3.6-1.2 5.6-1.1q2.6 0 5-0.7c1.4-0.5 2.6-1.3 3.7-2.2q1.2-1.1 2-2.6 0.7-1.1 1-2.5-0.4 1.3-1.1 2.5c-1.3 2.1-3.3 3.6-5.7 4.4q-2.4 0.7-5 0.7c-2-0.1-4 0.3-5.8 1.1-1.9 1.1-3.4 2.9-4 5.1-0.4 1.1-0.5 2.3-0.3 3.5q0.3 1.7 0.2 3.4c0 0.6-0.2 1.1-0.5 1.5q-0.5 0.7-1.3 1.1-1.6 0.4-3.3 0.2c-1.2-0.1-2.3 0.3-3.2 1q-0.6 0.7-0.9 1.5-0.3 0.8-0.2 1.6 0 1.6 0.6 3c0.4 0.9 0.8 1.8 1.1 2.6q0.5 1.2 0.5 2.5c0 0.8-0.1 1.6-0.5 2.3-0.3 0.6-0.8 1.1-1.4 1.5-0.5 0.4-1.2 0.6-1.9 0.6q-0.6 0-1.2-0.3-0.6-0.2-1-0.7-0.4-0.5-0.6-1.1-0.2-0.6-0.1-1.2 0.1-0.3 0.2-0.6z"/>
	<path class="s0" d="m215.1 116.3c0.3 0.7 0.3 1.4 0 2.1q-0.2 0.6-0.6 1.1-0.5 0.4-1.1 0.6-0.8 0.2-1.6 0-0.8-0.3-1.3-0.9c-0.4-0.4-0.6-1-0.7-1.7q0-1 0.4-2c0.7-1.4 1.1-3 1.2-4.6q0-1.4-0.6-2.6-0.7-1.2-1.7-2.1-1.1-0.9-2.5-1.3-1.4-0.5-2.9-0.5-1.4 0-2.8-0.3c-0.8-0.2-1.6-0.7-2.1-1.4-0.5-0.7-0.7-1.6-0.7-2.4q-0.1-1.3 0.2-2.5 0.7-2.3 0.9-4.7c-0.1-1.4-0.6-2.8-1.4-4q-1.1-1.3-2.6-2.2-1.1-0.7-2-1.5-0.8-0.7-1.3-1.7c0 0 0 0 0 0.1q0.1 0.2 0.2 0.4 0.3 0.8 0.9 1.3 1 0.9 2.1 1.6 1.4 0.9 2.4 2.2c0.8 1.2 1.2 2.5 1.3 3.8q-0.2 2.4-0.9 4.6-0.3 1.3-0.3 2.6c0.1 0.9 0.3 1.8 0.9 2.6 0.5 0.8 1.4 1.4 2.3 1.6q1.5 0.3 2.9 0.3 1.4 0.1 2.7 0.5 1.3 0.4 2.4 1.2 1 0.9 1.5 2 0.6 1.1 0.7 2.4c0.1 1.6-0.7 3-1.3 4.4q-0.3 1.1-0.3 2.2c0 0.7 0.3 1.4 0.8 1.9 0.4 0.5 0.9 0.8 1.5 0.9 0.5 0.2 1.2 0.2 1.7 0q0.7-0.2 1.1-0.7 0.5-0.5 0.7-1.1c0.2-0.6 0.2-1.1 0.1-1.7q0-0.2-0.2-0.5z"/>
	<path class="s4" d="m297.2 119.6c1.2 1.7-2.3 3.7-2.3 3.7 0.9 0.6 0.4 3.8-1.1 4 0.7 0.4 1.1 0.4 1.5 1.2q0.3 0.5 0.3 1.1 0 0.6-0.2 1.2c-0.2 0.3-0.5 0.6-0.9 0.8-0.4 0.2-0.8 0.2-1.2 0.1 0.5 0.5 0.8 1 0.9 1.6 0.1 0.7 0 1.3-0.3 1.9-0.3 0.6-0.9 1.2-1.6 1.4q-0.5 0.2-1 0.3-0.3 0-0.5 0-0.1-0.1-0.1-0.1c-0.3-0.2-0.4-0.5-0.7-0.7l-0.3-0.2q-0.6-0.4-1.4-0.6-0.4-0.1-0.7-0.2-0.2-0.1-0.4-0.3c-0.9-0.5-1.9-0.8-2.9-0.9-1.1-0.1-2.2-0.6-3.1-1.3-0.4-0.3-0.7-0.9-0.7-1.4-0.1-0.6 0.1-1.1 0.5-1.6-0.4 0-0.7-0.2-0.9-0.4-0.3-0.3-0.4-0.6-0.4-1q0-0.5 0.2-1 0.3-0.5 0.8-0.8c0.6-0.3 1.3-0.5 2-0.5-0.4-0.1-0.7-0.4-1-0.7-0.2-0.4-0.2-0.8-0.2-1.2q0.2-0.6 0.7-1.1 0.4-0.5 1-0.7 1.3-0.3 2.5-0.1c0.9 0.1 4.3 0.4 5.2 0.4l0.6-2.3 0.1-0.3c1.5-0.4 1.9-0.6 3.2-0.8 1-0.2 2-0.2 2.4 0.5z"/>
	<path class="s4" d="m291.3 139.9q-0.1 0.5-0.4 1-0.3 0.4-0.7 0.7c-1 0.3-2 0.3-3 0l0.3-2.4 0.1-0.6c-0.2-0.5-1.3-0.6-1.7-0.9-0.3-0.3-0.6-0.7-0.7-1.2-0.1-0.4 0-0.9 0.3-1.3q0.4-0.6 1.1-0.9 0.7-0.2 1.4-0.1c0.9 0.2 1.7 0.7 2.3 1.5q0.7 0.9 0.9 2 0.3 1.1 0.1 2.2z"/>
	<path class="s5" d="m293.6 131.8c-4.1-1.2-8.3-1.9-12.6-2.2q3.1 1 6.3 1.4 3.1 0.7 6.3 0.8z"/>
	<path class="s5" d="m294 127.3c-1.8-0.7-3.7-1.2-5.7-1.4-1.9-0.3-3.9-0.4-5.8-0.1q2.8 0.6 5.7 0.8 2.9 0.5 5.8 0.7z"/>
	<path class="s5" d="m294.3 123c-1.5-0.6-3.1-0.9-4.7-1q-2.4-0.3-4.8-0.1 2.3 0.7 4.8 0.8 2.3 0.4 4.7 0.3z"/>
	<path class="s5" d="m291.1 138.4c0.1 0 0.3-0.4 0.1-1.1-0.2-0.9-0.8-1.7-1.6-2.2q-1.2-0.7-2.5-1c-0.8-0.1-1.1 0.4-1 0.5 0.1 0 0.3-0.2 0.9 0q1.2 0.4 2.2 1c0.7 0.5 1.3 1.1 1.6 1.8 0.2 0.6 0.2 1 0.3 1z"/>
	<path class="s1" d="m158.9 136.4c-7.2 6.6-12.1 9.1-13.1 15.9-0.6 6.1 0 12.1 1.9 17.9 3.9 11.6 9 25.3 12 31.9 1.1 2.4 1.3 5.1 0.6 7.6-1.7 5.7-6.3 16.6-5.6 38.7l67.9-4.7c0 0-11.8-27.2-14.4-40.8-0.3-1.7 1.5-21.3 0.7-25.1-3.4-14.5-19-28.8-24.1-36.5l-0.6-2.5-24.8-4.1z"/>
	<g style="opacity: .3">
		<path class="s2" d="m158.7 195c0 0 8.4 17.6 12.6 19.2 4.2 1.7 39.1-3.1 39.1-3.1l-2.1-8.2z"/>
	</g>
	<path class="s0" d="m189.2 147q0.6 0.4 1.1 1c0.7 0.7 1.7 1.7 2.8 3.1 2.3 2.7 5.1 6.7 8.2 11 2.8 3.7 5 7.8 6.5 12.2q0.7 1.9 1.1 4 0.2 0.8 0.2 1.5c-0.1 0-0.4-2.1-1.7-5.4-1.7-4.2-3.9-8.2-6.6-11.9-3.2-4.3-5.8-8.4-8-11.1-1.1-1.4-2-2.5-2.7-3.2q-0.5-0.6-0.9-1.2z"/>
	<path class="s1" d="m150.1 144.2c0 0-14.7 9.8-5.8 27 7.8 15.3 20.6 34.1 25.7 37 5.2 3 60.8-9 60.8-9l-1.8-21.5-47.7 10-13.7-25.6c0 0-5.4-21.6-17.5-17.9z"/>
	<path class="s4" d="m229.2 180.7c0 0 0.6-2.3 4.7-5 2.5-1.6 4.5-3.7 5.9-6.3 0.8-1.3 2-3.5 3.1-2.8 1.1 0.6 0.9 2.3 0.2 5.1-0.8 2.7-3.1 5-2.2 6.1 0.9 1 13.5-0.3 17.1-1.1 3.7-0.7 5.4-0.4 4.9 1.4-0.6 1.8-12 2.2-12.8 4-0.8 1.7 0.5 1.3 1.8 1.8 1.2 0.4 13.5-0.9 13.8 1.3 0.2 2.3-1.3 2.4-1.3 2.4 0 0 0.4 2.7-1.6 3.4-2 0.8-14.5-0.7-14.1 0.9 0.4 1.5 10.1 2.3 10.4 4.8 0.3 2.4-2.1 1.5-4.6 1q-5.9-1.5-11.9-1.9c-4.1 0-12.1-0.7-12.1-0.7z"/>
	<path class="s3" d="m264.6 187.9q-4.2 0.3-8.3 0-4.2 0-8.4-0.7 4.2-0.3 8.4 0 4.2 0 8.3 0.7z"/>
	<path class="s0" d="m177.8 195c-0.1-1.4 0.2-2.7 1-3.9 0.5-1.2 1.5-2.3 2.7-2.9 0.1 0.1-1.1 1.4-2.1 3.2-1.1 1.9-1.4 3.6-1.6 3.6z"/>
	<path class="s0" d="m164.7 157.1q0.2 0.3 0.4 0.5 0.3 0.5 0.9 1.6c0.8 1.3 2 3.4 3.4 6 3 5.3 7.1 12.9 12.1 22.4l-0.3-0.1 47.8-10.1 0.3-0.1v0.3c0.6 6.9 1.2 14.1 1.8 21.4v0.1 0.3l-0.3 0.1c-14.2 3-27.8 5.7-40.2 7.6q-4.7 0.8-9.1 1.3-4.3 0.5-8.7 0.5-1 0-2.1-0.2-0.5-0.1-1-0.4l-0.7-0.6q-0.9-0.6-1.6-1.3-0.7-0.7-1.3-1.4c-0.9-1-1.7-2-2.5-3-0.7-1-1.5-1.9-2.2-2.9-5.5-7.8-9.3-14.5-11.9-19.1-1.3-2.3-2.3-4.1-3-5.3q-0.4-0.9-0.7-1.4-0.1-0.3-0.2-0.5 0.1 0.2 0.3 0.4l0.8 1.4 3 5.3c2.7 4.6 6.6 11.2 12.1 18.9 0.7 1 1.4 2 2.2 2.9 0.8 1 1.6 2 2.4 2.9q0.7 0.8 1.4 1.4 0.7 0.7 1.5 1.3l0.8 0.6q0.2 0.1 0.4 0.2 0.2 0.1 0.4 0.1 1 0.2 2 0.2 4.3 0 8.6-0.6 4.4-0.5 9.1-1.2c12.4-2 25.9-4.7 40.1-7.8l-0.2 0.4v-0.1c-0.6-7.3-1.2-14.5-1.8-21.4l0.4 0.3-47.7 10h-0.2l-0.1-0.2c-4.9-9.5-9-17.1-11.8-22.5-1.5-2.6-2.5-4.6-3.4-6.1l-0.8-1.5z"/>
</svg>