<svg width="67" height="66" viewBox="0 0 67 66" fill="none" xmlns="http://www.w3.org/2000/svg">
<g filter="url(#filter0_d_647_2035)">
<rect x="9.60156" y="9.08691" width="48" height="48" rx="24" fill="white"/>
<path opacity="0.4" d="M26.1228 23.3165L39.9181 18.713C46.1122 16.6483 49.4769 20.0283 47.4275 26.2224L42.8239 40.0177C39.7345 49.3012 34.6569 49.3012 31.5675 40.0177L30.2063 35.9188L26.1075 34.5577C16.8392 31.4835 16.8392 26.4212 26.1228 23.3165Z" fill="#171717"/>
<path d="M33.7852 31.9879L39.6122 26.1455L33.7852 31.9879Z" fill="#171717"/>
<path d="M33.7839 33.1336C33.4933 33.1336 33.2027 33.0266 32.9733 32.7972C32.5297 32.3536 32.5297 31.6195 32.9733 31.176L38.785 25.3336C39.2286 24.8901 39.9627 24.8901 40.4062 25.3336C40.8497 25.7772 40.8497 26.5113 40.4062 26.9548L34.5944 32.7972C34.365 33.0113 34.0744 33.1336 33.7839 33.1336Z" fill="#171717"/>
</g>
<defs>
<filter id="filter0_d_647_2035" x="0.778033" y="0.263385" width="65.6471" height="65.6471" filterUnits="userSpaceOnUse" color-interpolation-filters="sRGB">
<feFlood flood-opacity="0" result="BackgroundImageFix"/>
<feColorMatrix in="SourceAlpha" type="matrix" values="0 0 0 0 0 0 0 0 0 0 0 0 0 0 0 0 0 0 127 0" result="hardAlpha"/>
<feOffset/>
<feGaussianBlur stdDeviation="4.41176"/>
<feComposite in2="hardAlpha" operator="out"/>
<feColorMatrix type="matrix" values="0 0 0 0 0.475962 0 0 0 0 1 0 0 0 0 0.737981 0 0 0 1 0"/>
<feBlend mode="normal" in2="BackgroundImageFix" result="effect1_dropShadow_647_2035"/>
<feBlend mode="normal" in="SourceGraphic" in2="effect1_dropShadow_647_2035" result="shape"/>
</filter>
</defs>
</svg>
