<svg width="15" height="14" viewBox="0 0 15 14" fill="none" xmlns="http://www.w3.org/2000/svg">
<path d="M2.11609 10.6471C2.18609 11.8488 2.83359 12.8346 4.44359 12.8346H10.5569C12.1669 12.8346 12.8086 11.8488 12.8844 10.6471L13.1878 5.8288C13.2694 4.5688 12.2661 3.5013 11.0003 3.5013C10.6444 3.5013 10.3178 3.29714 10.1544 2.98214L9.73443 2.1363C9.46609 1.60547 8.76609 1.16797 8.17109 1.16797H6.83526C6.23443 1.16797 5.53443 1.60547 5.26609 2.1363L4.84609 2.98214C4.68276 3.29714 4.35609 3.5013 4.00026 3.5013C2.73443 3.5013 1.73109 4.5688 1.81276 5.8288L1.96443 8.20297" stroke="#818185" stroke-linecap="round" stroke-linejoin="round"/>
<path d="M6.625 4.66797H8.375" stroke="#818185" stroke-linecap="round" stroke-linejoin="round"/>
<path d="M7.49984 10.4987C8.544 10.4987 9.39567 9.64703 9.39567 8.60286C9.39567 7.5587 8.544 6.70703 7.49984 6.70703C6.45567 6.70703 5.604 7.5587 5.604 8.60286C5.604 9.64703 6.45567 10.4987 7.49984 10.4987Z" stroke="#818185" stroke-linecap="round" stroke-linejoin="round"/>
</svg>
