<svg version="1.2" xmlns="http://www.w3.org/2000/svg" viewBox="0 0 135 63" width="135" height="63">
	<title>social-icon</title>
	<defs>
		<clipPath clipPathUnits="userSpaceOnUse" id="cp1">
			<path d="m4 0h24.19v24.19h-24.19z"/>
		</clipPath>
		<clipPath clipPathUnits="userSpaceOnUse" id="cp2">
			<path d="m72.54 0h24.19v24.19h-24.19z"/>
		</clipPath>
		<clipPath clipPathUnits="userSpaceOnUse" id="cp3">
			<path d="m106.81 0h24.19v24.19h-24.19z"/>
		</clipPath>
		<clipPath clipPathUnits="userSpaceOnUse" id="cp4">
			<path d="m4 37h24.19v24.19h-24.19z"/>
		</clipPath>
		<clipPath clipPathUnits="userSpaceOnUse" id="cp5">
			<path d="m72.54 37h24.19v24.19h-24.19z"/>
		</clipPath>
		<clipPath clipPathUnits="userSpaceOnUse" id="cp6">
			<path d="m106.81 37h24.19v24.19h-24.19z"/>
		</clipPath>
	</defs>
	<style>
		.s0 { fill: #1a1b1e } 
		.s1 { fill: #de722a } 
	</style>
	<g id="Clip-Path: Clip-Path" clip-path="url(#cp1)">
		<g id="Clip-Path">
			<g>
				<path class="s0" d="m16.1 0c-6.7 0-12.1 5.4-12.1 12.1 0 5.7 3.9 10.4 9.2 11.7v-8h-2.5v-3.7h2.5v-1.6c0-4.1 1.8-6 5.9-6 0.7 0 2.1 0.1 2.6 0.3v3.3c-0.3 0-0.8 0-1.4 0-2 0-2.7 0.7-2.7 2.7v1.3h3.9l-0.7 3.7h-3.2v8.3c6-0.7 10.6-5.8 10.6-12 0-6.7-5.4-12.1-12.1-12.1z"/>
			</g>
		</g>
	</g>
	<path class="s0" d="m56.7 1.9h3.4l-7.4 8.5 8.8 11.6h-6.9l-5.3-7-6.2 7h-3.4l8-9.1-8.4-11h7l4.8 6.4zm-1.2 18h1.9l-12.1-16h-2.1z"/>
	<g id="Clip-Path: Clip-Path" clip-path="url(#cp2)">
		<g id="Clip-Path">
			<g>
				<path class="s0" d="m84.6 0c-3.2 0-3.7 0-4.9 0.1-1.3 0-2.2 0.2-3 0.5-0.8 0.3-1.5 0.8-2.1 1.4-0.7 0.7-1.1 1.4-1.4 2.2-0.3 0.7-0.5 1.6-0.6 2.9 0 1.3-0.1 1.7-0.1 5 0 3.3 0.1 3.7 0.1 5 0.1 1.3 0.3 2.1 0.6 2.9 0.3 0.8 0.7 1.5 1.4 2.2 0.6 0.6 1.3 1 2.1 1.4 0.8 0.3 1.7 0.5 2.9 0.5 1.3 0.1 1.7 0.1 5 0.1 3.3 0 3.7 0 5-0.1 1.3 0 2.2-0.2 2.9-0.5 0.8-0.4 1.5-0.8 2.2-1.4 0.7-0.7 1.1-1.4 1.4-2.2 0.3-0.8 0.5-1.6 0.5-2.9 0.1-1.3 0.1-1.7 0.1-5 0-3.3 0-3.7-0.1-5 0-1.3-0.2-2.2-0.5-2.9-0.3-0.8-0.7-1.5-1.4-2.2-0.7-0.6-1.3-1.1-2.1-1.4-0.8-0.3-1.7-0.5-3-0.5-1.3-0.1-1.7-0.1-5-0.1zm0 2.2c3.3 0 3.6 0 4.9 0 1.2 0.1 1.8 0.3 2.3 0.5 0.5 0.2 0.9 0.4 1.4 0.9 0.4 0.4 0.6 0.8 0.9 1.4 0.1 0.4 0.3 1 0.4 2.2 0 1.3 0 1.7 0 4.9 0 3.2 0 3.6 0 4.9-0.1 1.2-0.3 1.8-0.4 2.2-0.3 0.6-0.5 1-0.9 1.4-0.5 0.4-0.9 0.7-1.4 0.9-0.5 0.2-1.1 0.4-2.3 0.4-1.3 0.1-1.6 0.1-4.9 0.1-3.2 0-3.6 0-4.9-0.1-1.1 0-1.8-0.2-2.2-0.4-0.6-0.2-1-0.5-1.4-0.9-0.4-0.4-0.7-0.8-0.9-1.4-0.2-0.4-0.3-1.1-0.4-2.2-0.1-1.3-0.1-1.7-0.1-4.9 0-3.2 0-3.6 0.1-4.9 0.1-1.2 0.2-1.8 0.4-2.2 0.2-0.6 0.5-1 0.9-1.4 0.4-0.5 0.8-0.7 1.4-0.9 0.4-0.2 1.1-0.4 2.2-0.5 1.3 0 1.7 0 4.9 0z"/>
				<path class="s0" d="m84.6 5.9c-3.4 0-6.2 2.8-6.2 6.2 0 3.4 2.8 6.2 6.2 6.2 3.5 0 6.2-2.8 6.2-6.2 0-3.4-2.7-6.2-6.2-6.2zm0 10.2c-2.2 0-4-1.8-4-4 0-2.2 1.8-4 4-4 2.3 0 4.1 1.8 4.1 4 0 2.2-1.8 4-4.1 4z"/>
				<path class="s0" d="m92.5 5.6c0 0.8-0.6 1.5-1.4 1.5-0.8 0-1.5-0.7-1.5-1.5 0-0.8 0.7-1.4 1.5-1.4 0.8 0 1.4 0.6 1.4 1.4z"/>
			</g>
		</g>
	</g>
	<g id="Clip-Path: Clip-Path" clip-path="url(#cp3)">
		<g id="Clip-Path">
			<g>
				<path class="s0" d="m129.2 0h-20.6c-1 0-1.8 0.8-1.8 1.7v20.7c0 1 0.8 1.8 1.8 1.8h20.6c1 0 1.8-0.8 1.8-1.8v-20.7c0-0.9-0.8-1.7-1.8-1.7zm-15.2 20.6h-3.6v-11.5h3.6zm-1.8-13.2c-1.2 0-2.1-0.9-2.1-2 0-1.2 0.9-2.1 2.1-2.1 1.1 0 2.1 0.9 2.1 2.1 0 1.1-1 2-2.1 2zm15.2 13.2h-3.6v-5.6c0-1.4 0-3.1-1.8-3.1-1.9 0-2.2 1.5-2.2 3v5.7h-3.6v-11.6h3.5v1.6c0.5-0.9 1.7-1.9 3.4-1.9 3.7 0 4.3 2.4 4.3 5.5z"/>
			</g>
		</g>
	</g>
	<g id="Clip-Path: Clip-Path copy" clip-path="url(#cp4)">
		<g id="Clip-Path copy">
			<g>
				<path class="s1" d="m16.1 37c-6.7 0-12.1 5.4-12.1 12.1 0 5.7 3.9 10.4 9.2 11.7v-8h-2.5v-3.7h2.5v-1.6c0-4.1 1.8-6 5.9-6 0.7 0 2.1 0.1 2.6 0.3v3.3c-0.3 0-0.8 0-1.4 0-2 0-2.7 0.7-2.7 2.7v1.3h3.9l-0.7 3.7h-3.2v8.3c6-0.7 10.6-5.8 10.6-12 0-6.7-5.4-12.1-12.1-12.1z"/>
			</g>
		</g>
	</g>
	<path id="Layer copy 3" class="s1" d="m56.7 38.9h3.4l-7.4 8.5 8.8 11.6h-6.9l-5.3-7-6.2 7h-3.4l8-9.1-8.4-11h7l4.8 6.4zm-1.2 18h1.9l-12.1-16h-2.1z"/>
	<g id="Clip-Path: Clip-Path copy 2" clip-path="url(#cp5)">
		<g id="Clip-Path copy 2">
			<g>
				<path class="s1" d="m84.6 37c-3.2 0-3.7 0-4.9 0.1-1.3 0-2.2 0.2-3 0.5-0.8 0.3-1.5 0.8-2.1 1.4-0.7 0.7-1.1 1.4-1.4 2.2-0.3 0.7-0.5 1.6-0.6 2.9 0 1.3-0.1 1.7-0.1 5 0 3.3 0.1 3.7 0.1 5 0.1 1.3 0.3 2.1 0.6 2.9 0.3 0.8 0.7 1.5 1.4 2.2 0.6 0.6 1.3 1 2.1 1.4 0.8 0.3 1.7 0.5 2.9 0.5 1.3 0.1 1.7 0.1 5 0.1 3.3 0 3.7 0 5-0.1 1.3 0 2.2-0.2 2.9-0.5 0.8-0.4 1.5-0.8 2.2-1.4 0.7-0.7 1.1-1.4 1.4-2.2 0.3-0.8 0.5-1.6 0.5-2.9 0.1-1.3 0.1-1.7 0.1-5 0-3.3 0-3.7-0.1-5 0-1.3-0.2-2.2-0.5-2.9-0.3-0.8-0.7-1.5-1.4-2.2-0.7-0.6-1.3-1.1-2.1-1.4-0.8-0.3-1.7-0.5-3-0.5-1.3-0.1-1.7-0.1-5-0.1zm0 2.2c3.3 0 3.6 0 4.9 0 1.2 0.1 1.8 0.3 2.3 0.5 0.5 0.2 0.9 0.4 1.4 0.9 0.4 0.4 0.6 0.8 0.9 1.4 0.1 0.4 0.3 1 0.4 2.2 0 1.3 0 1.7 0 4.9 0 3.2 0 3.6 0 4.9-0.1 1.2-0.3 1.8-0.4 2.2-0.3 0.6-0.5 1-0.9 1.4-0.5 0.4-0.9 0.7-1.4 0.9-0.5 0.2-1.1 0.4-2.3 0.4-1.3 0.1-1.6 0.1-4.9 0.1-3.2 0-3.6 0-4.9-0.1-1.1 0-1.8-0.2-2.2-0.4-0.6-0.2-1-0.5-1.4-0.9-0.4-0.4-0.7-0.8-0.9-1.4-0.2-0.4-0.3-1.1-0.4-2.2-0.1-1.3-0.1-1.7-0.1-4.9 0-3.2 0-3.6 0.1-4.9 0.1-1.2 0.2-1.8 0.4-2.2 0.2-0.6 0.5-1 0.9-1.4 0.4-0.5 0.8-0.7 1.4-0.9 0.4-0.2 1.1-0.4 2.2-0.5 1.3 0 1.7 0 4.9 0z"/>
				<path class="s1" d="m84.6 42.9c-3.4 0-6.2 2.8-6.2 6.2 0 3.4 2.8 6.2 6.2 6.2 3.5 0 6.2-2.8 6.2-6.2 0-3.4-2.7-6.2-6.2-6.2zm0 10.2c-2.2 0-4-1.8-4-4 0-2.2 1.8-4 4-4 2.3 0 4.1 1.8 4.1 4 0 2.2-1.8 4-4.1 4z"/>
				<path class="s1" d="m92.5 42.6c0 0.8-0.6 1.5-1.4 1.5-0.8 0-1.5-0.7-1.5-1.5 0-0.8 0.7-1.4 1.5-1.4 0.8 0 1.4 0.6 1.4 1.4z"/>
			</g>
		</g>
	</g>
	<g id="Clip-Path: Clip-Path copy 3" clip-path="url(#cp6)">
		<g id="Clip-Path copy 3">
			<g>
				<path class="s1" d="m129.2 37h-20.6c-1 0-1.8 0.8-1.8 1.7v20.7c0 1 0.8 1.8 1.8 1.8h20.6c1 0 1.8-0.8 1.8-1.8v-20.7c0-0.9-0.8-1.7-1.8-1.7zm-15.2 20.6h-3.6v-11.5h3.6zm-1.8-13.2c-1.2 0-2.1-0.9-2.1-2 0-1.2 0.9-2.1 2.1-2.1 1.1 0 2.1 0.9 2.1 2.1 0 1.1-1 2-2.1 2zm15.2 13.2h-3.6v-5.6c0-1.4 0-3.1-1.8-3.1-1.9 0-2.2 1.5-2.2 3v5.7h-3.6v-11.6h3.5v1.6c0.5-0.9 1.7-1.9 3.4-1.9 3.7 0 4.3 2.4 4.3 5.5z"/>
			</g>
		</g>
	</g>
</svg>