<?xml version="1.0" standalone="no"?>
<!DOCTYPE svg PUBLIC "-//W3C//DTD SVG 1.1//EN" "http://www.w3.org/Graphics/SVG/1.1/DTD/svg11.dtd" >
<svg xmlns="http://www.w3.org/2000/svg" xmlns:xlink="http://www.w3.org/1999/xlink" version="1.1">
<metadata>
Created by FontForge 20190801 at Mon Feb  6 08:06:27 2023
 By www-data
Copyright (c) 2023 by Dwi Putra Yoga. All rights reserved.
</metadata>
<defs>
<font id="RallomyRegular" horiz-adv-x="238" >
  <font-face 
    font-family="RallomyRegular"
    font-weight="400"
    font-stretch="normal"
    units-per-em="1000"
    panose-1="0 0 5 0 0 0 0 0 0 0"
    ascent="800"
    descent="-200"
    x-height="500"
    cap-height="700"
    bbox="-1432 -850 1529 1160"
    underline-thickness="50"
    underline-position="-100"
    unicode-range="U+0020-E0A0"
  />
<missing-glyph horiz-adv-x="1005" 
d="M824 -850h-637v2010h637v-2010zM338 1025v-66h130v-74h-132v-67h333v67h-132v74h132v66h-331zM336 766v-209h333v68h-132v141h-201zM468 625h-66v73h66v-73zM336 503v-67h132v-74h-132v-66h201v140h132v67h-333zM603 382v-133h-267v-68h333v201h-66zM468 137v-113h69v47
h66v-95h-201v161h-66v-227h333v227h-201zM336 -211v-227h333v227h-333zM603 -372h-201v95h201v-95zM336 -484v-67h140l-140 -94v-66h333v66h-205l141 94h64v67h-333z" />
    <glyph glyph-name=".notdef" horiz-adv-x="1005" 
d="M824 -850h-637v2010h637v-2010zM338 1025v-66h130v-74h-132v-67h333v67h-132v74h132v66h-331zM336 766v-209h333v68h-132v141h-201zM468 625h-66v73h66v-73zM336 503v-67h132v-74h-132v-66h201v140h132v67h-333zM603 382v-133h-267v-68h333v201h-66zM468 137v-113h69v47
h66v-95h-201v161h-66v-227h333v227h-201zM336 -211v-227h333v227h-333zM603 -372h-201v95h201v-95zM336 -484v-67h140l-140 -94v-66h333v66h-205l141 94h64v67h-333z" />
    <glyph glyph-name=".null" horiz-adv-x="0" 
 />
    <glyph glyph-name="nonmarkingreturn" horiz-adv-x="333" 
 />
    <glyph glyph-name="space" unicode=" " horiz-adv-x="300" 
 />
    <glyph glyph-name="exclam" unicode="!" horiz-adv-x="150" 
d="M105 190h-60l-15 510h90zM42.5 13.5q-11.5 13.5 -11.5 32.5t11.5 32.5t32.5 13.5t32.5 -13.5t11.5 -32.5t-11.5 -32.5t-32.5 -13.5t-32.5 13.5z" />
    <glyph glyph-name="quotedbl" unicode="&#x22;" horiz-adv-x="250" 
d="M76 480h-20l-26 220h80zM186 480h-20l-26 220h80z" />
    <glyph glyph-name="numbersign" unicode="#" horiz-adv-x="612" 
d="M582 484h-65l-69 -265h59v-15h-63l-54 -204h-70l54 204h-200l-54 -204h-70l54 204h-74v15h78l69 265h-72v15h76l53 201h70l-53 -201h200l53 201h70l-53 -201h61v-15zM378 219l69 265h-200l-69 -265h200z" />
    <glyph glyph-name="dollar" unicode="$" horiz-adv-x="560" 
d="M463 56.5q-67 -55.5 -182 -60.5v-86h-15v86h-7q-57 1 -112 28q-28 14 -48 14q-15 0 -23 -7.5t-8 -18.5h-10l-21 189l9 1l7 -26q25 -78 79.5 -119.5t119.5 -41.5h14v310q-76 27 -123 50t-80 61t-33 95q0 61 32.5 103t86.5 62.5t117 19.5v74h15v-74q56 -5 103 -28
q27 -14 47 -14q15 0 23 7.5t8 18.5h10l17 -180l-9 -1l-7 28q-23 73 -74.5 110.5t-117.5 39.5v-287q82 -25 131 -46.5t83.5 -60.5t34.5 -99q0 -92 -67 -147.5zM133 468q46 -27 133 -54v283q-84 -1 -136.5 -36.5t-52.5 -96.5q0 -7 2 -21q8 -48 54 -75zM410.5 69
q46.5 45 42.5 117q-3 47 -46 75t-126 58v-303q83 8 129.5 53z" />
    <glyph glyph-name="percent" unicode="%" horiz-adv-x="865" 
d="M109.5 311.5q-39.5 29.5 -59.5 77.5t-20 102t20 102t59.5 77.5t94.5 29.5t94.5 -29.5t59.5 -77.5t20 -102t-20 -102t-59.5 -77.5t-94.5 -29.5t-94.5 29.5zM227 0h-60l474 700h60zM293 350.5q32 59.5 32 140.5t-32 140.5t-89 59.5t-89 -59.5t-32 -140.5t32 -140.5
t89 -59.5t89 59.5zM566.5 29.5q-39.5 29.5 -59.5 77.5t-20 102t20 102t59.5 77.5t94.5 29.5t94.5 -29.5t59.5 -77.5t20 -102t-20 -102t-59.5 -77.5t-94.5 -29.5t-94.5 29.5zM750 68.5q32 59.5 32 140.5t-32 140.5t-89 59.5t-89 -59.5t-32 -140.5t32 -140.5t89 -59.5t89 59.5
z" />
    <glyph glyph-name="quotesingle" unicode="'" horiz-adv-x="140" 
d="M76 480h-20l-26 220h80z" />
    <glyph glyph-name="parenleft" unicode="(" horiz-adv-x="265" 
d="M140 501.5q-32 -111.5 -32 -231.5t32 -231.5t95 -198.5h-40q-81 87 -123 199t-42 231t42 231t123 199h40q-63 -87 -95 -198.5z" />
    <glyph glyph-name="parenright" unicode=")" horiz-adv-x="265" 
d="M193 501q42 -112 42 -231t-42 -231t-123 -199h-40q63 87 95.5 199t32.5 231t-32.5 231t-95.5 199h40q81 -87 123 -199z" />
    <glyph glyph-name="asterisk" unicode="*" horiz-adv-x="326" 
d="M296 604l-116 -63l116 -64l-30 -32l-92 76l9 -140h-40l9 139l-92 -75l-30 32l117 65l-117 62l30 32l92 -78l-9 142h40l-9 -142l92 78z" />
    <glyph glyph-name="plus" unicode="+" horiz-adv-x="397" 
d="M367 313v-35h-151v-151h-35v151h-151v35h151v151h35v-151h151z" />
    <glyph glyph-name="comma" unicode="," horiz-adv-x="161" 
d="M116.5 74.5q14.5 -17.5 14.5 -43.5q0 -36 -23.5 -66.5t-60.5 -30.5q-5 0 -17 2l1 6q19 -2 33.5 7t22.5 23t8 24q0 4 -2 8q-7 -4 -19 -4q-21 0 -32.5 13.5t-11.5 32.5t11.5 32.5t32.5 13.5q28 0 42.5 -17.5z" />
    <glyph glyph-name="hyphen" unicode="-" horiz-adv-x="397" 
d="M30 278v35h337v-35h-337z" />
    <glyph glyph-name="period" unicode="." horiz-adv-x="148" 
d="M41.5 13.5q-11.5 13.5 -11.5 32.5t11.5 32.5t32.5 13.5t32.5 -13.5t11.5 -32.5t-11.5 -32.5t-32.5 -13.5t-32.5 13.5z" />
    <glyph glyph-name="slash" unicode="/" horiz-adv-x="394" 
d="M90 -160h-60l274 860h60z" />
    <glyph glyph-name="zero" unicode="0" horiz-adv-x="652" 
d="M165 50q-67 50 -101 131.5t-34 173.5t34 173t101 131.5t161 50.5t161 -50t101 -131.5t34 -173.5t-34 -173t-101 -131.5t-161 -50.5t-161 50zM438 63q47 48 70.5 126t23.5 166t-23.5 166t-70.5 126t-112 48t-112 -48t-70.5 -126t-23.5 -166t23.5 -166t70.5 -126t112 -48
t112 48z" />
    <glyph glyph-name="one" unicode="1" 
d="M172 21q8 -11 36 -11v-10h-178v10q28 0 36 11t8 42v534q0 33 -4 44t-22 11q-4 0 -18 -2v10l124 40h10v-637q0 -31 8 -42z" />
    <glyph glyph-name="two" unicode="2" horiz-adv-x="560" 
d="M432 61.5q18 6.5 30.5 28.5t21.5 68h10l-20 -158h-444q2 95 43 164.5t96 114t143 99.5q56 35 87 57t54 49.5t28 58.5q2 14 2 21q0 38 -22.5 69t-61.5 48.5t-87 17.5q-10 0 -30 -2q-72 -8 -126.5 -65t-75.5 -153l-9 1l17 180h10q0 -17 14 -17q15 0 52 25q33 24 65.5 36.5
t83.5 12.5q59 0 108.5 -22t79 -64t29.5 -100q0 -51 -30 -92.5t-74.5 -73.5t-119.5 -76q-71 -42 -115 -73t-81.5 -71.5t-53.5 -89.5h325q33 0 51 6.5z" />
    <glyph glyph-name="three" unicode="3" horiz-adv-x="545" 
d="M458 347q57 -51 57 -135q0 -62 -35 -110.5t-96 -75t-136 -26.5q-49 0 -84.5 17t-65.5 47q-13 13 -24 13q-8 0 -12.5 -6.5t-4.5 -15.5h-10l-17 180l9 1q26 -101 80.5 -160t131.5 -58q184 1 184 194q0 64 -18 105.5t-68.5 64.5t-143.5 23h-12v10h10q96 2 144.5 35.5
t48.5 108.5q0 61 -31 99.5t-87 38.5q-45 0 -87.5 -26.5t-74.5 -76t-47 -115.5l-9 1l17 180h10q0 -17 14 -17q15 0 52 25q32 23 62.5 35.5t76.5 12.5q53 0 95 -20t65.5 -56t23.5 -81q0 -66 -51 -101.5t-137 -46.5q113 -13 170 -64z" />
    <glyph glyph-name="four" unicode="4" horiz-adv-x="537" 
d="M463 204v-141q0 -31 8 -42t36 -11v-10h-178v10q28 0 36 11t8 42v141h-343v15q86 49 134 140t48 210q0 17 -2 51l90 -20q0 -126 -60 -225t-161 -156h294v451l90 30v-481h44v-15h-44z" />
    <glyph glyph-name="five" unicode="5" horiz-adv-x="545" 
d="M391 446q57 -30 90.5 -83.5t33.5 -120.5q0 -63 -35.5 -119t-96.5 -89.5t-135 -33.5q-49 0 -84.5 17t-65.5 47q-13 13 -24 13q-8 0 -12.5 -6.5t-4.5 -15.5h-10l-17 180l9 1q26 -101 80.5 -160t131.5 -58q98 1 141 63.5t43 160.5q0 101 -43.5 157t-131.5 56
q-47 0 -91.5 -16.5t-73.5 -46.5l-14 3l43 305h320l20 -158h-10q-9 46 -21.5 68t-30.5 28.5t-51 6.5h-221l-32 -234q34 32 77.5 48.5t90.5 16.5q68 0 125 -30z" />
    <glyph glyph-name="six" unicode="6" horiz-adv-x="588" 
d="M447 444q56 -32 83.5 -83.5t27.5 -111.5q0 -63 -30.5 -120.5t-88.5 -93t-138 -35.5q-88 0 -149 44.5t-91.5 117t-30.5 158.5q0 97 38 187t111.5 146.5t173.5 56.5q64 0 106 -33.5t56 -77.5l-12 -6q-18 47 -57.5 74.5t-92.5 27.5q-65 0 -114.5 -47.5t-79.5 -124
t-37 -163.5q22 54 76.5 85t112.5 31q80 0 136 -32zM397 49q41 34 62 88t21 113q0 54 -19 101t-57 75.5t-93 28.5q-36 0 -76.5 -15.5t-72.5 -48t-43 -80.5q-1 -81 19 -148t61.5 -107.5t101.5 -40.5q55 0 96 34z" />
    <glyph glyph-name="seven" unicode="7" horiz-adv-x="474" 
d="M268.5 392q-70.5 -189 -84.5 -392h-91q31 190 100 352t167 293h-217q-33 0 -51 -6.5t-30.5 -28.5t-21.5 -68h-10l20 158h394q-105 -119 -175.5 -308z" />
    <glyph glyph-name="eight" unicode="8" horiz-adv-x="560" 
d="M490.5 308q39.5 -47 39.5 -115q0 -60 -37 -105.5t-96.5 -70t-124.5 -24.5q-59 0 -111 20.5t-86 60.5q-22 26 -34 58t-12 66q0 67 43 128t125 97q-82 67 -82 152q0 43 28.5 76.5t76 52t102.5 18.5q46 0 86.5 -15t65.5 -44q32 -37 32 -85t-32.5 -96.5t-92.5 -84.5
q70 -42 109.5 -89zM190.5 519q21.5 -25 52 -44.5t81.5 -46.5l43 -23q40 28 61 71.5t21 89.5q0 37 -13 67q-17 37 -52.5 56.5t-78.5 19.5q-60 0 -100.5 -32t-40.5 -86q0 -10 1 -16q4 -31 25.5 -56zM201 29q40 -20 88 -20q66 0 121.5 34t69.5 90q4 16 4 33q0 38 -22.5 68.5
t-56 54t-91.5 57.5q-75 45 -103 66q-51 -31 -76.5 -84.5t-25.5 -114.5q0 -67 30 -124q22 -40 62 -60z" />
    <glyph glyph-name="nine" unicode="9" horiz-adv-x="588" 
d="M436 665.5q61 -44.5 91.5 -117t30.5 -158.5q0 -97 -38 -187t-111.5 -146.5t-173.5 -56.5q-64 0 -106 33.5t-56 77.5l12 6q18 -47 57.5 -74.5t92.5 -27.5q65 0 114.5 47.5t79.5 124t37 163.5q-22 -54 -76.5 -85t-112.5 -31q-80 0 -136 32t-83.5 83.5t-27.5 111.5
q0 63 30.5 120.5t88.5 93t138 35.5q88 0 149 -44.5zM353.5 270.5q40.5 15.5 72.5 48t43 80.5q1 81 -19 148t-61.5 107.5t-101.5 40.5q-55 0 -96 -34t-62 -88t-21 -113q0 -54 19 -101t57 -75.5t93 -28.5q36 0 76.5 15.5z" />
    <glyph glyph-name="colon" unicode=":" horiz-adv-x="148" 
d="M41.5 421.5q-11.5 13.5 -11.5 32.5t11.5 32.5t32.5 13.5t32.5 -13.5t11.5 -32.5t-11.5 -32.5t-32.5 -13.5t-32.5 13.5zM41.5 13.5q-11.5 13.5 -11.5 32.5t11.5 32.5t32.5 13.5t32.5 -13.5t11.5 -32.5t-11.5 -32.5t-32.5 -13.5t-32.5 13.5z" />
    <glyph glyph-name="semicolon" unicode=";" horiz-adv-x="161" 
d="M41.5 421.5q-11.5 13.5 -11.5 32.5t11.5 32.5t32.5 13.5t32.5 -13.5t11.5 -32.5t-11.5 -32.5t-32.5 -13.5t-32.5 13.5zM116.5 74.5q14.5 -17.5 14.5 -43.5q0 -36 -23.5 -66.5t-60.5 -30.5q-5 0 -17 2l1 6q19 -2 33.5 7t22.5 23t8 24q0 4 -2 8q-7 -4 -19 -4
q-21 0 -32.5 13.5t-11.5 32.5t11.5 32.5t32.5 13.5q28 0 42.5 -17.5z" />
    <glyph glyph-name="equal" unicode="=" horiz-adv-x="397" 
d="M30 328v35h337v-35h-337zM30 228v35h337v-35h-337z" />
    <glyph glyph-name="question" unicode="?" horiz-adv-x="519" 
d="M464.5 443q-21.5 -36 -50.5 -58.5t-77 -51.5q-40 -24 -63 -41t-39 -41.5t-17 -57.5h-40q-1 47 16.5 81t43.5 57t71 54q39 27 63 46.5t43 47.5t25 64q2 16 2 23q0 58 -46 95.5t-120 37.5q-23 0 -35 -2q-73 -9 -127 -65.5t-75 -152.5l-9 1l17 180h10q0 -17 14 -17
q15 0 52 25q34 24 67.5 36.5t85.5 12.5q58 0 108 -22t79 -64.5t26 -99.5q-3 -52 -24.5 -88zM165.5 13.5q-11.5 13.5 -11.5 32.5t11.5 32.5t32.5 13.5t32.5 -13.5t11.5 -32.5t-11.5 -32.5t-32.5 -13.5t-32.5 13.5z" />
    <glyph glyph-name="at" unicode="@" horiz-adv-x="850" 
d="M640 546.5q85 -38.5 132.5 -113t47.5 -178.5q0 -66 -28.5 -128.5t-75.5 -102t-101 -39.5q-48 0 -82.5 29t-34.5 86v56q-12 -50 -42 -78.5t-85 -28.5q-48 0 -81.5 28t-50 74t-16.5 98q0 57 19 108.5t55.5 81.5t86.5 26q49 -4 76 -29t38 -67v81h90v-350q0 -45 14 -68.5
t39 -23.5q36 0 62 36t39.5 91t13.5 110q0 13 -2 37q-13 134 -89 212.5t-220 79.5q-99 1 -176 -40t-120.5 -116t-43.5 -172q0 -91 34.5 -171t104 -129.5t167.5 -49.5q32 0 68 6l2 -10q-44 -8 -94 -8q-113 0 -193.5 47.5t-122 125t-41.5 165.5q0 107 55 189.5t150 127.5
t210 45q110 1 195 -37.5zM471.5 128q26.5 55 26.5 133v7q0 77 -26 125.5t-74 48.5q-40 0 -63 -54.5t-23 -129.5t23 -130t63 -55q47 0 73.5 55z" />
    <glyph glyph-name="A" unicode="A" horiz-adv-x="705" 
d="M636.5 18.5q13.5 -8.5 38.5 -8.5v-10h-181v10q18 0 25.5 4.5t7.5 14.5q0 4 -4 18l-61 157h-292l-58 -151q-6 -15 -6 -24q0 -10 7.5 -14.5t25.5 -4.5v-10h-109v10q24 0 38 8t24 28l252 654h17l251 -651q11 -22 24.5 -30.5zM175 219h281l-140 364z" />
    <glyph glyph-name="B" unicode="B" horiz-adv-x="586" 
d="M486.5 351q69.5 -48 69.5 -139q0 -112 -101 -162t-291 -50h-134v10q28 0 36 11t8 42v574q0 31 -8 42t-36 11v10h134q103 0 171.5 -10t110 -40.5t41.5 -90.5q0 -122 -205 -148q135 -12 204.5 -60zM164 415h15q116 2 172 35.5t56 108.5q0 55 -28.5 84t-80 38.5t-134.5 8.5
v-275zM345.5 30.5q68.5 20.5 99.5 64.5t31 117q0 70 -28 111.5t-92.5 61.5t-174.5 20h-17v-395q113 0 181.5 20.5z" />
    <glyph glyph-name="C" unicode="C" horiz-adv-x="626" 
d="M506.5 51q61.5 46 79.5 126l10 -3q-21 -84 -80 -134t-153 -50q-107 0 -182.5 52.5t-113.5 136.5t-37 177q1 101 46.5 184t124 130t173.5 46q65 -2 117 -30q28 -11 44 -11q14 0 22 7t8 18h10l21 -151l-14 -2q-17 71 -73.5 110t-127.5 40q-84 1 -143 -47t-88.5 -127.5
t-29.5 -172.5q0 -87 28 -166.5t83 -129t132 -49.5q82 0 143.5 46z" />
    <glyph glyph-name="D" unicode="D" horiz-adv-x="586" 
d="M411.5 651.5q68.5 -48.5 106.5 -129t38 -172.5t-38 -172.5t-106.5 -129t-154.5 -48.5h-93h-134v10q28 0 36 11t8 42v574q0 31 -8 42t-36 11v10h134h93q86 0 154.5 -48.5zM371.5 63.5q51.5 47.5 78 123t26.5 163.5t-26.5 163.5t-78 123t-122.5 51.5q-35 2 -85 2v-680
q50 0 85 2q71 4 122.5 51.5z" />
    <glyph glyph-name="E" unicode="E" horiz-adv-x="527" 
d="M449.5 49.5q23.5 34.5 37.5 108.5h10l-20 -158h-447v10q28 0 36 11t8 42v574q0 31 -8 42t-36 11v10h447l20 -158h-10q-14 74 -37.5 108.5t-65.5 34.5h-220v-265h130q27 0 40 21t13 53h10v-163h-10q0 32 -13 53t-40 21h-130v-390h220q42 0 65.5 34.5z" />
    <glyph glyph-name="F" unicode="F" horiz-adv-x="527" 
d="M497 542h-10q-14 74 -37.5 108.5t-65.5 34.5h-220v-265h130q27 0 40 21t13 53h10v-163h-10q0 32 -13 53t-40 21h-130v-342q0 -31 8 -42t36 -11v-10h-178v10q28 0 36 11t8 42v574q0 31 -8 42t-36 11v10h447z" />
    <glyph glyph-name="G" unicode="G" horiz-adv-x="670" 
d="M640 290q-28 0 -36 -11t-8 -42v-237l-81 45q-61 -55 -152 -55q-107 0 -182.5 52.5t-113.5 136.5t-37 177q1 100 45.5 182.5t121 130t170.5 47.5q69 0 124 -30q28 -11 44 -11q14 0 22 7t8 18h10l21 -151l-9 -1l-1 2q-31 73 -85.5 110t-125.5 37q-82 0 -139.5 -48.5
t-86.5 -127.5t-29 -171q0 -87 28 -166.5t83 -129t132 -49.5q83 0 143 51v181q0 22 -6.5 32.5t-30.5 15.5t-77 5v10h248v-10z" />
    <glyph glyph-name="H" unicode="H" horiz-adv-x="628" 
d="M562 679q-8 -11 -8 -42v-574q0 -31 8 -42t36 -11v-10h-178v10q28 0 36 11t8 42v342h-300v-342q0 -31 8 -42t36 -11v-10h-178v10q28 0 36 11t8 42v574q0 31 -8 42t-36 11v10h178v-10q-28 0 -36 -11t-8 -42v-217h300v217q0 31 -8 42t-36 11v10h178v-10q-28 0 -36 -11z" />
    <glyph glyph-name="I" unicode="I" 
d="M172 679q-8 -11 -8 -42v-574q0 -31 8 -42t36 -11v-10h-178v10q28 0 36 11t8 42v574q0 31 -8 42t-36 11v10h178v-10q-28 0 -36 -11z" />
    <glyph glyph-name="J" unicode="J" 
d="M208 690q-28 0 -36 -11t-8 -42v-548q0 -76 -15.5 -121t-46.5 -67q-37 -27 -91 -27q-31 0 -56.5 10.5t-40.5 31.5q-10 14 -10 27q0 14 11 23.5t25 9.5q19 0 25 -18q11 -34 31.5 -50t44.5 -16q26 0 51 18q15 12 23.5 31t8.5 42q0 57 -50 106v548q0 31 -8 42t-36 11v10h178
v-10z" />
    <glyph glyph-name="K" unicode="K" horiz-adv-x="628" 
d="M556.5 20q15.5 -10 41.5 -10v-10h-201v10q23 0 33.5 5t10.5 16q0 10 -11 32l-185 342l-81 -92v-250q0 -31 8 -42t36 -11v-10h-178v10q28 0 36 11t8 42v574q0 31 -8 42t-36 11v10h178v-10q-28 0 -36 -11t-8 -42v-305l281 319q12 17 12 25q0 7 -9 10.5t-29 3.5v10h129v-10
q-26 0 -46.5 -10t-43.5 -33l-150 -171l218 -421q15 -25 30.5 -35z" />
    <glyph glyph-name="L" unicode="L" horiz-adv-x="527" 
d="M497 158l-20 -158h-447v10q28 0 36 11t8 42v574q0 31 -8 42t-36 11v10h178v-10q-28 0 -36 -11t-8 -42v-622h220q42 0 65.5 34.5t37.5 108.5h10z" />
    <glyph glyph-name="M" unicode="M" horiz-adv-x="731" 
d="M665.5 19.5q10.5 -9.5 35.5 -9.5v-10h-179v10q24 0 32.5 8.5t8.5 29.5l-41 460l-184 -508h-15l-190 494l-40 -446q0 -21 8.5 -29.5t32.5 -8.5v-10h-104v10q24 0 34.5 8.5t13.5 28.5l58 653h15v-2l220 -566l206 568h15l60 -649q3 -22 13.5 -31.5z" />
    <glyph glyph-name="N" unicode="N" horiz-adv-x="628" 
d="M598 690q-28 0 -36 -11t-8 -42v-637h-15l-450 557v-494q0 -31 8 -42t36 -11v-10h-103v10q28 0 36 11t8 42v574q0 31 -8 42t-36 11v10h59l450 -557v494q0 31 -8 42t-36 11v10h103v-10z" />
    <glyph glyph-name="O" unicode="O" horiz-adv-x="726" 
d="M181.5 50q-75.5 50 -113.5 131.5t-38 173.5t38 173t113.5 131.5t181.5 50.5t181.5 -50t113.5 -131.5t38 -173.5t-38 -173t-113.5 -131.5t-181.5 -50.5t-181.5 50zM495 63q55 48 83 126t28 166t-28 166t-83 126t-132 48t-132 -48t-83 -126t-28 -166t28 -166t83 -126
t132 -48t132 48z" />
    <glyph glyph-name="P" unicode="P" horiz-adv-x="537" 
d="M410.5 396q-96.5 -41 -246.5 -41v-292q0 -31 8 -42t36 -11v-10h-178v10q28 0 36 11t8 42v574q0 31 -8 42t-36 11v10h134q155 0 249 -36t94 -130q0 -97 -96.5 -138zM164 365q127 0 195 39.5t68 129.5q0 87 -70 122t-193 34v-325z" />
    <glyph glyph-name="Q" unicode="Q" horiz-adv-x="726" 
d="M581 -135q22 0 41 11t31 30l9 -6q-13 -20 -38 -35t-58 -15q-12 0 -18 1q-60 9 -98.5 47.5t-74.5 101.5h-12q-106 0 -181.5 50t-113.5 131.5t-38 173.5t38 173t113.5 131.5t181.5 50.5t181.5 -50t113.5 -131.5t38 -173.5q0 -79 -28.5 -151.5t-85.5 -124.5t-137 -70
q7 -11 19 -33q26 -47 44.5 -71.5t41.5 -33.5q15 -6 31 -6zM231 647q-55 -48 -83 -126t-28 -166q0 -77 21.5 -147t62.5 -118q29 35 86 35q46 0 80 -26t63 -72q83 29 128 122t45 207q0 88 -27.5 165.5t-82.5 125.5t-133 48q-77 0 -132 -48zM367 15q-25 47 -41 69.5t-36 26.5
q-12 2 -16 2q-39 0 -63 -31q62 -67 152 -67h4z" />
    <glyph glyph-name="R" unicode="R" horiz-adv-x="615" 
d="M585 31q-12 -15 -31 -23t-38 -8q-42 0 -65 27t-33 71t-19 119q-8 70 -23.5 103t-62.5 49t-149 16v-322q0 -31 8 -42t36 -11v-10h-178v10q28 0 36 11t8 42v574q0 31 -8 42t-36 11v10h134q104 0 177.5 -11t119.5 -45t46 -98q0 -74 -56.5 -109.5t-155.5 -45.5
q63 -6 102 -23.5t61 -52.5t31 -96q14 -99 28.5 -144.5t38.5 -45.5q12 0 25 10zM164 395q87 0 143.5 12t88 45t31.5 94q0 86 -67.5 115.5t-195.5 28.5v-295z" />
    <glyph glyph-name="S" unicode="S" horiz-adv-x="560" 
d="M62 633q32 42 84.5 62.5t115.5 20.5q66 0 122 -28q27 -14 47 -14q15 0 23 7.5t8 18.5h10l17 -180l-9 -1l-7 28q-23 76 -78.5 113t-125.5 37q-84 0 -138 -36t-54 -96q0 -6 2 -22q6 -35 34.5 -59.5t67 -39.5t102.5 -35q81 -25 129.5 -46.5t83 -60t34.5 -98.5
q0 -64 -33 -111t-94.5 -72t-143.5 -25q-57 1 -112 28q-28 14 -48 14q-15 0 -23 -7.5t-8 -18.5h-10l-21 189l9 1l7 -26q25 -78 79.5 -119.5t119.5 -41.5q95 0 150.5 46.5t50.5 124.5q-2 34 -27.5 58.5t-62 41.5t-98.5 39q-76 27 -123 50t-79.5 61t-32.5 95q0 60 32 102z" />
    <glyph glyph-name="T" unicode="T" horiz-adv-x="616" 
d="M586 542h-10q-14 74 -37.5 108.5t-65.5 34.5h-120v-622q0 -31 8 -42t36 -11v-10h-178v10q28 0 36 11t8 42v622h-120q-42 0 -65.5 -34.5t-37.5 -108.5h-10l20 158h516z" />
    <glyph glyph-name="U" unicode="U" horiz-adv-x="628" 
d="M598 690q-28 0 -36 -11t-8 -42v-377q1 -128 -62 -194.5t-178 -66.5q-126 0 -183 64t-57 197v377q0 31 -8 42t-36 11v10h178v-10q-28 0 -36 -11t-8 -42v-377q0 -117 45.5 -174.5t129.5 -58.5q96 -1 148.5 60.5t51.5 172.5v377q0 31 -8 42t-36 11v10h103v-10z" />
    <glyph glyph-name="V" unicode="V" horiz-adv-x="705" 
d="M675 690q-24 0 -38 -8t-24 -28l-252 -654h-17l-251 651q-11 22 -24.5 30.5t-38.5 8.5v10h181v-10q-18 0 -25.5 -4.5t-7.5 -14.5q0 -4 4 -18l207 -536l204 530q6 15 6 24q0 10 -7.5 14.5t-25.5 4.5v10h109v-10z" />
    <glyph glyph-name="W" unicode="W" horiz-adv-x="992" 
d="M962 690q-27 0 -40 -10.5t-23 -36.5l-211 -643h-17l-172 567l-178 -567h-17l-214 650q-8 22 -21.5 31t-38.5 9v10h181v-10q-19 0 -26.5 -5t-7.5 -16q0 -7 5 -24l163 -513l179 568h17l173 -570l173 526q1 5 1 12q0 12 -8 17t-27 5v10h109v-10z" />
    <glyph glyph-name="X" unicode="X" horiz-adv-x="668" 
d="M592 22q17 -12 46 -12v-10h-181v10q16 0 22.5 3t6.5 11q0 3 -4 15l-166 297l-199 -292q-8 -13 -8 -20t7 -10.5t23 -3.5v-10h-109v10q24 0 40 8.5t32 29.5l205 305l-168 301q-14 19 -30 27.5t-40 8.5v10h181v-10q-28 0 -28 -13q0 -6 5.5 -17l6.5 -13l135 -243l161 245
q10 16 10 27q0 8 -6.5 11t-22.5 3v10h109v-10q-26 0 -42 -10t-33 -34l-167 -258l181 -325q16 -29 33 -41z" />
    <glyph glyph-name="Y" unicode="Y" horiz-adv-x="611" 
d="M581 690q-26 0 -42 -10t-33 -34l-157 -243v-340q0 -31 8 -42t36 -11v-10h-178v10q28 0 36 11t8 42v305l-159 286q-14 19 -30 27.5t-40 8.5v10h181v-10q-28 0 -28 -13q0 -9 17 -40l130 -233l161 245q10 16 10 27q0 8 -6.5 11t-22.5 3v10h109v-10z" />
    <glyph glyph-name="Z" unicode="Z" horiz-adv-x="521" 
d="M406.5 49.5q23.5 34.5 37.5 108.5h10l-20 -158h-404l362 685h-202q-42 0 -65.5 -34.5t-37.5 -108.5h-10l20 158h394l-362 -685h212q42 0 65.5 34.5z" />
    <glyph glyph-name="bracketleft" unicode="[" horiz-adv-x="230" 
d="M200 685h-100v-830h100v-15h-170v860h170v-15z" />
    <glyph glyph-name="backslash" unicode="\" horiz-adv-x="394" 
d="M90 700l274 -860h-60l-274 860h60z" />
    <glyph glyph-name="bracketright" unicode="]" horiz-adv-x="230" 
d="M200 700v-860h-170v15h100v830h-100v15h170z" />
    <glyph glyph-name="underscore" unicode="_" horiz-adv-x="447" 
d="M30 -72v35h387v-35h-387z" />
    <glyph glyph-name="a" unicode="a" horiz-adv-x="488" 
d="M422 21q8 -11 36 -11v-10h-134v125q-20 -61 -69.5 -95t-103.5 -34q-51 0 -86 32t-35 91q0 42 22.5 72t55 48.5t85.5 41.5q58 25 89 44.5t42 48.5v6q0 62 -16 93.5t-61 31.5t-68 -22t-23 -62q0 -25 9 -55q4 -16 -13 -28t-39 -12q-32 0 -39 26q-4 20 -4 28q0 38 23 68.5
t63.5 48.5t90.5 18q80 0 123.5 -33t43.5 -102v-317q0 -31 8 -42zM132.5 47.5q22.5 -24.5 56.5 -24.5q29 0 58 17.5t50 51.5t27 80v180q-15 -22 -36.5 -37.5t-58.5 -37.5q-39 -23 -62.5 -41t-40 -46.5t-16.5 -70.5q0 -47 22.5 -71.5z" />
    <glyph glyph-name="b" unicode="b" horiz-adv-x="489" 
d="M391.5 480q33.5 -35 50.5 -91.5t17 -121.5q0 -68 -18 -129.5t-52 -99.5t-81 -38q-58 0 -93.5 47t-50.5 118v-165h-134v10q28 0 36 11t8 42v590q0 31 -8 42t-36 11v10h134v-355q15 68 51 111t94 43q49 0 82.5 -35zM347.5 92.5q22.5 69.5 22.5 165.5q0 95 -22.5 164.5
t-63.5 69.5q-36 0 -63.5 -34.5t-42 -86.5t-14.5 -103v-7q0 -52 14.5 -107.5t42 -93t63.5 -37.5q41 0 63.5 69.5z" />
    <glyph glyph-name="c" unicode="c" horiz-adv-x="431" 
d="M356 57.5q-39 -57.5 -113 -57.5q-68 0 -116 36.5t-72.5 95.5t-24.5 126q0 66 24.5 125t72.5 95.5t116 36.5q82 0 121 -38.5t34 -101.5q-1 -20 -14.5 -30.5t-30.5 -10.5t-29.5 9.5t-12.5 25.5l2 12q7 24 7 46q0 37 -19.5 57.5t-52.5 20.5q-62 0 -96 -72t-34 -170
q0 -96 33 -167.5t92 -75.5q61 -4 101.5 44t46.5 134h10q-6 -83 -45 -140.5z" />
    <glyph glyph-name="d" unicode="d" horiz-adv-x="489" 
d="M423 21q8 -11 36 -11v-10h-134v165q-15 -72 -51 -118.5t-94 -46.5q-49 0 -82.5 35t-50.5 91.5t-17 121.5q0 68 18 129.5t52 99.5t81 38q58 0 93.5 -43.5t50.5 -110.5v292q0 31 -8 42t-36 11v10h134v-653q0 -31 8 -42zM268.5 60.5q27.5 37.5 42 93t14.5 107.5v7
q0 51 -14.5 103t-42 86.5t-63.5 34.5q-40 0 -63 -69.5t-23 -164.5q0 -96 23 -165.5t63 -69.5q36 0 63.5 37.5z" />
    <glyph glyph-name="e" unicode="e" horiz-adv-x="431" 
d="M401 198q-6 -83 -45 -140.5t-113 -57.5q-68 0 -116 36.5t-72.5 95.5t-24.5 126q0 66 24.5 125t72.5 95.5t116 36.5q80 0 117.5 -42.5t37.5 -107.5v-10h-272q-8 -39 -8 -90q0 -97 32.5 -169t92.5 -76q61 -4 101.5 44t46.5 134h10zM171 466.5q-29 -38.5 -43 -101.5h185
q0 69 -14 104.5t-56 35.5q-43 0 -72 -38.5z" />
    <glyph glyph-name="f" unicode="f" horiz-adv-x="364" 
d="M334 646q0 -14 -11 -23.5t-25 -9.5q-19 0 -25 18q-11 34 -31.5 50t-44.5 16q-26 0 -51 -18q-15 -12 -23.5 -31t-8.5 -42q0 -57 50 -106h71v-10h-71v-427q0 -31 8 -42t36 -11v-10h-178v10q28 0 36 11t8 42v427h-44v10h44q0 76 15.5 121t46.5 67q19 13 42.5 20.5t47.5 7.5
q30 0 56.5 -11t41.5 -32q10 -14 10 -27z" />
    <glyph glyph-name="g" unicode="g" horiz-adv-x="487" 
d="M197.5 87q19.5 -3 59.5 -7q62 -6 102 -15.5t69 -36t29 -77.5q0 -47 -31.5 -80.5t-82.5 -50t-108 -16.5q-84 0 -144.5 33.5t-60.5 93.5q0 40 34.5 65.5t78.5 25.5q17 0 35 -5l-1 -4q-77 0 -77 -82q0 -53 39.5 -84t94.5 -31q37 0 70 15.5t53 46t20 73.5q-1 65 -35.5 89
t-90.5 24q-5 0 -59 -3q-24 -3 -42 -3q-14 0 -23 3q-10 4 -15 11.5t-5 16.5q0 16 14 31t38 20q-54 23 -83 72t-29 107q0 51 22.5 96t67.5 72.5t108 27.5q17 0 47 -4q6 37 33.5 59.5t59.5 22.5q20 0 37 -10t26 -30q3 -6 3 -13q0 -12 -10 -19.5t-22 -7.5q-16 0 -22 14
q-6 18 -16.5 26.5t-23.5 8.5q-17 0 -32 -14.5t-22 -39.5q67 -17 103.5 -70.5t36.5 -118.5q0 -51 -22.5 -96t-67.5 -72.5t-108 -27.5q-41 0 -74 12q-23 -8 -23 -21q0 -10 16 -17q14 -7 33.5 -10zM158.5 449.5q-31.5 -55.5 -31.5 -130.5t31.5 -130.5t86.5 -55.5t86.5 55.5
t31.5 130.5q0 57 -19 105.5t-54 68.5q-20 12 -45 12q-55 0 -86.5 -55.5z" />
    <glyph glyph-name="h" unicode="h" horiz-adv-x="508" 
d="M442 21q8 -11 36 -11v-10h-178v10q28 0 36 11t8 42v296q0 70 -12 101.5t-48 31.5t-63.5 -34.5t-42 -86.5t-14.5 -103v-205q0 -31 8 -42t36 -11v-10h-178v10q28 0 36 11t8 42v590q0 31 -8 42t-36 11v10h134v-355q14 64 47 107t87 47q6 1 17 1q119 0 119 -157v-296
q0 -31 8 -42z" />
    <glyph glyph-name="i" unicode="i" 
d="M84.5 544.5q-11.5 13.5 -11.5 32.5t11.5 32.5t32.5 13.5t32.5 -13.5t11.5 -32.5t-11.5 -32.5t-32.5 -13.5t-32.5 13.5zM172 21q8 -11 36 -11v-10h-178v10q28 0 36 11t8 42v374q0 31 -8 42t-36 11v10h134v-437q0 -31 8 -42z" />
    <glyph glyph-name="j" unicode="j" 
d="M84.5 544.5q-11.5 13.5 -11.5 32.5t11.5 32.5t32.5 13.5t32.5 -13.5t11.5 -32.5t-11.5 -32.5t-32.5 -13.5t-32.5 13.5zM164 -1q0 -76 -15.5 -121t-46.5 -67q-37 -27 -91 -27q-31 0 -56.5 10.5t-40.5 31.5q-10 14 -10 27q0 14 11 23.5t25 9.5q19 0 25 -18q11 -34 31.5 -50
t44.5 -16q26 0 51 18q15 12 23.5 31t8.5 42q0 57 -50 106v438q0 31 -8 42t-36 11v10h134v-501z" />
    <glyph glyph-name="k" unicode="k" horiz-adv-x="525" 
d="M457 19q14 -8 38 -9v-10h-178v10q16 0 23 4t7 12q0 10 -7 24l-118 222l-58 -65v-144q0 -31 8 -42t36 -11v-10h-178v10q28 0 36 11t8 42v590q0 31 -8 42t-36 11v10h134v-493l197 223q12 17 12 26q0 18 -37 18v10h127v-10q-26 -1 -45.5 -10.5t-40.5 -32.5l-99 -112
l153 -289q12 -19 26 -27z" />
    <glyph glyph-name="l" unicode="l" 
d="M172 21q8 -11 36 -11v-10h-178v10q28 0 36 11t8 42v590q0 31 -8 42t-36 11v10h134v-653q0 -31 8 -42z" />
    <glyph glyph-name="m" unicode="m" horiz-adv-x="778" 
d="M712 21q8 -11 36 -11v-10h-178v10q28 0 36 11t8 42v296q0 70 -12 101.5t-48 31.5t-63.5 -34.5t-42 -86.5t-14.5 -103v-205q0 -31 8 -42t36 -11v-10h-178v10q28 0 36 11t8 42v296q0 70 -12 101.5t-48 31.5t-63.5 -34.5t-42 -86.5t-14.5 -103v-205q0 -31 8 -42t36 -11v-10
h-178v10q28 0 36 11t8 42v374q0 31 -8 42t-36 11v10h134v-139q14 64 47 107t87 47q6 1 17 1q119 0 119 -155q14 64 47 107t87 47q6 1 17 1q119 0 119 -157v-296q0 -31 8 -42z" />
    <glyph glyph-name="n" unicode="n" horiz-adv-x="508" 
d="M442 21q8 -11 36 -11v-10h-178v10q28 0 36 11t8 42v296q0 70 -12 101.5t-48 31.5t-63.5 -34.5t-42 -86.5t-14.5 -103v-205q0 -31 8 -42t36 -11v-10h-178v10q28 0 36 11t8 42v374q0 31 -8 42t-36 11v10h134v-139q14 64 47 107t87 47q6 1 17 1q119 0 119 -157v-296
q0 -31 8 -42z" />
    <glyph glyph-name="o" unicode="o" horiz-adv-x="486" 
d="M127 36.5q-48 36.5 -72.5 95.5t-24.5 126q0 66 24.5 125t72.5 95.5t116 36.5t116 -36.5t72.5 -95.5t24.5 -125q0 -67 -24.5 -126t-72.5 -95.5t-116 -36.5t-116 36.5zM335 83.5q33 73.5 33 174.5q0 100 -33 173.5t-92 73.5t-92 -73.5t-33 -173.5q0 -101 33 -174.5
t92 -73.5t92 73.5z" />
    <glyph glyph-name="p" unicode="p" horiz-adv-x="489" 
d="M391.5 480q33.5 -35 50.5 -91.5t17 -121.5q0 -68 -18 -129.5t-52 -99.5t-81 -38q-58 0 -93.5 47t-50.5 118v-302q0 -31 8 -42t36 -11v-10h-178v10q28 0 36 11t8 42v574q0 31 -8 42t-36 11v10h134v-139q15 68 51 111t94 43q49 0 82.5 -35zM347.5 92.5
q22.5 69.5 22.5 165.5q0 95 -22.5 164.5t-63.5 69.5q-36 0 -63.5 -34.5t-42 -86.5t-14.5 -103v-7q0 -52 14.5 -107.5t42 -93t63.5 -37.5q41 0 63.5 69.5z" />
    <glyph glyph-name="q" unicode="q" horiz-adv-x="489" 
d="M423 479q-8 -11 -8 -42v-574q0 -31 8 -42t36 -11v-10h-178v10q28 0 36 11t8 42v302q-15 -72 -51 -118.5t-94 -46.5q-49 0 -82.5 35t-50.5 91.5t-17 121.5q0 68 18 129.5t52 99.5t81 38q58 0 93.5 -43.5t50.5 -110.5v139h134v-10q-28 0 -36 -11zM268.5 60.5
q27.5 37.5 42 93t14.5 107.5v7q0 51 -14.5 103t-42 86.5t-63.5 34.5q-40 0 -63 -69.5t-23 -164.5q0 -96 23 -165.5t63 -69.5q36 0 63.5 37.5z" />
    <glyph glyph-name="r" unicode="r" horiz-adv-x="424" 
d="M359 501.5q20 -14.5 28.5 -35.5t5.5 -41q-3 -19 -18.5 -30t-33.5 -11q-13 0 -21 6.5t-7 18.5q2 32 -8 49t-29 17q-3 0 -13 -2q-35 -10 -63.5 -52.5t-35.5 -95.5v-263q0 -30 8 -41t36 -11v-10h-178v10q28 0 36 11t8 41v375q0 31 -8 42t-36 11v10h134v-127q16 59 59.5 101
t87.5 42q28 0 48 -14.5z" />
    <glyph glyph-name="s" unicode="s" horiz-adv-x="422" 
d="M44.5 172.5q13.5 10.5 30.5 10.5t29.5 -9.5t12.5 -25.5l-2 -12q-7 -22 -7 -43q0 -39 25 -61t67 -22q47 0 80 30.5t33 76.5q0 18 -6 37q-8 26 -35 43.5t-77 39.5q-48 22 -77.5 39.5t-50.5 45t-21 66.5q0 40 24 68.5t63 43.5t82 15q52 0 89 -18t55.5 -46.5t18.5 -59.5
q0 -6 -2 -18q-4 -20 -18 -30t-31 -10q-16 0 -27.5 8.5t-11.5 22.5q0 8 3 15q12 30 12 55q0 34 -22.5 52.5t-63.5 18.5q-43 0 -70 -23t-27 -59q0 -19 9 -42q11 -29 40 -47t83 -43q47 -21 74.5 -37t46.5 -40.5t19 -59.5q0 -48 -28.5 -83t-73.5 -53t-95 -18t-89 19t-59 51.5
t-17 71.5q1 20 14.5 30.5z" />
    <glyph glyph-name="t" unicode="t" horiz-adv-x="318" 
d="M164 490v-350q0 -42 2.5 -66t13.5 -38.5t34 -14.5q38 0 69 35l5 -5q-18 -21 -43.5 -36t-68.5 -15q-59 0 -80.5 33t-21.5 97v360h-44v10h44v40l80 90h10v-130h124v-10h-124z" />
    <glyph glyph-name="u" unicode="u" horiz-adv-x="508" 
d="M442 21q8 -11 36 -11v-10h-134v142q-14 -59 -47 -98t-87 -44q-7 -1 -19 -1q-117 0 -117 141v297q0 31 -8 42t-36 11v10h134v-360q0 -64 13 -90.5t43 -26.5q37 0 65.5 30.5t43.5 78.5t15 99v206q0 31 -8 42t-36 11v10h134v-437q0 -31 8 -42z" />
    <glyph glyph-name="v" unicode="v" horiz-adv-x="514" 
d="M484 490q-25 0 -39 -9.5t-24 -31.5l-158 -450h-15l-154 442q-10 27 -23.5 38t-40.5 11v10h181v-10q-18 0 -26 -4.5t-8 -15.5q0 -8 9 -33l107 -309l115 326q3 9 3 16q0 11 -8 15.5t-26 4.5v10h107v-10z" />
    <glyph glyph-name="w" unicode="w" horiz-adv-x="754" 
d="M724 490q-25 0 -39 -9.5t-24 -31.5l-158 -450h-15l-112 358l-113 -358h-15l-154 442q-10 27 -23.5 38t-40.5 11v10h181v-10q-18 0 -26 -4.5t-8 -15.5q0 -8 9 -33l105 -302l115 365h15l113 -371l114 325q3 9 3 16q0 11 -8 15.5t-26 4.5v10h107v-10z" />
    <glyph glyph-name="x" unicode="x" horiz-adv-x="500" 
d="M428.5 19.5q15.5 -9.5 41.5 -9.5v-10h-193v10q38 0 38 22q0 9 -4 18l-85 168l-106 -169q-8 -14 -8 -23q0 -8 10.5 -12t35.5 -4v-10h-128v10q25 0 42 9t33 30l114 183l-108 215q-14 24 -29.5 33.5t-41.5 9.5v10h193v-10q-38 0 -38 -22q0 -9 4 -18l76 -151l93 149
q11 19 11 27t-8.5 11.5t-28.5 3.5v10h118v-10q-25 0 -42 -9.5t-33 -30.5l-102 -165l116 -232q14 -24 29.5 -33.5z" />
    <glyph glyph-name="y" unicode="y" horiz-adv-x="514" 
d="M484 490q-25 0 -38.5 -9.5t-21.5 -31.5l-131 -449q-23 -78 -42 -121t-52 -68.5t-87 -25.5q-31 0 -57.5 10.5t-41.5 31.5q-10 14 -10 27q0 14 11 23.5t25 9.5q19 0 25 -18q11 -35 30 -51t43 -16q37 0 63 27.5t42.5 67.5t35.5 103h-50l-139 451q-8 21 -21 30t-38 9v10h181
v-10q-19 0 -26.5 -5t-7.5 -16q0 -9 3 -21l117 -381l113 386q2 12 2 15q0 12 -8 17t-27 5v10h107v-10z" />
    <glyph glyph-name="z" unicode="z" horiz-adv-x="402" 
d="M316.5 35.5q14.5 25.5 24.5 72.5h10l-20 -108h-301l247 490h-143q-34 0 -48.5 -25.5t-24.5 -72.5h-10l20 108h301l-247 -490h143q34 0 48.5 25.5z" />
    <glyph glyph-name="braceleft" unicode="{" horiz-adv-x="320" 
d="M193.5 662q-32.5 -28 -32.5 -87q0 -31 9 -73q8 -37 8 -68q0 -54 -21.5 -95t-63.5 -59q41 -22 63 -70.5t22 -108.5q0 -34 -8 -71q-9 -42 -9 -73q0 -59 32.5 -87t96.5 -28v-10q-105 0 -153 29.5t-48 93.5q0 31 11 73q17 66 17 117q0 47 -13.5 80t-38.5 46q-17 -3 -35 -3
q-13 0 -21 4t-8 9q0 6 7.5 10t21.5 4q22 0 40 -6q23 11 35 38t12 66q0 50 -17 111q-11 42 -11 73q0 64 48 93.5t153 29.5v-10q-64 0 -96.5 -28z" />
    <glyph glyph-name="braceright" unicode="}" horiz-adv-x="349" 
d="M311 291q8 -4 8 -9q0 -6 -7.5 -10t-21.5 -4q-23 0 -39 4q-23 -14 -35.5 -45t-12.5 -77q0 -57 17 -122q10 -39 10 -72q0 -65 -47 -94.5t-153 -29.5v10q65 0 97 28t32 88q0 31 -9 72q-8 40 -8 75q0 60 21.5 107t62.5 68q-42 18 -63 59t-21 95q0 31 8 68q9 42 9 73
q0 59 -32.5 87t-96.5 28v10q105 0 153 -29.5t48 -93.5q0 -31 -11 -73q-17 -61 -17 -111q0 -80 49 -103q20 5 38 5q13 0 21 -4z" />
    <glyph glyph-name="uni00A0" unicode="&#xa0;" horiz-adv-x="300" 
 />
    <glyph glyph-name="exclamdown" unicode="&#xa1;" horiz-adv-x="150" 
d="M107.5 526.5q11.5 -13.5 11.5 -32.5t-11.5 -32.5t-32.5 -13.5t-32.5 13.5t-11.5 32.5t11.5 32.5t32.5 13.5t32.5 -13.5zM30 -160l15 510h60l15 -510h-90z" />
    <glyph glyph-name="cent" unicode="&#xa2;" horiz-adv-x="431" 
d="M358 150q-37 -57 -107 -60v-90h-15v90q-66 2 -112.5 39t-70 95t-23.5 124q0 65 23.5 123.5t70.5 95t112 38.5v95h15v-95q78 -2 115 -40.5t32 -99.5q-1 -20 -14.5 -30.5t-30.5 -10.5t-29.5 9.5t-12.5 25.5l2 12q7 24 7 46q0 36 -18.5 56t-50.5 22v-485q58 0 96 47.5
t44 130.5h10q-6 -81 -43 -138zM149 517q-31 -70 -31 -164q0 -93 31 -163.5t87 -78.5v483q-56 -7 -87 -77z" />
    <glyph glyph-name="sterling" unicode="&#xa3;" horiz-adv-x="542" 
d="M427.5 682q46.5 -27 65.5 -65.5t19 -77.5q0 -10 -2 -26q-4 -20 -18 -30t-31 -10q-16 0 -27.5 8.5t-11.5 22.5q0 8 3 15q14 34 14 69q0 49 -32 80t-102 32q-72 1 -114 -40t-42 -105q0 -34 14 -74q22 -58 34 -115h260v-15h-258q5 -33 5 -58q0 -61 -25.5 -119t-82.5 -119
h285q33 0 51 6.5t30.5 28.5t21.5 68h10l-20 -158h-437v10q56 57 79 107t23 99q0 30 -6.5 59t-20.5 76h-82v15h77q-21 74 -27 115q-2 22 -2 31q0 58 30 103t82 70t115 25q76 -1 122.5 -28z" />
    <glyph glyph-name="yen" unicode="&#xa5;" horiz-adv-x="611" 
d="M581 690q-26 0 -42 -10t-33 -34l-155 -240h167v-15h-169v-75h169v-15h-169v-238q0 -31 8 -42t36 -11v-10h-178v10q28 0 36 11t8 42v238h-168v15h168v52l-13 23h-155v15h147l-138 248q-14 19 -30 27.5t-40 8.5v10h181v-10q-28 0 -28 -13q0 -9 17 -40l128 -231h3l160 243
q10 16 10 27q0 8 -6.5 11t-22.5 3v10h109v-10z" />
    <glyph glyph-name="guillemotleft" unicode="&#xab;" horiz-adv-x="442" 
d="M282 500l-192 -224l192 -224h-60l-192 224l192 224h60zM412 500l-192 -224l192 -224h-60l-192 224l192 224h60z" />
    <glyph glyph-name="uni00AD" unicode="&#xad;" horiz-adv-x="397" 
d="M30 278v35h337v-35h-337z" />
    <glyph glyph-name="periodcentered" unicode="&#xb7;" horiz-adv-x="148" 
d="M41.5 233.5q-11.5 13.5 -11.5 32.5t11.5 32.5t32.5 13.5t32.5 -13.5t11.5 -32.5t-11.5 -32.5t-32.5 -13.5t-32.5 13.5z" />
    <glyph glyph-name="guillemotright" unicode="&#xbb;" horiz-adv-x="442" 
d="M90 500l192 -224l-192 -224h-60l192 224l-192 224h60zM220 500l192 -224l-192 -224h-60l192 224l-192 224h60z" />
    <glyph glyph-name="questiondown" unicode="&#xbf;" horiz-adv-x="519" 
d="M353.5 523.5q11.5 -13.5 11.5 -32.5t-11.5 -32.5t-32.5 -13.5t-32.5 13.5t-11.5 32.5t11.5 32.5t32.5 13.5t32.5 -13.5zM54.5 94q21.5 36 50.5 58.5t77 51.5q40 24 63 41t39 41.5t17 57.5h40q1 -47 -16.5 -81t-43.5 -57t-71 -54q-39 -27 -63 -46.5t-43 -47.5t-25 -64
q-2 -16 -2 -23q0 -58 46 -95.5t120 -37.5q23 0 35 2q73 9 127 65.5t75 152.5l9 -1l-17 -180h-10q0 17 -14 17q-15 0 -52 -25q-34 -24 -67.5 -36.5t-85.5 -12.5q-58 0 -108 22t-79 64.5t-26 99.5q3 52 24.5 88z" />
    <glyph glyph-name="multiply" unicode="&#xd7;" horiz-adv-x="339" 
d="M309 436l-117 -135l117 -136l-24 -24l-115 134l-116 -134l-24 24l117 136l-117 135l24 24l116 -134l115 134z" />
    <glyph glyph-name="divide" unicode="&#xf7;" horiz-adv-x="397" 
d="M161.5 421.5q-11.5 13.5 -11.5 32.5t11.5 32.5t32.5 13.5t32.5 -13.5t11.5 -32.5t-11.5 -32.5t-32.5 -13.5t-32.5 13.5zM30 278v35h337v-35h-337zM161.5 63.5q-11.5 13.5 -11.5 32.5t11.5 32.5t32.5 13.5t32.5 -13.5t11.5 -32.5t-11.5 -32.5t-32.5 -13.5t-32.5 13.5z" />
    <glyph glyph-name="endash" unicode="&#x2013;" horiz-adv-x="447" 
d="M30 278v35h387v-35h-387z" />
    <glyph glyph-name="emdash" unicode="&#x2014;" horiz-adv-x="547" 
d="M30 278v35h487v-35h-487z" />
    <glyph glyph-name="quoteleft" unicode="&#x2018;" horiz-adv-x="161" 
d="M119.5 620.5q11.5 -13.5 11.5 -32.5t-11.5 -32.5t-32.5 -13.5q-28 0 -42.5 17.5t-14.5 43.5q0 36 23.5 66.5t60.5 30.5q5 0 17 -2l-1 -6q-19 2 -33.5 -7t-22.5 -23t-8 -24q0 -4 2 -8q7 4 19 4q21 0 32.5 -13.5z" />
    <glyph glyph-name="quoteright" unicode="&#x2019;" horiz-adv-x="161" 
d="M116.5 682.5q14.5 -17.5 14.5 -43.5q0 -36 -23.5 -66.5t-60.5 -30.5q-5 0 -17 2l1 6q19 -2 33.5 7t22.5 23t8 24q0 4 -2 8q-7 -4 -19 -4q-21 0 -32.5 13.5t-11.5 32.5t11.5 32.5t32.5 13.5q28 0 42.5 -17.5z" />
    <glyph glyph-name="quotesinglbase" unicode="&#x201a;" horiz-adv-x="161" 
d="M116.5 74.5q14.5 -17.5 14.5 -43.5q0 -36 -23.5 -66.5t-60.5 -30.5q-5 0 -17 2l1 6q19 -2 33.5 7t22.5 23t8 24q0 4 -2 8q-7 -4 -19 -4q-21 0 -32.5 13.5t-11.5 32.5t11.5 32.5t32.5 13.5q28 0 42.5 -17.5z" />
    <glyph glyph-name="quotedblleft" unicode="&#x201c;" horiz-adv-x="286" 
d="M119.5 620.5q11.5 -13.5 11.5 -32.5t-11.5 -32.5t-32.5 -13.5q-28 0 -42.5 17.5t-14.5 43.5q0 36 23.5 66.5t60.5 30.5q5 0 17 -2l-1 -6q-19 2 -33.5 -7t-22.5 -23t-8 -24q0 -4 2 -8q7 4 19 4q21 0 32.5 -13.5zM244.5 620.5q11.5 -13.5 11.5 -32.5t-11.5 -32.5
t-32.5 -13.5q-28 0 -42.5 17.5t-14.5 43.5q0 36 23.5 66.5t60.5 30.5q5 0 17 -2l-1 -6q-19 2 -33.5 -7t-22.5 -23t-8 -24q0 -4 2 -8q7 4 19 4q21 0 32.5 -13.5z" />
    <glyph glyph-name="quotedblright" unicode="&#x201d;" horiz-adv-x="286" 
d="M116.5 682.5q14.5 -17.5 14.5 -43.5q0 -36 -23.5 -66.5t-60.5 -30.5q-5 0 -17 2l1 6q19 -2 33.5 7t22.5 23t8 24q0 4 -2 8q-7 -4 -19 -4q-21 0 -32.5 13.5t-11.5 32.5t11.5 32.5t32.5 13.5q28 0 42.5 -17.5zM241.5 682.5q14.5 -17.5 14.5 -43.5q0 -36 -23.5 -66.5
t-60.5 -30.5q-5 0 -17 2l1 6q19 -2 33.5 7t22.5 23t8 24q0 4 -2 8q-7 -4 -19 -4q-21 0 -32.5 13.5t-11.5 32.5t11.5 32.5t32.5 13.5q28 0 42.5 -17.5z" />
    <glyph glyph-name="quotedblbase" unicode="&#x201e;" horiz-adv-x="281" 
d="M116.5 74.5q14.5 -17.5 14.5 -43.5q0 -36 -23.5 -66.5t-60.5 -30.5q-5 0 -17 2l1 6q19 -2 33.5 7t22.5 23t8 24q0 4 -2 8q-7 -4 -19 -4q-21 0 -32.5 13.5t-11.5 32.5t11.5 32.5t32.5 13.5q28 0 42.5 -17.5zM236.5 74.5q14.5 -17.5 14.5 -43.5q0 -36 -23.5 -66.5
t-60.5 -30.5q-5 0 -17 2l1 6q19 -2 33.5 7t22.5 23t8 24q0 4 -2 8q-7 -4 -19 -4q-21 0 -32.5 13.5t-11.5 32.5t11.5 32.5t32.5 13.5q28 0 42.5 -17.5z" />
    <glyph glyph-name="bullet" unicode="&#x2022;" horiz-adv-x="202" 
d="M49 214q-19 22 -19 52t19 52t52 22q34 0 52.5 -22t18.5 -52t-18.5 -52t-52.5 -22q-33 0 -52 22z" />
    <glyph glyph-name="ellipsis" unicode="&#x2026;" horiz-adv-x="368" 
d="M41.5 13.5q-11.5 13.5 -11.5 32.5t11.5 32.5t32.5 13.5t32.5 -13.5t11.5 -32.5t-11.5 -32.5t-32.5 -13.5t-32.5 13.5zM151.5 13.5q-11.5 13.5 -11.5 32.5t11.5 32.5t32.5 13.5t32.5 -13.5t11.5 -32.5t-11.5 -32.5t-32.5 -13.5t-32.5 13.5zM261.5 13.5
q-11.5 13.5 -11.5 32.5t11.5 32.5t32.5 13.5t32.5 -13.5t11.5 -32.5t-11.5 -32.5t-32.5 -13.5t-32.5 13.5z" />
    <glyph glyph-name="guilsinglleft" unicode="&#x2039;" horiz-adv-x="312" 
d="M282 500l-192 -224l192 -224h-60l-192 224l192 224h60z" />
    <glyph glyph-name="guilsinglright" unicode="&#x203a;" horiz-adv-x="312" 
d="M90 500l192 -224l-192 -224h-60l192 224l-192 224h60z" />
    <glyph glyph-name="fraction" unicode="&#x2044;" horiz-adv-x="594" 
d="M90 0h-60l474 700h60z" />
    <glyph glyph-name="Euro" unicode="&#x20ac;" horiz-adv-x="692" 
d="M574.5 55q56.5 39 73.5 110l14 -2l-21 -151h-10q0 11 -8 18t-22 7q-16 0 -44 -11q-55 -30 -125 -30q-85 0 -156 39.5t-117.5 109t-58.5 156.5h-70v15h68q-2 26 -2 40q0 13 2 35h-68v15h69q12 88 58.5 159t118.5 111t158 40q67 0 123 -30q28 -11 44 -11q14 0 22 7t8 18h10
l21 -151l-14 -2q-17 72 -75 111t-131 39q-74 0 -128.5 -39.5t-86 -105.5t-39.5 -146h269v-15h-270q-1 -12 -1 -35q0 -14 2 -40h269v-15h-268q9 -80 41 -145t87.5 -103.5t129.5 -37.5q71 1 127.5 40z" />
    <glyph glyph-name="minus" unicode="&#x2212;" horiz-adv-x="397" 
d="M30 278v35h337v-35h-337z" />
    <glyph glyph-name="R.ss02" unicode="&#xe017;" horiz-adv-x="995" 
d="M1503.5 -98.5q25.5 -31.5 25.5 -76.5q0 -38 -20 -73.5t-61.5 -59t-103.5 -26.5l-27 -1q-188 0 -313.5 108.5t-190.5 276.5q-19 48 -45 146q-16 60 -28 94t-32.5 57.5t-52.5 29.5q-40 -6 -62 -6q-16 0 -25 3.5t-9 8.5q0 12 33 18q30 4 43 4q24 0 45 -6q14 2 21 5
q43 19 75 67.5t32 117.5q0 70 -38.5 119t-102.5 73.5t-140 23.5q-116 -1 -223.5 -46.5t-175 -128t-67.5 -187.5q0 -75 39.5 -115t97.5 -40q37 0 72 17t60 50t32 78q2 16 2 27q0 27 -6 56t-17 72q-10 36 -14 57.5t-3 36.5l-22 -20q-42 -39 -62 -67.5t-20 -68.5q0 -59 59 -109
q-14 42 -14 100q0 35 6.5 64.5t20.5 46.5l1 -1q-20 -29 -20 -96q0 -34 5 -68t13 -56l20 -13q9 -6 9 -11q0 -3 -3 -5t-7 -2q-16 0 -27 30q-79 50 -79 118q0 43 23 73t69 70q18 13 30 25l2 6q3 6 6.5 9t6.5 3t3 -3t-6 -11l-6 -6l-1 -10q0 -21 9 -54t11 -40q15 -51 22.5 -86.5
t4.5 -65.5q-6 -55 -35.5 -94t-73 -59t-90.5 -20t-88 20t-66 59.5t-25 95.5q0 15 1 23q10 106 90 187.5t198.5 126t237.5 44.5q93 0 175.5 -25.5t134 -77t51.5 -125.5t-50.5 -121t-115.5 -72q-10 -4 -15 -5q63 -27 103.5 -96t85.5 -189q71 -193 177.5 -309.5t270.5 -115.5
q58 0 96.5 19t56.5 48.5t18 61.5q0 36 -22 62t-57 26q-23 0 -44 -13q-7 -4 -14 2t-7 15q0 11 9 16q11 7 26.5 11t29.5 4q42 0 67.5 -31.5zM552 21q8 -11 36 -11v-10h-178v10q28 0 36 11t8 42v574q0 31 -8 42t-36 11v10h134v-637q0 -31 8 -42zM295 398q4 -11 11 -13h1
q2 0 2 2q0 3 -7 7z" />
    <glyph glyph-name="l.ss07" unicode="&#xe05a;" 
d="M1093 959.5q36 -19.5 59.5 -57.5t23.5 -88q0 -65 -35.5 -126.5t-107 -101.5t-172.5 -40q-61 0 -116 14t-128 41q-63 22 -102 32.5t-78 10.5q-28 0 -48 -5q-13 -19 -40 -37q-41 -28 -66 -28q-12 0 -12 8q0 15 37 39q16 11 36 19q21 47 21 93q0 33 -12.5 54t-38.5 22
q-82 1 -116 -91t-34 -221v-434q0 -31 8 -42t36 -11v-10h-178v10q28 0 36 11t8 42v434q0 92 27.5 165t81.5 114.5t132 41.5q51 0 78.5 -26.5t27.5 -66.5q0 -34 -20 -68q23 4 52 4q40 0 81 -7t111 -23q69 -16 121 -25t104 -9q96 0 162 30t98.5 78.5t32.5 104.5
q0 48 -23.5 84.5t-60 54t-74.5 13.5q-28 -3 -45.5 -12t-44.5 -29q-5 -3 -24 -17.5t-44 -27.5q-23 -13 -52 -19t-55.5 -10t-33.5 -5q-66 -8 -87 -17l-5 -9q-5 -9 -10 -9q-2 0 -4 2t-2 5q0 5 5 10l7 6l10 26q20 54 41 89.5t54 52.5q30 15 68 15q25 0 49 -6.5t39 -16.5
q29 0 30 -15v-2q0 -6 -5 -6q-6 0 -11 4q-9 5 -23 11q-46 -5 -109.5 -37t-97.5 -78l-1 2q31 46 88 78.5t106 40.5q-36 10 -62 10q-36 0 -65 -14t-46 -41t-38 -76l-13 -30q14 5 37 9.5t47 7.5q46 6 77.5 12.5t54.5 19.5q25 13 63 42q31 23 54 34t63 14q37 3 73 -16.5zM879 983
l4 -4q3 -3 6.5 -3.5t3.5 1.5q0 6 -14 6z" />
    <glyph glyph-name="y.ss11" unicode="&#xe080;" horiz-adv-x="514" 
d="M484 490q-25 0 -38.5 -9.5t-21.5 -31.5l-131 -449q-61 -215 -181.5 -329.5t-288.5 -103.5q-70 5 -125.5 42t-86.5 96t-31 128q0 24 5 54q-56 -36 -138 -41q-42 -2 -61 -2q-75 0 -136 10t-147 30q-77 18 -126 26t-103 6q-100 -4 -166 -35.5t-97 -80t-31 -107.5
q0 -48 24 -81.5t60.5 -49t74.5 -11.5q28 3 46 12t45 30q33 25 67 44q25 13 57.5 20t81.5 13q34 4 55 7.5t35 10.5l4 9q4 9 10 9q2 0 4 -2t2 -5q0 -5 -5 -10l-7 -6l-11 -28q-21 -55 -41 -89t-53 -51q-30 -15 -67 -15q-48 0 -88 24q-27 0 -31 14v3q0 6 6 6q3 0 10 -5
q5 -4 21 -11q28 3 68 18t79 40t62 57l1 -2q-31 -47 -89 -79t-107 -40q30 -10 63 -10q38 0 66 14q31 15 50.5 46.5t39.5 82.5l8 19q-14 -6 -38 -10.5t-49 -7.5q-42 -6 -74 -13t-56 -19q-28 -15 -64 -42q-31 -24 -54 -34.5t-62 -13.5q-37 -3 -73.5 16.5t-59.5 58t-23 89.5
q0 65 36.5 126.5t109.5 100.5t176 39q52 0 102.5 -12t126.5 -36q88 -29 155.5 -44t144.5 -15q116 0 170 44q6 22 10 33q6 15 17 15q5 0 9 -4t4 -11q0 -9 -7 -17q-7 -9 -16 -16q-5 -21 -5 -50q0 -59 29 -111t80 -84.5t112 -36.5q13 -1 37 -1q158 0 263.5 98.5t155.5 280.5
h-50l-139 451q-8 21 -21 30t-38 9v10h181v-10q-19 0 -26.5 -5t-7.5 -16q0 -9 3 -21l117 -381l113 386q2 12 2 15q0 12 -8 17t-27 5v10h107v-10zM-1134 -470l-5 4q-3 3 -6.5 3.5t-3.5 -1.5q0 -6 15 -6z" />
    <glyph glyph-name="o_m" unicode="&#xe0a0;" horiz-adv-x="1224" 
d="M1158 21q8 -11 36 -11v-10h-178v10q28 0 36 11t8 42v296q0 70 -12 101.5t-48 31.5t-63.5 -34.5t-42 -86.5t-14.5 -103v-205q0 -31 8 -42t36 -11v-10h-178v10q28 0 36 11t8 42v296q0 70 -12 101.5t-48 31.5t-63.5 -34.5t-42 -86.5t-14.5 -103v-205q0 -31 8 -42t36 -11v-10
h-178v10q28 0 36 11t8 42v318q0 49 -23.5 68.5t-64.5 19.5q-28 0 -52 -4q43 -29 65.5 -81t22.5 -113q0 -68 -26.5 -130.5t-77.5 -101.5t-121 -39q-68 0 -116 34.5t-72.5 90.5t-24.5 121t24.5 124t72.5 98.5t116 46.5h1q5 0 5 -4t-6 -6q-59 -11 -92 -86.5t-33 -172.5
t33 -166.5t92 -69.5q41 0 73 40t49.5 102.5t17.5 127.5q0 60 -15.5 107.5t-45.5 68.5q-26 -2 -38 -2q-22 1 -33 7t-11 14t9.5 14t23.5 6q43 0 80 -16q33 6 71 11t68 5q55 0 86.5 -22.5t31.5 -78.5v-33q14 64 47 107t87 47q6 1 17 1q119 0 119 -155q14 64 47 107t87 47
q6 1 17 1q119 0 119 -157v-296q0 -31 8 -42z" />
    <glyph glyph-name="part_swash_a" horiz-adv-x="234" 
d="M376 754q10 -7 10 -16q0 -10 -12 -16.5t-34 -6.5q-36 0 -95 18q-5 1 -15 5q-38 -20 -53 -76t-13 -152h-90q0 75 39 138.5t102 94.5q-38 13 -76 30.5t-46 21.5q-58 27 -96.5 42.5t-88 26.5t-107.5 11q-91 0 -150.5 -24.5t-87.5 -63t-28 -80.5q0 -33 16 -62t45 -46.5
t66 -17.5q47 0 85.5 21t87.5 59q33 26 48 33q-6 3 -29.5 13t-43.5 15t-38 5q-74 0 -105 -78q26 20 63.5 34t73.5 14q14 0 28 -3v-2q-6 1 -19 1q-40 0 -83 -19t-68 -40q-4 -12 -6 -22q-3 -10 -9.5 -9.5t-6.5 9.5q0 13 17 28q25 99 109 99q27 0 52 -9t45.5 -20t27.5 -14h6
q6 -1 10 -3.5t4 -5.5q0 -2 -4 -2q-5 0 -9 2l-6 3q-11 -4 -27.5 -17t-20.5 -16q-47 -39 -89.5 -62.5t-97.5 -23.5q-46 0 -80 20.5t-51.5 54t-17.5 73.5q0 54 32.5 102.5t98.5 78t162 25.5q61 -3 115.5 -25t137.5 -67q59 -31 97 -49.5t81 -33.5q42 16 84 16q21 0 31 -2
q19 -3 29 -10zM-347 624q-5 -7 -5 -10q0 -2 1 -2q2 2 3 8z" />
    <glyph glyph-name="part_swash_bwh_b" horiz-adv-x="508" 
d="M641.5 -101q11.5 -6 11.5 -15q0 -8 -9.5 -16t-26.5 -12q-36 -10 -72 -10q-24 0 -51 5q-40 -23 -122 -89q-75 -60 -132.5 -100t-127 -71t-141.5 -36q-11 -1 -33 -1q-86 0 -145 31t-87 79t-28 100q0 44 17.5 79.5t47 55.5t62.5 20q21 0 32 -8.5t26 -27.5q20 -28 42 -40
q21 -12 48 -20.5t31 -9.5q40 -11 52 -19q-9 48 -19 78t-34 53q-30 26 -70 26q-18 0 -36 -5q37 -12 75 -41.5t55 -67.5l-1 -1q-20 40 -66.5 69t-82.5 35q-12 -3 -18 -6q-2 -1 -6 -1t-6 2.5t0 6.5q6 9 22 9q9 0 14 -1q32 12 59 12q41 0 69 -27q24 -23 33 -52.5t13.5 -57
t5.5 -36.5l3 -4q3 -6 3 -10q0 -7 -3 -7q-4 0 -7 11l-1 6q-13 8 -54 19q-55 14 -83 30q-16 9 -25.5 19t-18.5 25q-11 16 -21 23.5t-28 7.5q-45 0 -74.5 -36.5t-29.5 -86.5q0 -12 1 -18q10 -73 72.5 -120t193.5 -43q66 2 133.5 28t126 61.5t138.5 90.5q70 49 107 71
q-60 18 -96 66.5t-36 117.5h90q-2 -80 13 -121t49 -52q68 38 114 38q20 0 31.5 -6zM-163 -59l-2 -1l0.5 -0.5l0.5 -0.5q2 0 8 3q-5 0 -7 -1z" />
    </font>
</defs>
</svg>
