<svg version="1.2" xmlns="http://www.w3.org/2000/svg" viewBox="0 0 24 24" width="24" height="24">
	<title>call</title>
	<style>
		.s0 { fill: #0a4c4a } 
	</style>
	<path class="s0" d="m17.4 22.8q-1.6-0.1-3.5-0.8-1.8-0.8-3.6-2.1-1.7-1.3-3.4-2.9-1.6-1.6-2.8-3.3-1.3-1.8-2.1-3.6-0.7-1.9-0.7-3.6 0-1.1 0.4-2.2 0.4-1 1.3-1.9 1.2-1.2 2.6-1.2c0.4 0 0.8 0.1 1.1 0.3q0.6 0.3 1 0.8l2.3 3.3q0.3 0.4 0.5 0.8 0.2 0.5 0.2 0.9 0 0.6-0.3 1.1-0.3 0.4-0.7 0.9l-0.7 0.7q0 0 0 0.1c0.2 0.2 0.4 0.5 0.9 1.1q0.7 0.8 1.4 1.5c0.6 0.6 1.1 1 1.5 1.4 0.6 0.5 1 0.7 1.2 0.8v0.1l0.7-0.7q0.4-0.5 0.9-0.7c0.5-0.4 1.2-0.4 1.9-0.1q0.4 0.1 0.9 0.4l3.3 2.4q0.5 0.4 0.8 1 0.2 0.5 0.2 1 0 0.8-0.3 1.4-0.3 0.7-0.8 1.2-0.9 1-1.9 1.4-1.1 0.4-2.2 0.4zm-11.9-19.9q-0.8-0.1-1.6 0.7-0.6 0.6-0.9 1.4-0.4 0.8-0.3 1.6 0 1.4 0.6 3 0.7 1.6 1.9 3.3 1.2 1.6 2.7 3.2c1 0.9 2.1 1.9 3.2 2.7q1.6 1.2 3.3 1.9c1.7 0.7 3.3 0.9 4.6 0.3q0.8-0.3 1.4-1 0.3-0.3 0.5-0.8 0.2-0.4 0.2-0.8 0-0.2-0.1-0.5c0 0-0.1-0.2-0.3-0.3l-3.3-2.3q-0.3-0.2-0.5-0.4c-0.3 0-0.3-0.1-0.7 0.1q-0.3 0.1-0.6 0.4l-0.7 0.8c-0.4 0.4-1 0.4-1.5 0.3l-0.2-0.1q-0.7-0.4-1.5-1.1c-0.4-0.4-1-0.8-1.6-1.5q-0.7-0.7-1.5-1.6-0.7-0.8-1-1.4l-0.1-0.3c-0.1-0.2-0.1-0.4-0.1-0.5q0-0.5 0.4-0.9l0.7-0.8q0.3-0.3 0.5-0.6 0.1-0.2 0.1-0.3 0-0.1-0.1-0.3-0.1-0.3-0.3-0.6l-2.3-3.2q-0.2-0.2-0.4-0.3-0.3-0.1-0.5-0.2zm8.4 12.3l-0.2 0.7 0.3-0.7q-0.1 0-0.1 0z"/>
</svg>